<?xml version="1.0" encoding="UTF-8" standalone="no"?>
<!-- Created with Inkscape (http://www.inkscape.org/) -->

<svg
   xmlns:dc="http://purl.org/dc/elements/1.1/"
   xmlns:cc="http://creativecommons.org/ns#"
   xmlns:rdf="http://www.w3.org/1999/02/22-rdf-syntax-ns#"
   xmlns:svg="http://www.w3.org/2000/svg"
   xmlns="http://www.w3.org/2000/svg"
   xmlns:sodipodi="http://sodipodi.sourceforge.net/DTD/sodipodi-0.dtd"
   xmlns:inkscape="http://www.inkscape.org/namespaces/inkscape"
   width="466.90625"
   height="526.40625"
   id="svg2"
   version="1.1"
   inkscape:version="0.48.4 r9939"
   sodipodi:docname="Nouveau document 1">
  <defs
     id="defs4" />
  <sodipodi:namedview
     id="base"
     pagecolor="#ffffff"
     bordercolor="#666666"
     borderopacity="1.0"
     inkscape:pageopacity="0.0"
     inkscape:pageshadow="2"
     inkscape:zoom="0.7"
     inkscape:cx="282.84978"
     inkscape:cy="204.49102"
     inkscape:document-units="px"
     inkscape:current-layer="layer1"
     showgrid="false"
     fit-margin-top="0"
     fit-margin-left="0"
     fit-margin-right="0"
     fit-margin-bottom="0"
     inkscape:window-width="1440"
     inkscape:window-height="876"
     inkscape:window-x="0"
     inkscape:window-y="24"
     inkscape:window-maximized="1" />
  <metadata
     id="metadata7">
    <rdf:RDF>
      <cc:Work
         rdf:about="">
        <dc:format>image/svg+xml</dc:format>
        <dc:type
           rdf:resource="http://purl.org/dc/dcmitype/StillImage" />
        <dc:title></dc:title>
      </cc:Work>
    </rdf:RDF>
  </metadata>
  <g
     inkscape:label="Calque 1"
     inkscape:groupmode="layer"
     id="layer1"
     transform="translate(-145.36532,-208.5972)">
    <g
       id="g3878">
      <path
         inkscape:connector-curvature="0"
         id="rect2996"
         d="m 147.95907,209.0972 c -0.28179,4.67509 -0.4375,9.37907 -0.4375,14.125 0,91.4726 53.10281,170.53057 130.15625,208.0625 l -131.8125,0 0,81.03126 131.8125,0 c -77.05344,37.53193 -130.15625,116.58989 -130.15625,208.0625 0,4.74594 0.15571,9.44992 0.4375,14.125 l 80.34375,0 c -0.43074,-4.64963 -0.65625,-9.36289 -0.65625,-14.125 0,-69.46956 46.85178,-127.98506 110.6875,-145.6875 l 0,159.8125 80.96875,0 0,-159.8125 c 63.83946,17.69997 110.71875,76.21528 110.71875,145.6875 0,4.76266 -0.25666,9.47483 -0.6875,14.125 l 80.34375,0 c 0.28184,-4.67548 0.46875,-9.37865 0.46875,-14.125 0,-91.47087 -53.10519,-170.52972 -130.15625,-208.0625 l 131.78125,0 0,-81.03125 -131.78125,0 c 77.05106,-37.53278 130.15625,-116.59163 130.15625,-208.0625 0,-4.74633 -0.18691,-9.4495 -0.46875,-14.125 l -80.34375,0 c 0.43084,4.65017 0.6875,9.36232 0.6875,14.125 0,69.47222 -46.87929,127.98753 -110.71875,145.6875 l 0,-159.8125 -80.96875,0 0,159.8125 c -63.83572,-17.70244 -110.6875,-76.21796 -110.6875,-145.68751 0,-4.7621 0.22551,-9.47538 0.65625,-14.125 l -80.34375,0 z"
         style="fill:#000000;fill-opacity:1;stroke:#000000;stroke-width:1;stroke-miterlimit:4;stroke-opacity:1" />
      <path
         inkscape:connector-curvature="0"
         id="rect2996-8"
         d="m 153.61532,216.03471 c -3.47696,83.03239 43.38642,165.4161 116.62269,204.58204 9.79861,5.50986 19.84063,10.58161 29.84606,15.76171 -49.39029,1.71909 -98.81288,0.62966 -148.21875,0.90625 0,23.01042 0,46.02083 0,69.03125 49.27898,0.41171 98.58649,-0.936 147.84375,0.96875 -37.14109,17.84652 -72.95901,40.74945 -98.05478,73.88049 -32.70796,41.40573 -50.12659,94.496 -47.97647,147.33826 22.70833,0 45.41667,0 68.125,0 -4.19985,-65.44895 37.32474,-130.70211 98.53125,-154 7.80462,-3.17582 15.84282,-5.64119 24,-7.6875 0,53.89583 0,107.79167 0,161.6875 22.98958,0 45.97917,0 68.96875,0 0,-53.875 0,-107.75 0,-161.625 64.12807,13.7184 115.98723,71.41302 121.86838,136.92622 0.8299,8.2006 1.08336,16.46743 0.63162,24.69878 22.71875,0 45.4375,0 68.15625,0 3.95234,-82.28122 -42.01158,-164.29738 -113.8781,-204.04871 -10.63127,-5.99734 -21.69841,-11.60431 -32.4969,-17.45129 49.38724,-1.27498 98.79185,-0.46247 148.1875,-0.6875 0,-23.01042 0,-46.02083 0,-69.03125 -49.21558,-0.41183 -98.471,1.09177 -147.65625,-1.15625 37.11677,-17.54944 72.87853,-40.71526 97.9375,-73.71875 32.63198,-41.33759 50.13473,-94.54301 47.90625,-147.3125 -22.70833,0 -45.41667,0 -68.125,0 4.25945,64.88035 -36.6487,129.61252 -97.03125,153.4375 -8.26449,3.41986 -16.81671,6.06626 -25.5,8.21875 0,-53.88542 0,-107.77083 0,-161.65625 -22.98958,0 -45.97917,0 -68.96875,0 0,53.85417 0,107.70833 0,161.5625 -65.16862,-13.73426 -117.34495,-73.13673 -122.09375,-139.5625 -0.65026,-7.31023 -0.75972,-14.67182 -0.375,-22 -22.72916,0 -45.45833,0 -68.1875,0 l -0.0625,0.9375 z"
         style="fill:#ffffff;fill-opacity:0;stroke:#f8c300;stroke-width:5;stroke-miterlimit:4;stroke-opacity:1;stroke-dasharray:none" />
    </g>
  </g>
</svg>
