<?xml version="1.0" encoding="UTF-8" standalone="no"?>
<!-- Created with Inkscape (http://www.inkscape.org/) -->

<svg
   xmlns:dc="http://purl.org/dc/elements/1.1/"
   xmlns:cc="http://creativecommons.org/ns#"
   xmlns:rdf="http://www.w3.org/1999/02/22-rdf-syntax-ns#"
   xmlns:svg="http://www.w3.org/2000/svg"
   xmlns="http://www.w3.org/2000/svg"
   xmlns:xlink="http://www.w3.org/1999/xlink"
   xmlns:sodipodi="http://sodipodi.sourceforge.net/DTD/sodipodi-0.dtd"
   xmlns:inkscape="http://www.inkscape.org/namespaces/inkscape"
   width="508.53067"
   height="508.52872"
   id="svg6568"
   version="1.1"
   inkscape:version="0.48.4 r9939"
   sodipodi:docname="Nouveau document 4">
  <defs
     id="defs6570">
    <radialGradient
       id="radialGradient3907"
       spreadMethod="pad"
       gradientTransform="matrix(-19.3188,-17.3251,-17.3251,19.3188,534.74799,299.63205)"
       gradientUnits="userSpaceOnUse"
       r="1"
       cy="0"
       cx="0"
       fy="0"
       fx="0">
      <stop
         id="stop3909"
         offset="0"
         style="stop-opacity:1;stop-color:#4e6c92" />
      <stop
         id="stop3911"
         offset="1"
         style="stop-opacity:1;stop-color:#15234e" />
    </radialGradient>
    <radialGradient
       r="1"
       fy="0"
       fx="0"
       cy="0"
       cx="0"
       spreadMethod="pad"
       gradientTransform="matrix(-19.3188,-17.3251,-17.3251,19.3188,534.74799,299.63205)"
       gradientUnits="userSpaceOnUse"
       id="radialGradient6566"
       xlink:href="#radialGradient3907"
       inkscape:collect="always" />
    <radialGradient
       inkscape:collect="always"
       xlink:href="#radialGradient3907"
       id="radialGradient6676"
       gradientUnits="userSpaceOnUse"
       gradientTransform="matrix(-19.3188,-17.3251,-17.3251,19.3188,534.74799,299.63205)"
       spreadMethod="pad"
       cx="0"
       cy="0"
       fx="0"
       fy="0"
       r="1" />
  </defs>
  <sodipodi:namedview
     id="base"
     pagecolor="#ffffff"
     bordercolor="#666666"
     borderopacity="1.0"
     inkscape:pageopacity="0.0"
     inkscape:pageshadow="2"
     inkscape:zoom="0.7"
     inkscape:cx="295.25501"
     inkscape:cy="183.98524"
     inkscape:document-units="px"
     inkscape:current-layer="layer1"
     showgrid="false"
     fit-margin-top="0"
     fit-margin-left="0"
     fit-margin-right="0"
     fit-margin-bottom="0"
     inkscape:window-width="1920"
     inkscape:window-height="1056"
     inkscape:window-x="0"
     inkscape:window-y="24"
     inkscape:window-maximized="1" />
  <metadata
     id="metadata6573">
    <rdf:RDF>
      <cc:Work
         rdf:about="">
        <dc:format>image/svg+xml</dc:format>
        <dc:type
           rdf:resource="http://purl.org/dc/dcmitype/StillImage" />
        <dc:title></dc:title>
      </cc:Work>
    </rdf:RDF>
  </metadata>
  <g
     inkscape:label="Calque 1"
     inkscape:groupmode="layer"
     id="layer1"
     transform="translate(-127.16325,-159.52547)">
    <g
       id="g6645"
       transform="matrix(9.8959413,0,0,9.8959413,-3944.5115,-3582.0998)">
      <g
         transform="matrix(1.25,0,0,-1.25,-225.44699,772.33199)"
         id="g3905">
        <path
           id="path3913"
           style="fill:url(#radialGradient6676);stroke:none"
           d="m 529.2,315.353 c -0.367,0.023 -0.731,0.034 -1.093,0.035 -5.092,0.009 -9.704,-2.159 -13.723,-6.454 -3.663,-3.915 -4.887,-7.064 -4.867,-10.873 0.01,-2.019 0.368,-4.223 0.898,-6.825 1.002,-4.923 3.925,-9.676 8.019,-13.042 3.152,-2.59 6.668,-3.906 10.375,-3.916 1.89,-0.005 3.828,0.329 5.793,1.007 6.413,2.214 12.547,8.551 14.918,15.41 0.741,2.148 1.106,4.238 1.107,6.229 0,4.94 -2.245,9.272 -6.553,12.364 -5.203,3.737 -10.207,5.777 -14.874,6.065"
           inkscape:connector-curvature="0" />
      </g>
      <path
         id="path3915"
         style="fill:#ffffff;fill-opacity:1;fill-rule:nonzero;stroke:none"
         d="m 427.55551,402.50824 -1.7625,0 -0.002,0.05 c -0.0138,0.34125 -0.21625,3.34 -2.9,3.34 -2.3975,0 -3.61375,-2.14875 -3.61625,-6.3875 0.002,-4.2375 1.21875,-6.38625 3.61625,-6.38625 2.73,0 2.895,3.20375 2.9,3.34 l 0.002,0.05 1.7625,0 c 0.1625,0 0.32125,-0.0675 0.435,-0.18375 0.10875,-0.11125 0.16375,-0.25625 0.15625,-0.40625 -0.0362,-0.83125 -0.4625,-4.97875 -5.28125,-4.97875 -3.8925,0 -5.95125,2.95875 -5.95125,8.55625 0,5.61 2.05875,8.575 5.95125,8.575 4.6375,0 5.21375,-3.7875 5.28125,-4.94875 0.0113,-0.16125 -0.0437,-0.315 -0.15625,-0.4325 -0.1125,-0.12 -0.27125,-0.1875 -0.435,-0.1875"
         inkscape:connector-curvature="0" />
      <path
         id="path3917"
         style="fill:#41c4df;fill-opacity:1;fill-rule:nonzero;stroke:none"
         d="m 453.12926,398.49199 0,0.001 -1.51875,-0.6625 c -1.45875,-0.64125 -1.9775,-1.265 -1.9775,-2.385 0,-1.46 1.06875,-2.44125 2.65875,-2.44125 0.93875,0 1.71,0.1925 2.65125,1.15125 l 0.0513,0.0525 0.81125,-0.74125 c 0.46875,-0.435 0.3325,-0.8275 0.1375,-1.08 -0.79125,-0.93125 -2.06,-1.44375 -3.57375,-1.44375 -2.9225,0 -5.0425,1.90625 -5.0425,4.53125 0,2.5825 1.6275,3.6625 3.385,4.44375 l 1.54875,0.69125 c 1.55625,0.6975 2.29875,1.29375 2.29875,2.79125 0,2.0425 -1.84625,2.5875 -2.9375,2.5875 -0.9375,0 -1.9825,-0.20125 -3.26625,-1.655 l -0.05,-0.0575 -0.84375,0.74125 c -0.43375,0.3825 -0.4375,0.71 -0.015,1.25375 1.1625,1.49375 2.865,1.80625 4.09,1.80625 2.6475,0 5.32875,-1.62625 5.32875,-4.73375 0,-2.69 -1.49375,-3.885 -3.73625,-4.85125"
         inkscape:connector-curvature="0" />
      <path
         id="path3919"
         style="fill:#41c4df;fill-opacity:1;fill-rule:nonzero;stroke:none"
         d="m 439.37051,395.84699 c 0,-2.645 -2.14375,-4.88625 -4.79,-4.88625 -1.24375,0 -2.3775,0.475 -3.22875,1.2525 l 0,-0.90875 -1.59375,0 c -0.48,0 -0.6625,0.31375 -0.6625,0.67375 l 0,15.43375 c 0,0.43375 0.265,0.66625 0.655,0.66625 l 1.59375,0 0,-12.1375 c 0,-1.595 1.29375,-2.8875 2.8875,-2.8875 1.595,0 2.8875,1.2925 2.8875,2.8875 l 0,12.14 1.58375,0 c 0.43875,0 0.6675,-0.24375 0.6675,-0.665 0,0 0,-11.55375 0,-11.56875"
         inkscape:connector-curvature="0" />
      <path
         id="path3921"
         style="fill:#ffffff;fill-opacity:1;fill-rule:nonzero;stroke:none"
         d="m 447.60051,392.11449 c 0.0825,-0.10375 0.13375,-0.2325 0.13375,-0.375 0,-0.26625 -0.17375,-0.48875 -0.41125,-0.57 -0.46125,-0.15375 -0.9525,-0.23875 -1.4625,-0.23875 -1.24375,0 -2.3775,0.475 -3.22875,1.2525 l 0,-0.90875 -1.59375,0 c -0.48,0 -0.66375,0.31375 -0.66375,0.67375 l 0,15.43375 c 0,0.43375 0.26625,0.66625 0.65625,0.66625 l 1.59375,0 0,-12.1375 c 0,-1.595 1.29375,-2.8875 2.8875,-2.8875 0.41875,0 0.815,0.0913 1.1725,0.25 l 0.92125,-1.155 -0.005,-0.004"
         inkscape:connector-curvature="0" />
      <path
         id="path3923"
         style="fill:#ffffff;fill-opacity:1;fill-rule:nonzero;stroke:none"
         d="m 434.84676,424.75449 c 0.07,0 0.1325,-0.0412 0.1325,-0.0975 0,-0.0238 -0.004,-0.0488 -0.01,-0.0625 l 0.2425,0 c 0.0213,0.045 0.045,0.11125 0.045,0.18375 0,0.1675 -0.065,0.30625 -0.24625,0.3175 l 0,0.006 c 0.18375,0.1 0.275,0.2475 0.275,0.46625 0,0.2975 -0.1675,0.48625 -0.525,0.48625 -0.4175,0 -0.50375,-0.18125 -0.5875,-0.435 l -0.08,-0.2925 c -0.0375,-0.135 -0.0763,-0.21875 -0.24,-0.21875 -0.17,0 -0.2775,0.06 -0.2775,0.2575 0,0.25 0.1775,0.285 0.3575,0.285 l 0,0.35375 c -0.39625,0 -0.615,-0.1625 -0.615,-0.655 0,-0.33125 0.12875,-0.595 0.45875,-0.595 l 1.07,0 z m -0.5975,0.35375 c 0.0762,0.0975 0.1225,0.30625 0.17375,0.4175 0.0525,0.1075 0.16375,0.1525 0.3025,0.1525 0.15625,0 0.28125,-0.0763 0.28125,-0.2325 0,-0.225 -0.17,-0.3375 -0.44375,-0.3375 l -0.31375,0"
         inkscape:connector-curvature="0" />
      <path
         id="path3925"
         style="fill:#ffffff;fill-opacity:1;fill-rule:nonzero;stroke:none"
         d="m 435.00676,423.41699 0,0.006 c 0.1225,0.0487 0.27875,0.1425 0.27875,0.41 0,0.4375 -0.365,0.6125 -1.0075,0.6125 -0.83125,0 -0.96,-0.2925 -0.96,-0.5775 0,-0.20125 0.10125,-0.35375 0.2675,-0.42375 l 0,-0.007 -0.83,0 0,-0.375 2.48125,0 0,0.355 -0.23,0 z m -1.39,0.34 c 0,0.21625 0.17375,0.29125 0.6775,0.29125 0.425,0 0.69125,-0.055 0.69125,-0.315 0,-0.2575 -0.26375,-0.31625 -0.6625,-0.31625 -0.44875,0 -0.70625,0.0512 -0.70625,0.34"
         inkscape:connector-curvature="0" />
      <path
         id="path3927"
         style="fill:#ffffff;fill-opacity:1;fill-rule:nonzero;stroke:none"
         d="m 433.36676,422.85699 0,-0.4025 1.47375,-0.3275 0,-0.006 -1.47375,-0.29625 0,-0.39875 1.87,0.4925 0,0.43875 -1.87,0.5"
         inkscape:connector-curvature="0" />
      <path
         id="path3929"
         style="fill:#ffffff;fill-opacity:1;fill-rule:nonzero;stroke:none"
         d="m 434.84676,420.03574 c 0.07,0 0.1325,-0.0425 0.1325,-0.0975 0,-0.0238 -0.004,-0.0488 -0.01,-0.0625 l 0.2425,0 c 0.0213,0.045 0.045,0.11125 0.045,0.18375 0,0.1675 -0.065,0.30625 -0.24625,0.3175 l 0,0.006 c 0.18375,0.1 0.275,0.24625 0.275,0.46625 0,0.2975 -0.1675,0.485 -0.525,0.485 -0.4175,0 -0.50375,-0.18 -0.5875,-0.43375 l -0.08,-0.2925 c -0.0375,-0.135 -0.0763,-0.21875 -0.24,-0.21875 -0.17,0 -0.2775,0.0588 -0.2775,0.2575 0,0.25 0.1775,0.285 0.3575,0.285 l 0,0.35375 c -0.39625,0 -0.615,-0.1625 -0.615,-0.65625 0,-0.33 0.12875,-0.59375 0.45875,-0.59375 l 1.07,0 z m -0.5975,0.35375 c 0.0762,0.0975 0.1225,0.30625 0.17375,0.4175 0.0525,0.1075 0.16375,0.1525 0.3025,0.1525 0.15625,0 0.28125,-0.0763 0.28125,-0.2325 0,-0.225 -0.17,-0.3375 -0.44375,-0.3375 l -0.31375,0"
         inkscape:connector-curvature="0" />
      <path
         id="path3931"
         style="fill:#ffffff;fill-opacity:1;fill-rule:nonzero;stroke:none"
         d="m 433.36676,419.65324 0,-0.355 0.21875,0 0,-0.01 c -0.16625,-0.0937 -0.2675,-0.27125 -0.2675,-0.48 0,-0.28375 0.12875,-0.465 0.5075,-0.465 l 1.41125,0 0,0.375 -1.2825,0 c -0.24375,0 -0.3375,0.0738 -0.3375,0.26125 0,0.1525 0.12125,0.29875 0.365,0.29875 l 1.255,0 0,0.375 -1.87,0"
         inkscape:connector-curvature="0" />
      <path
         id="path3933"
         style="fill:#ffffff;fill-opacity:1;fill-rule:nonzero;stroke:none"
         d="m 434.55551,416.72074 c 0.4475,0.025 0.73,0.1775 0.73,0.63875 0,0.5425 -0.40375,0.69625 -0.98375,0.69625 -0.58,0 -0.98375,-0.15375 -0.98375,-0.69625 -0.006,-0.55875 0.43875,-0.6425 0.67125,-0.6425 l 0,0.37625 c -0.17375,0 -0.4,0.0475 -0.3925,0.26625 0,0.27125 0.29125,0.32 0.705,0.32 0.41375,0 0.705,-0.0487 0.705,-0.32 0.004,-0.2075 -0.17,-0.28375 -0.45125,-0.28375 l 0,-0.355"
         inkscape:connector-curvature="0" />
      <path
         id="path3935"
         style="fill:#ffffff;fill-opacity:1;fill-rule:nonzero;stroke:none"
         d="m 433.10301,416.42199 -0.37506,0 0,-0.37499 0.37506,0 0,0.37499 z m -0.375,0 z m 2.50875,0 -1.87,0 0,-0.37499 1.87,0 0,0.37499 z"
         inkscape:connector-curvature="0" />
      <path
         id="path3937"
         style="fill:#ffffff;fill-opacity:1;fill-rule:nonzero;stroke:none"
         d="m 433.36676,415.66824 0,-0.355 0.21875,0 0,-0.01 c -0.16625,-0.0937 -0.2675,-0.27125 -0.2675,-0.47875 0,-0.28625 0.12875,-0.46625 0.5075,-0.46625 l 1.41125,0 0,0.375 -1.2825,0 c -0.24375,0 -0.3375,0.0725 -0.3375,0.26 0,0.15375 0.12125,0.3 0.365,0.3 l 1.255,0 0,0.375 -1.87,0"
         inkscape:connector-curvature="0" />
      <path
         id="path3939"
         style="fill:#ffffff;fill-opacity:1;fill-rule:nonzero;stroke:none"
         d="m 435.39676,413.62199 c 0.11375,0 0.2225,-0.105 0.2225,-0.27125 0,-0.195 -0.13625,-0.31625 -0.3525,-0.31625 l -0.30125,0 0,0.006 c 0.16375,0.07 0.25625,0.24375 0.25625,0.425 0,0.4375 -0.43,0.55875 -0.94125,0.55875 -0.41,0 -0.9625,-0.0625 -0.9625,-0.59375 0,-0.21875 0.1425,-0.375 0.27875,-0.41 l 0,-0.008 -0.23,0 0,-0.35375 1.78,0 c 0.45375,0 0.72875,0.195 0.72875,0.6975 0,0.55625 -0.32625,0.61875 -0.47875,0.61875 l 0,-0.35375 z m -0.47375,-0.265 c 0,-0.29125 -0.3675,-0.3225 -0.6625,-0.3225 -0.30625,0 -0.64375,0.0375 -0.64375,0.29875 0,0.27125 0.27875,0.31625 0.62625,0.31625 0.32,0 0.68,-0.0137 0.68,-0.2925"
         inkscape:connector-curvature="0" />
      <path
         id="path3941"
         style="fill:#ffffff;fill-opacity:1;fill-rule:nonzero;stroke:none"
         d="m 433.56551,411.51699 0,0.25375 -0.175,0 0,-0.25375 -0.51,0 0,-0.2075 0.51,0 0,-0.3275 0.175,0 0,0.3275 1.3225,0 c 0.14625,0 0.195,-0.0625 0.195,-0.19875 0,-0.0413 -0.006,-0.0838 -0.0213,-0.12875 l 0.175,0 c 0.0137,0.0238 0.02,0.0775 0.02,0.14625 0,0.28125 -0.0762,0.38875 -0.3225,0.38875 l -1.36875,0"
         inkscape:connector-curvature="0" />
      <path
         id="path3943"
         style="fill:#ffffff;fill-opacity:1;fill-rule:nonzero;stroke:none"
         d="m 432.75551,410.75574 0,-0.2075 0.8925,0 0,-0.008 c -0.1875,-0.0525 -0.29875,-0.2325 -0.29875,-0.45125 0,-0.28125 0.14625,-0.4725 0.49375,-0.4725 l 1.39375,0 0,0.2075 -1.335,0 c -0.25375,0 -0.37875,0.105 -0.37875,0.31625 0,0.24375 0.1875,0.4075 0.4725,0.4075 l 1.24125,0 0,0.2075 -2.48125,0"
         inkscape:connector-curvature="0" />
      <path
         id="path3945"
         style="fill:#ffffff;fill-opacity:1;fill-rule:nonzero;stroke:none"
         d="m 434.62551,408.07699 c 0.3925,0.0312 0.6525,0.2475 0.6525,0.595 0,0.38875 -0.27125,0.61875 -0.96625,0.61875 -0.63875,0 -0.9625,-0.23 -0.9625,-0.63625 0,-0.41 0.2825,-0.595 0.8975,-0.595 l 0.0762,0 0,1.00875 0.0863,0 c 0.53125,0 0.695,-0.1875 0.695,-0.39375 0,-0.21875 -0.15625,-0.35375 -0.47875,-0.38875 l 0,-0.20875 z m -0.4775,0.205 c -0.4575,0.007 -0.625,0.13625 -0.625,0.3925 0,0.2575 0.1675,0.38625 0.625,0.39375 l 0,-0.78625"
         inkscape:connector-curvature="0" />
      <path
         id="path3947"
         style="fill:#ffffff;fill-opacity:1;fill-rule:nonzero;stroke:none"
         d="m 433.64426,406.90074 0,0.26 -0.2775,0 0,-0.26 -0.17375,0 c -0.355,0 -0.465,-0.17125 -0.465,-0.4775 0,-0.0788 0.004,-0.14875 0.01,-0.20375 l 0.28875,0 0,0.10375 c 0,0.13875 0.0525,0.20125 0.1775,0.20125 l 0.1625,0 0,-0.305 0.2775,0 0,0.305 1.5925,0 0,0.37625 -1.5925,0"
         inkscape:connector-curvature="0" />
      <path
         id="path3949"
         style="fill:#ffffff;fill-opacity:1;fill-rule:nonzero;stroke:none"
         d="m 433.36676,406.04824 0,-0.375 0.2925,0 0,-0.006 c -0.20875,-0.0838 -0.34125,-0.2225 -0.34125,-0.435 0,-0.0412 0.008,-0.0662 0.0138,-0.09 l 0.3825,0 c -0.006,0.0275 -0.02,0.0937 -0.02,0.15625 0,0.17 0.075,0.375 0.42375,0.375 l 1.11875,0 0,0.375 -1.87,0"
         inkscape:connector-curvature="0" />
      <path
         id="path3951"
         style="fill:#ffffff;fill-opacity:1;fill-rule:nonzero;stroke:none"
         d="m 433.31801,404.33199 c 0,-0.545 0.40375,-0.69875 0.98375,-0.69875 0.58,0 0.98375,0.17875 0.98375,0.69875 0,0.5175 -0.40375,0.695 -0.98375,0.695 -0.58,0 -0.98375,-0.1525 -0.98375,-0.695 z m 1.68875,0 c 0,-0.27375 -0.22875,-0.3225 -0.705,-0.3225 -0.41375,0 -0.705,0.0488 -0.705,0.3225 0,0.27125 0.29125,0.32 0.705,0.32 0.47625,0 0.705,-0.0488 0.705,-0.32"
         inkscape:connector-curvature="0" />
      <path
         id="path3953"
         style="fill:#ffffff;fill-opacity:1;fill-rule:nonzero;stroke:none"
         d="m 433.36676,403.34574 0,-0.355 0.21875,0 0,-0.01 c -0.16625,-0.0937 -0.2675,-0.27125 -0.2675,-0.47875 0,-0.285 0.12875,-0.46625 0.5075,-0.46625 l 1.41125,0 0,0.375 -1.2825,0 c -0.24375,0 -0.3375,0.0725 -0.3375,0.26 0,0.15375 0.12125,0.3 0.365,0.3 l 1.255,0 0,0.375 -1.87,0"
         inkscape:connector-curvature="0" />
      <path
         id="path3955"
         style="fill:#ffffff;fill-opacity:1;fill-rule:nonzero;stroke:none"
         d="m 433.36676,401.84074 0,-0.25625 -0.5325,0 0,-0.37625 0.5325,0 0,-0.305 0.2775,0 0,0.305 1.11625,0 c 0.14625,0 0.1975,-0.0412 0.1975,-0.17 0,-0.055 -0.003,-0.10125 -0.01,-0.135 l 0.2775,0 c 0.0213,0.08 0.0312,0.18375 0.0312,0.3025 0,0.2525 -0.0688,0.37875 -0.45125,0.37875 l -1.16125,0 0,0.25625 -0.2775,0"
         inkscape:connector-curvature="0" />
      <path
         id="path3957"
         style="fill:#ffffff;fill-opacity:1;fill-rule:nonzero;stroke:none"
         d="m 433.10301,400.69074 -0.37506,0 0,-0.3751 0.37506,0 0,0.3751 z m -0.375,0 z m 2.50875,0 -1.87,0 0,-0.3751 1.87,0 0,0.3751 z"
         inkscape:connector-curvature="0" />
      <path
         id="path3959"
         style="fill:#ffffff;fill-opacity:1;fill-rule:nonzero;stroke:none"
         d="m 434.35051,399.61324 0.1075,0 c 0.25,0 0.57,-0.0312 0.57,-0.3125 0,-0.2675 -0.30625,-0.2975 -0.4175,-0.2975 l 0,-0.355 c 0.41375,0 0.675,0.25 0.675,0.65625 0,0.30625 -0.0913,0.685 -0.95625,0.685 -0.49,0 -1.01125,-0.105 -1.01125,-0.6925 0,-0.52125 0.31375,-0.65875 0.83375,-0.65875 l 0.19875,0 0,0.975 z m -0.2575,-0.60125 -0.10125,0 c -0.235,0 -0.41625,0.0775 -0.41625,0.28875 0,0.24 0.23625,0.3125 0.48,0.3125 l 0.0375,0 0,-0.60125"
         inkscape:connector-curvature="0" />
      <path
         id="path3961"
         style="fill:#ffffff;fill-opacity:1;fill-rule:nonzero;stroke:none"
         d="m 433.36676,398.32824 0,-0.375 0.2925,0 0,-0.008 c -0.20875,-0.0825 -0.34125,-0.2225 -0.34125,-0.43375 0,-0.0425 0.008,-0.0662 0.0138,-0.09 l 0.3825,0 c -0.006,0.0275 -0.02,0.0937 -0.02,0.15625 0,0.17 0.075,0.375 0.42375,0.375 l 1.11875,0 0,0.375 -1.87,0"
         inkscape:connector-curvature="0" />
      <path
         id="path3963"
         style="fill:#ffffff;fill-opacity:1;fill-rule:nonzero;stroke:none"
         d="m 433.91301,396.42824 -0.0487,0 c -0.15,0 -0.28875,0.0512 -0.28875,0.24625 0,0.14875 0.0688,0.2675 0.24375,0.2675 0.145,0 0.205,-0.0662 0.27375,-0.26375 l 0.0838,-0.24 c 0.0937,-0.27875 0.2425,-0.40625 0.53875,-0.40625 0.39875,0 0.57,0.29125 0.57,0.67 0,0.4725 -0.21875,0.615 -0.58125,0.615 l -0.0688,0 0,-0.33375 0.0588,0 c 0.215,0 0.33375,-0.0762 0.33375,-0.29125 0,-0.205 -0.105,-0.30625 -0.275,-0.30625 -0.13875,0 -0.22875,0.0738 -0.27375,0.205 l -0.1075,0.30625 c -0.0975,0.28125 -0.24,0.4 -0.53875,0.4 -0.35125,0 -0.515,-0.25375 -0.515,-0.64 0,-0.47625 0.27875,-0.58375 0.51125,-0.58375 l 0.0838,0 0,0.355"
         inkscape:connector-curvature="0" />
    </g>
  </g>
</svg>
