<?xml version="1.0" encoding="UTF-8" standalone="no"?>
<!-- Created with Inkscape (http://www.inkscape.org/) -->

<svg
   xmlns:dc="http://purl.org/dc/elements/1.1/"
   xmlns:cc="http://creativecommons.org/ns#"
   xmlns:rdf="http://www.w3.org/1999/02/22-rdf-syntax-ns#"
   xmlns:svg="http://www.w3.org/2000/svg"
   xmlns="http://www.w3.org/2000/svg"
   xmlns:sodipodi="http://sodipodi.sourceforge.net/DTD/sodipodi-0.dtd"
   xmlns:inkscape="http://www.inkscape.org/namespaces/inkscape"
   width="317.15866"
   height="91.105881"
   id="svg9491"
   version="1.1"
   inkscape:version="0.48.3.1 r9886"
   sodipodi:docname="irtes.svg">
  <defs
     id="defs9493" />
  <sodipodi:namedview
     id="base"
     pagecolor="#ffffff"
     bordercolor="#666666"
     borderopacity="1.0"
     inkscape:pageopacity="0.0"
     inkscape:pageshadow="2"
     inkscape:zoom="0.98994949"
     inkscape:cx="115.63945"
     inkscape:cy="-19.003622"
     inkscape:document-units="px"
     inkscape:current-layer="layer1"
     showgrid="false"
     inkscape:window-width="1440"
     inkscape:window-height="876"
     inkscape:window-x="0"
     inkscape:window-y="24"
     inkscape:window-maximized="1"
     fit-margin-top="0"
     fit-margin-left="0"
     fit-margin-right="0"
     fit-margin-bottom="0" />
  <metadata
     id="metadata9496">
    <rdf:RDF>
      <cc:Work
         rdf:about="">
        <dc:format>image/svg+xml</dc:format>
        <dc:type
           rdf:resource="http://purl.org/dc/dcmitype/StillImage" />
        <dc:title></dc:title>
      </cc:Work>
    </rdf:RDF>
  </metadata>
  <g
     inkscape:label="Calque 1"
     inkscape:groupmode="layer"
     id="layer1"
     transform="translate(-215.70638,-549.66639)">
    <path
       inkscape:connector-curvature="0"
       d="m 276.85388,594.59838 -9.87125,0 0,-44.93125 9.87125,0 0,44.93125 z"
       style="fill:#35567e;fill-opacity:1;fill-rule:nonzero;stroke:none"
       id="path3585" />
    <path
       inkscape:connector-curvature="0"
       d="m 215.70638,638.22338 0.8575,0 0,-8.0325 -0.8575,0 0,8.0325 z"
       style="fill:#35567e;fill-opacity:1;fill-rule:nonzero;stroke:none"
       id="path3587" />
    <g
       id="g3597"
       transform="matrix(1.25,0,0,-1.25,222.36275,638.22352)">
      <path
         inkscape:connector-curvature="0"
         d="m 0,0 0,2.735 c 0,0.785 -0.425,1.181 -1.092,1.181 -0.669,0 -1.101,-0.404 -1.101,-1.181 l 0,-2.735 -0.65,0 0,4.441 0.65,0 0,-0.487 c 0.315,0.36 0.749,0.54 1.245,0.54 0.478,0 0.867,-0.143 1.137,-0.414 0.316,-0.308 0.46,-0.723 0.46,-1.237 L 0.649,0 0,0 z"
         style="fill:#35567e;fill-opacity:1;fill-rule:nonzero;stroke:none"
         id="path3599" />
    </g>
    <g
       id="g3601"
       transform="matrix(1.25,0,0,-1.25,226.96726,638.29064)">
      <path
         inkscape:connector-curvature="0"
         d="m 0,0 c -0.75,0 -1.337,0.171 -1.823,0.641 l 0.432,0.433 C -1.039,0.703 -0.56,0.56 -0.01,0.56 c 0.732,0 1.182,0.261 1.182,0.785 0,0.387 -0.226,0.604 -0.74,0.649 l -0.731,0.063 c -0.865,0.073 -1.326,0.461 -1.326,1.191 0,0.813 0.686,1.3 1.634,1.3 0.632,0 1.199,-0.153 1.596,-0.478 L 1.181,3.646 C 0.866,3.89 0.459,3.997 0,3.997 c -0.649,0 -0.993,-0.279 -0.993,-0.73 0,-0.378 0.216,-0.605 0.775,-0.65 L 0.496,2.554 C 1.272,2.481 1.804,2.185 1.804,1.354 1.804,0.496 1.073,0 0,0"
         style="fill:#35567e;fill-opacity:1;fill-rule:nonzero;stroke:none"
         id="path3603" />
    </g>
    <g
       id="g3605"
       transform="matrix(1.25,0,0,-1.25,232.32626,638.22352)">
      <path
         inkscape:connector-curvature="0"
         d="m 0,0 c -0.759,0 -1.138,0.532 -1.138,1.191 l 0,2.725 -0.559,0 0,0.498 0.559,0 0,1.39 0.651,0 0,-1.39 0.947,0 0,-0.498 -0.947,0 0,-2.707 c 0,-0.405 0.189,-0.649 0.604,-0.649 L 0.46,0.56 0.46,0 0,0 z"
         style="fill:#35567e;fill-opacity:1;fill-rule:nonzero;stroke:none"
         id="path3607" />
    </g>
    <path
       inkscape:connector-curvature="0"
       d="m 234.58388,632.67213 0.81125,0 0,5.55125 -0.81125,0 0,-5.55125 z m -0.0462,-2.4925 0.9125,0 0,0.91375 -0.9125,0 0,-0.91375 z"
       style="fill:#35567e;fill-opacity:1;fill-rule:nonzero;stroke:none"
       id="path3609" />
    <g
       id="g3611"
       transform="matrix(1.25,0,0,-1.25,239.06326,638.22352)">
      <path
         inkscape:connector-curvature="0"
         d="m 0,0 c -0.759,0 -1.138,0.532 -1.138,1.191 l 0,2.725 -0.56,0 0,0.498 0.56,0 0,1.39 0.65,0 0,-1.39 0.947,0 0,-0.498 -0.947,0 0,-2.707 c 0,-0.405 0.189,-0.649 0.605,-0.649 l 0.342,0 L 0.459,0 0,0 z"
         style="fill:#35567e;fill-opacity:1;fill-rule:nonzero;stroke:none"
         id="path3613" />
    </g>
    <g
       id="g3615"
       transform="matrix(1.25,0,0,-1.25,244.82863,638.22352)">
      <path
         inkscape:connector-curvature="0"
         d="m 0,0 0,0.497 c -0.317,-0.361 -0.759,-0.551 -1.255,-0.551 -0.478,0 -0.876,0.144 -1.146,0.415 -0.317,0.307 -0.452,0.731 -0.452,1.245 l 0,2.835 0.65,0 0,-2.735 c 0,-0.784 0.415,-1.182 1.084,-1.182 0.667,0 1.109,0.406 1.109,1.182 l 0,2.735 0.65,0 L 0.64,0 0,0 z"
         style="fill:#35567e;fill-opacity:1;fill-rule:nonzero;stroke:none"
         id="path3617" />
    </g>
    <g
       id="g3619"
       transform="matrix(1.25,0,0,-1.25,249.28538,638.22352)">
      <path
         inkscape:connector-curvature="0"
         d="m 0,0 c -0.759,0 -1.138,0.532 -1.138,1.191 l 0,2.725 -0.559,0 0,0.498 0.559,0 0,1.39 0.651,0 0,-1.39 0.947,0 0,-0.498 -0.947,0 0,-2.707 c 0,-0.405 0.189,-0.649 0.604,-0.649 L 0.46,0.56 0.46,0 0,0 z"
         style="fill:#35567e;fill-opacity:1;fill-rule:nonzero;stroke:none"
         id="path3621" />
    </g>
    <g
       id="g3623"
       transform="matrix(1.25,0,0,-1.25,256.33738,633.32852)">
      <path
         inkscape:connector-curvature="0"
         d="m 0,0 c -0.966,0 -1.119,-0.829 -1.119,-1.695 0,-0.867 0.153,-1.697 1.119,-1.697 0.966,0 1.109,0.83 1.109,1.697 C 1.109,-0.829 0.966,0 0,0 m 1.119,-3.916 0,0.532 C 0.758,-3.854 0.343,-3.97 -0.145,-3.97 c -0.451,0 -0.848,0.154 -1.083,0.389 -0.451,0.45 -0.542,1.191 -0.542,1.886 0,0.694 0.091,1.434 0.542,1.885 0.235,0.235 0.632,0.388 1.083,0.388 0.488,0 0.894,-0.107 1.254,-0.567 l 0,2.499 0.651,0 0,-6.426 -0.641,0 z"
         style="fill:#35567e;fill-opacity:1;fill-rule:nonzero;stroke:none"
         id="path3625" />
    </g>
    <g
       id="g3627"
       transform="matrix(1.25,0,0,-1.25,263.90701,634.12802)">
      <path
         inkscape:connector-curvature="0"
         d="m 0,0 c -0.171,0.406 -0.568,0.667 -1.036,0.667 -0.47,0 -0.867,-0.261 -1.039,-0.667 -0.1,-0.244 -0.117,-0.379 -0.135,-0.74 l 2.346,0 C 0.118,-0.379 0.101,-0.244 0,0 m -2.21,-1.228 c 0,-0.974 0.46,-1.534 1.309,-1.534 0.514,0 0.811,0.154 1.164,0.506 L 0.705,-2.645 C 0.253,-3.096 -0.162,-3.33 -0.92,-3.33 c -1.173,0 -1.939,0.703 -1.939,2.274 0,1.435 0.694,2.274 1.823,2.274 1.145,0 1.822,-0.83 1.822,-2.147 l 0,-0.299 -2.996,0 z"
         style="fill:#35567e;fill-opacity:1;fill-rule:nonzero;stroke:none"
         id="path3629" />
    </g>
    <g
       id="g3631"
       transform="matrix(1.25,0,0,-1.25,272.70951,630.95789)">
      <path
         inkscape:connector-curvature="0"
         d="m 0,0 -1.715,0 0,-2.355 1.715,0 c 0.749,0 1.281,0.387 1.281,1.172 C 1.281,-0.397 0.749,0 0,0 m 1.29,-5.813 -1.462,2.853 -1.543,0 0,-2.853 -0.685,0 0,6.426 2.463,0 c 1.119,0 1.904,-0.676 1.904,-1.787 0,-0.938 -0.568,-1.552 -1.399,-1.723 l 1.526,-2.916 -0.804,0 z"
         style="fill:#35567e;fill-opacity:1;fill-rule:nonzero;stroke:none"
         id="path3633" />
    </g>
    <g
       id="g3635"
       transform="matrix(1.25,0,0,-1.25,280.3035,634.12802)">
      <path
         inkscape:connector-curvature="0"
         d="m 0,0 c -0.172,0.406 -0.568,0.667 -1.038,0.667 -0.47,0 -0.866,-0.261 -1.038,-0.667 -0.1,-0.244 -0.117,-0.379 -0.136,-0.74 l 2.347,0 C 0.117,-0.379 0.099,-0.244 0,0 m -2.212,-1.228 c 0,-0.974 0.461,-1.534 1.309,-1.534 0.514,0 0.812,0.154 1.164,0.506 L 0.703,-2.645 C 0.252,-3.096 -0.163,-3.33 -0.921,-3.33 c -1.174,0 -1.94,0.703 -1.94,2.274 0,1.435 0.694,2.274 1.823,2.274 1.146,0 1.823,-0.83 1.823,-2.147 l 0,-0.299 -2.997,0 z"
         style="fill:#35567e;fill-opacity:1;fill-rule:nonzero;stroke:none"
         id="path3637" />
    </g>
    <g
       id="g3639"
       transform="matrix(1.25,0,0,-1.25,285.23388,638.29064)">
      <path
         inkscape:connector-curvature="0"
         d="m 0,0 c -1.119,0 -1.967,0.758 -1.967,2.274 0,1.516 0.848,2.274 1.967,2.274 0.614,0 1.002,-0.162 1.463,-0.658 L 1.021,3.475 C 0.687,3.845 0.424,3.97 0,3.97 -0.433,3.97 -0.794,3.8 -1.028,3.466 -1.236,3.176 -1.317,2.834 -1.317,2.274 -1.317,1.715 -1.236,1.372 -1.028,1.083 -0.794,0.749 -0.433,0.578 0,0.578 c 0.424,0 0.687,0.135 1.021,0.505 L 1.463,0.658 C 1.002,0.163 0.614,0 0,0"
         style="fill:#35567e;fill-opacity:1;fill-rule:nonzero;stroke:none"
         id="path3641" />
    </g>
    <g
       id="g3643"
       transform="matrix(1.25,0,0,-1.25,292.22975,638.22352)">
      <path
         inkscape:connector-curvature="0"
         d="m 0,0 0,2.744 c 0,0.776 -0.415,1.172 -1.082,1.172 -0.669,0 -1.111,-0.404 -1.111,-1.172 l 0,-2.744 -0.65,0 0,6.426 0.65,0 0,-2.472 c 0.325,0.369 0.749,0.54 1.246,0.54 1.002,0 1.597,-0.64 1.597,-1.641 L 0.65,0 0,0 z"
         style="fill:#35567e;fill-opacity:1;fill-rule:nonzero;stroke:none"
         id="path3645" />
    </g>
    <g
       id="g3647"
       transform="matrix(1.25,0,0,-1.25,298.35651,634.12802)">
      <path
         inkscape:connector-curvature="0"
         d="m 0,0 c -0.171,0.406 -0.568,0.667 -1.038,0.667 -0.469,0 -0.865,-0.261 -1.037,-0.667 -0.1,-0.244 -0.117,-0.379 -0.136,-0.74 l 2.346,0 C 0.117,-0.379 0.1,-0.244 0,0 m -2.211,-1.228 c 0,-0.974 0.46,-1.534 1.31,-1.534 0.513,0 0.811,0.154 1.163,0.506 L 0.704,-2.645 C 0.253,-3.096 -0.162,-3.33 -0.921,-3.33 c -1.172,0 -1.939,0.703 -1.939,2.274 0,1.435 0.695,2.274 1.822,2.274 1.146,0 1.823,-0.83 1.823,-2.147 l 0,-0.299 -2.996,0 z"
         style="fill:#35567e;fill-opacity:1;fill-rule:nonzero;stroke:none"
         id="path3649" />
    </g>
    <g
       id="g3651"
       transform="matrix(1.25,0,0,-1.25,304.23538,633.73377)">
      <path
         inkscape:connector-curvature="0"
         d="m 0,0 c -0.243,0.244 -0.424,0.324 -0.767,0.324 -0.65,0 -1.065,-0.513 -1.065,-1.19 l 0,-2.726 -0.649,0 0,4.442 0.649,0 0,-0.542 c 0.244,0.369 0.731,0.594 1.246,0.594 0.424,0 0.748,-0.098 1.065,-0.414 L 0,0 z"
         style="fill:#35567e;fill-opacity:1;fill-rule:nonzero;stroke:none"
         id="path3653" />
    </g>
    <g
       id="g3655"
       transform="matrix(1.25,0,0,-1.25,307.72051,638.29064)">
      <path
         inkscape:connector-curvature="0"
         d="m 0,0 c -1.119,0 -1.967,0.758 -1.967,2.274 0,1.516 0.848,2.274 1.967,2.274 0.613,0 1.002,-0.162 1.462,-0.658 L 1.02,3.475 C 0.686,3.845 0.424,3.97 0,3.97 -0.434,3.97 -0.794,3.8 -1.028,3.466 -1.236,3.176 -1.317,2.834 -1.317,2.274 -1.317,1.715 -1.236,1.372 -1.028,1.083 -0.794,0.749 -0.434,0.578 0,0.578 c 0.424,0 0.686,0.135 1.02,0.505 L 1.462,0.658 C 1.002,0.163 0.613,0 0,0"
         style="fill:#35567e;fill-opacity:1;fill-rule:nonzero;stroke:none"
         id="path3657" />
    </g>
    <g
       id="g3659"
       transform="matrix(1.25,0,0,-1.25,314.71638,638.22352)">
      <path
         inkscape:connector-curvature="0"
         d="m 0,0 0,2.744 c 0,0.776 -0.416,1.172 -1.083,1.172 -0.668,0 -1.11,-0.404 -1.11,-1.172 l 0,-2.744 -0.651,0 0,6.426 0.651,0 0,-2.472 c 0.325,0.369 0.749,0.54 1.245,0.54 1.002,0 1.597,-0.64 1.597,-1.641 L 0.649,0 0,0 z"
         style="fill:#35567e;fill-opacity:1;fill-rule:nonzero;stroke:none"
         id="path3661" />
    </g>
    <g
       id="g3663"
       transform="matrix(1.25,0,0,-1.25,320.84301,634.12802)">
      <path
         inkscape:connector-curvature="0"
         d="M 0,0 C -0.171,0.406 -0.568,0.667 -1.037,0.667 -1.507,0.667 -1.904,0.406 -2.076,0 -2.175,-0.244 -2.193,-0.379 -2.211,-0.74 l 2.347,0 C 0.116,-0.379 0.099,-0.244 0,0 m -2.211,-1.228 c 0,-0.974 0.459,-1.534 1.309,-1.534 0.513,0 0.811,0.154 1.164,0.506 L 0.703,-2.645 C 0.252,-3.096 -0.163,-3.33 -0.92,-3.33 c -1.174,0 -1.94,0.703 -1.94,2.274 0,1.435 0.694,2.274 1.823,2.274 1.146,0 1.822,-0.83 1.822,-2.147 l 0,-0.299 -2.996,0 z"
         style="fill:#35567e;fill-opacity:1;fill-rule:nonzero;stroke:none"
         id="path3665" />
    </g>
    <g
       id="g3667"
       transform="matrix(1.25,0,0,-1.25,328.24538,638.29064)">
      <path
         inkscape:connector-curvature="0"
         d="m 0,0 c -0.749,0 -1.336,0.171 -1.823,0.641 l 0.432,0.433 C -1.038,0.703 -0.56,0.56 -0.01,0.56 c 0.732,0 1.183,0.261 1.183,0.785 0,0.387 -0.226,0.604 -0.74,0.649 l -0.731,0.063 c -0.866,0.073 -1.326,0.461 -1.326,1.191 0,0.813 0.686,1.3 1.634,1.3 0.631,0 1.199,-0.153 1.596,-0.478 L 1.182,3.646 C 0.867,3.89 0.46,3.997 0,3.997 c -0.649,0 -0.993,-0.279 -0.993,-0.73 0,-0.378 0.217,-0.605 0.776,-0.65 L 0.496,2.554 C 1.272,2.481 1.805,2.185 1.805,1.354 1.805,0.496 1.074,0 0,0"
         style="fill:#35567e;fill-opacity:1;fill-rule:nonzero;stroke:none"
         id="path3669" />
    </g>
    <g
       id="g3671"
       transform="matrix(1.25,0,0,-1.25,335.66975,638.22352)">
      <path
         inkscape:connector-curvature="0"
         d="m 0,0 0,0.497 c -0.315,-0.361 -0.758,-0.551 -1.254,-0.551 -0.479,0 -0.876,0.144 -1.146,0.415 -0.317,0.307 -0.453,0.731 -0.453,1.245 l 0,2.835 0.651,0 0,-2.735 c 0,-0.784 0.415,-1.182 1.083,-1.182 0.668,0 1.11,0.406 1.11,1.182 l 0,2.735 0.651,0 L 0.642,0 0,0 z"
         style="fill:#35567e;fill-opacity:1;fill-rule:nonzero;stroke:none"
         id="path3673" />
    </g>
    <g
       id="g3675"
       transform="matrix(1.25,0,0,-1.25,341.67185,633.73377)">
      <path
         inkscape:connector-curvature="0"
         d="m 0,0 c -0.242,0.244 -0.424,0.324 -0.767,0.324 -0.649,0 -1.064,-0.513 -1.064,-1.19 l 0,-2.726 -0.65,0 0,4.442 0.65,0 0,-0.542 c 0.243,0.369 0.73,0.594 1.245,0.594 0.424,0 0.749,-0.098 1.065,-0.414 L 0,0 z"
         style="fill:#35567e;fill-opacity:1;fill-rule:nonzero;stroke:none"
         id="path3677" />
    </g>
    <g
       id="g3679"
       transform="matrix(1.25,0,0,-1.25,347.65215,638.22352)">
      <path
         inkscape:connector-curvature="0"
         d="m 0,0 c -0.775,0 -1.128,0.506 -1.128,1.182 l 0,5.244 0.65,0 0,-5.217 c 0,-0.432 0.145,-0.649 0.596,-0.649 L 0.47,0.56 0.47,0 0,0 z"
         style="fill:#35567e;fill-opacity:1;fill-rule:nonzero;stroke:none"
         id="path3681" />
    </g>
    <g
       id="g3683"
       transform="matrix(1.25,0,0,-1.25,352.67285,634.12802)">
      <path
         inkscape:connector-curvature="0"
         d="M 0,0 C -0.172,0.406 -0.569,0.667 -1.039,0.667 -1.508,0.667 -1.904,0.406 -2.075,0 -2.176,-0.244 -2.193,-0.379 -2.212,-0.74 l 2.347,0 C 0.117,-0.379 0.099,-0.244 0,0 m -2.212,-1.228 c 0,-0.974 0.461,-1.534 1.309,-1.534 0.514,0 0.813,0.154 1.165,0.506 L 0.704,-2.645 C 0.252,-3.096 -0.162,-3.33 -0.921,-3.33 c -1.173,0 -1.94,0.703 -1.94,2.274 0,1.435 0.695,2.274 1.822,2.274 1.146,0 1.823,-0.83 1.823,-2.147 l 0,-0.299 -2.996,0 z"
         style="fill:#35567e;fill-opacity:1;fill-rule:nonzero;stroke:none"
         id="path3685" />
    </g>
    <g
       id="g3687"
       transform="matrix(1.25,0,0,-1.25,357.19805,638.29064)">
      <path
         inkscape:connector-curvature="0"
         d="m 0,0 c -0.749,0 -1.336,0.171 -1.823,0.641 l 0.432,0.433 c 0.353,-0.371 0.83,-0.514 1.381,-0.514 0.732,0 1.183,0.261 1.183,0.785 0,0.387 -0.226,0.604 -0.74,0.649 l -0.732,0.063 c -0.865,0.073 -1.326,0.461 -1.326,1.191 0,0.813 0.687,1.3 1.633,1.3 0.632,0 1.201,-0.153 1.598,-0.478 L 1.182,3.646 C 0.866,3.89 0.46,3.997 0,3.997 c -0.649,0 -0.993,-0.279 -0.993,-0.73 0,-0.378 0.217,-0.605 0.776,-0.65 L 0.495,2.554 C 1.271,2.481 1.804,2.185 1.804,1.354 1.804,0.496 1.073,0 0,0"
         style="fill:#35567e;fill-opacity:1;fill-rule:nonzero;stroke:none"
         id="path3689" />
    </g>
    <g
       id="g3691"
       transform="matrix(1.25,0,0,-1.25,366.49485,630.95789)">
      <path
         inkscape:connector-curvature="0"
         d="m 0,0 0,-5.813 -0.687,0 0,5.813 -1.858,0 0,0.613 4.403,0 L 1.858,0 0,0 z"
         style="fill:#35567e;fill-opacity:1;fill-rule:nonzero;stroke:none"
         id="path3693" />
    </g>
    <g
       id="g3695"
       transform="matrix(1.25,0,0,-1.25,372.73265,633.73377)">
      <path
         inkscape:connector-curvature="0"
         d="m 0,0 c -0.244,0.244 -0.424,0.324 -0.768,0.324 -0.649,0 -1.065,-0.513 -1.065,-1.19 l 0,-2.726 -0.649,0 0,4.442 0.649,0 0,-0.542 c 0.244,0.369 0.731,0.594 1.246,0.594 0.425,0 0.749,-0.098 1.065,-0.414 L 0,0 z"
         style="fill:#35567e;fill-opacity:1;fill-rule:nonzero;stroke:none"
         id="path3697" />
    </g>
    <g
       id="g3699"
       transform="matrix(1.25,0,0,-1.25,377.48255,635.66252)">
      <path
         inkscape:connector-curvature="0"
         d="m 0,0 -1.245,0 c -0.668,0 -0.992,-0.271 -0.992,-0.785 0,-0.514 0.315,-0.758 1.019,-0.758 0.379,0 0.712,0.026 0.992,0.298 C -0.072,-1.101 0,-0.848 0,-0.478 L 0,0 z m 0,-2.049 0,0.425 c -0.36,-0.362 -0.686,-0.479 -1.281,-0.479 -0.614,0 -0.976,0.117 -1.255,0.407 -0.216,0.217 -0.334,0.55 -0.334,0.902 0,0.775 0.541,1.281 1.535,1.281 l 1.335,0 0,0.424 c 0,0.651 -0.324,0.976 -1.137,0.976 -0.569,0 -0.857,-0.136 -1.12,-0.506 l -0.441,0.406 c 0.396,0.515 0.848,0.658 1.57,0.658 1.191,0 1.778,-0.513 1.778,-1.479 l 0,-3.015 -0.65,0 z"
         style="fill:#35567e;fill-opacity:1;fill-rule:nonzero;stroke:none"
         id="path3701" />
    </g>
    <g
       id="g3703"
       transform="matrix(1.25,0,0,-1.25,383.89115,638.22352)">
      <path
         inkscape:connector-curvature="0"
         d="m 0,0 0,2.735 c 0,0.785 -0.424,1.181 -1.093,1.181 -0.667,0 -1.099,-0.404 -1.099,-1.181 l 0,-2.735 -0.651,0 0,4.441 0.651,0 0,-0.487 c 0.315,0.36 0.748,0.54 1.245,0.54 0.477,0 0.866,-0.143 1.136,-0.414 C 0.506,3.772 0.65,3.357 0.65,2.843 L 0.65,0 0,0 z"
         style="fill:#35567e;fill-opacity:1;fill-rule:nonzero;stroke:none"
         id="path3705" />
    </g>
    <g
       id="g3707"
       transform="matrix(1.25,0,0,-1.25,388.49565,638.29064)">
      <path
         inkscape:connector-curvature="0"
         d="m 0,0 c -0.749,0 -1.335,0.171 -1.822,0.641 l 0.432,0.433 c 0.352,-0.371 0.83,-0.514 1.381,-0.514 0.732,0 1.182,0.261 1.182,0.785 0,0.387 -0.226,0.604 -0.739,0.649 l -0.733,0.063 c -0.866,0.073 -1.326,0.461 -1.326,1.191 0,0.813 0.687,1.3 1.634,1.3 0.632,0 1.201,-0.153 1.597,-0.478 L 1.183,3.646 C 0.865,3.89 0.461,3.997 0,3.997 c -0.65,0 -0.993,-0.279 -0.993,-0.73 0,-0.378 0.217,-0.605 0.776,-0.65 L 0.495,2.554 C 1.271,2.481 1.805,2.185 1.805,1.354 1.805,0.496 1.074,0 0,0"
         style="fill:#35567e;fill-opacity:1;fill-rule:nonzero;stroke:none"
         id="path3709" />
    </g>
    <g
       id="g3711"
       transform="matrix(1.25,0,0,-1.25,394.62235,633.32852)">
      <path
         inkscape:connector-curvature="0"
         d="m 0,0 c -0.966,0 -1.119,-0.829 -1.119,-1.695 0,-0.867 0.153,-1.697 1.119,-1.697 0.966,0 1.11,0.83 1.11,1.697 C 1.11,-0.829 0.966,0 0,0 M 1.219,-3.581 C 0.983,-3.816 0.586,-3.97 0.135,-3.97 c -0.488,0 -0.893,0.116 -1.254,0.578 l 0,-2.509 -0.651,0 0,6.426 0.651,0 0,-0.525 c 0.361,0.471 0.766,0.578 1.254,0.578 0.451,0 0.848,-0.153 1.084,-0.388 C 1.67,-0.261 1.76,-1.001 1.76,-1.695 1.76,-2.39 1.67,-3.131 1.219,-3.581"
         style="fill:#35567e;fill-opacity:1;fill-rule:nonzero;stroke:none"
         id="path3713" />
    </g>
    <g
       id="g3715"
       transform="matrix(1.25,0,0,-1.25,401.61705,633.73377)">
      <path
         inkscape:connector-curvature="0"
         d="m 0,0 c -0.207,0.208 -0.495,0.324 -0.812,0.324 -0.315,0 -0.594,-0.116 -0.802,-0.324 -0.325,-0.324 -0.362,-0.875 -0.362,-1.371 0,-0.497 0.037,-1.047 0.362,-1.371 0.208,-0.209 0.487,-0.325 0.802,-0.325 0.317,0 0.605,0.116 0.812,0.325 0.325,0.324 0.353,0.874 0.353,1.371 C 0.353,-0.875 0.325,-0.324 0,0 m 0.461,-3.14 c -0.307,-0.307 -0.732,-0.506 -1.273,-0.506 -0.542,0 -0.965,0.199 -1.272,0.506 -0.451,0.46 -0.541,1.083 -0.541,1.769 0,0.685 0.09,1.308 0.541,1.768 0.307,0.307 0.73,0.505 1.272,0.505 0.541,0 0.966,-0.198 1.273,-0.505 0.451,-0.46 0.541,-1.083 0.541,-1.768 0,-0.686 -0.09,-1.309 -0.541,-1.769"
         style="fill:#35567e;fill-opacity:1;fill-rule:nonzero;stroke:none"
         id="path3717" />
    </g>
    <g
       id="g3719"
       transform="matrix(1.25,0,0,-1.25,407.77915,633.73377)">
      <path
         inkscape:connector-curvature="0"
         d="m 0,0 c -0.243,0.244 -0.424,0.324 -0.768,0.324 -0.649,0 -1.064,-0.513 -1.064,-1.19 l 0,-2.726 -0.65,0 0,4.442 0.65,0 0,-0.542 c 0.243,0.369 0.731,0.594 1.246,0.594 0.423,0 0.748,-0.098 1.065,-0.414 L 0,0 z"
         style="fill:#35567e;fill-opacity:1;fill-rule:nonzero;stroke:none"
         id="path3721" />
    </g>
    <g
       id="g3723"
       transform="matrix(1.25,0,0,-1.25,411.05175,638.22352)">
      <path
         inkscape:connector-curvature="0"
         d="m 0,0 c -0.759,0 -1.138,0.532 -1.138,1.191 l 0,2.725 -0.559,0 0,0.498 0.559,0 0,1.39 0.65,0 0,-1.39 0.948,0 0,-0.498 -0.948,0 0,-2.707 c 0,-0.405 0.189,-0.649 0.606,-0.649 L 0.46,0.56 0.46,0 0,0 z"
         style="fill:#35567e;fill-opacity:1;fill-rule:nonzero;stroke:none"
         id="path3725" />
    </g>
    <g
       id="g3727"
       transform="matrix(1.25,0,0,-1.25,415.05685,638.29064)">
      <path
         inkscape:connector-curvature="0"
         d="m 0,0 c -0.748,0 -1.336,0.171 -1.822,0.641 l 0.431,0.433 C -1.038,0.703 -0.56,0.56 -0.01,0.56 c 0.733,0 1.183,0.261 1.183,0.785 0,0.387 -0.226,0.604 -0.74,0.649 l -0.731,0.063 c -0.866,0.073 -1.327,0.461 -1.327,1.191 0,0.813 0.687,1.3 1.633,1.3 0.633,0 1.201,-0.153 1.598,-0.478 L 1.182,3.646 C 0.866,3.89 0.46,3.997 0,3.997 c -0.65,0 -0.993,-0.279 -0.993,-0.73 0,-0.378 0.218,-0.605 0.776,-0.65 L 0.496,2.554 C 1.271,2.481 1.805,2.185 1.805,1.354 1.805,0.496 1.074,0 0,0"
         style="fill:#35567e;fill-opacity:1;fill-rule:nonzero;stroke:none"
         id="path3729" />
    </g>
    <g
       id="g3731"
       transform="matrix(1.25,0,0,-1.25,418.95105,639.84827)">
      <path
         inkscape:connector-curvature="0"
         d="m 0,0 0,2.095 0.793,0 0,-1.382 L 0,0 z"
         style="fill:#35567e;fill-opacity:1;fill-rule:nonzero;stroke:none"
         id="path3733" />
    </g>
    <g
       id="g3735"
       transform="matrix(1.25,0,0,-1.25,426.28375,638.22352)">
      <path
         inkscape:connector-curvature="0"
         d="m 0,0 c -0.775,0 -1.128,0.506 -1.128,1.182 l 0,5.244 0.65,0 0,-5.217 c 0,-0.432 0.145,-0.649 0.595,-0.649 l 0.352,0 L 0.469,0 0,0 z"
         style="fill:#35567e;fill-opacity:1;fill-rule:nonzero;stroke:none"
         id="path3737" />
    </g>
    <g
       id="g3739"
       transform="matrix(1.25,0,0,-1.25,427.61555,632.02964)">
      <path
         inkscape:connector-curvature="0"
         d="m 0,0 0,1.471 0.785,0 0,-0.758 L 0,0 z"
         style="fill:#35567e;fill-opacity:1;fill-rule:nonzero;stroke:none"
         id="path3741" />
    </g>
    <g
       id="g3743"
       transform="matrix(1.25,0,0,-1.25,433.37965,629.41252)">
      <path
         inkscape:connector-curvature="0"
         d="m 0,0 -0.595,0 0.794,1.381 0.777,0 L 0,0 z m -2.049,-7.049 0,6.426 3.99,0 0,-0.613 -3.303,0 0,-2.266 2.815,0 0,-0.613 -2.815,0 0,-2.32 3.303,0 0,-0.614 -3.99,0 z"
         style="fill:#35567e;fill-opacity:1;fill-rule:nonzero;stroke:none"
         id="path3745" />
    </g>
    <g
       id="g3747"
       transform="matrix(1.25,0,0,-1.25,441.06405,638.22352)">
      <path
         inkscape:connector-curvature="0"
         d="m 0,0 0,2.735 c 0,0.785 -0.425,1.181 -1.092,1.181 -0.668,0 -1.1,-0.404 -1.1,-1.181 l 0,-2.735 -0.651,0 0,4.441 0.651,0 0,-0.487 c 0.315,0.36 0.749,0.54 1.245,0.54 0.477,0 0.866,-0.143 1.136,-0.414 0.316,-0.308 0.46,-0.723 0.46,-1.237 L 0.649,0 0,0 z"
         style="fill:#35567e;fill-opacity:1;fill-rule:nonzero;stroke:none"
         id="path3749" />
    </g>
    <g
       id="g3751"
       transform="matrix(1.25,0,0,-1.25,447.19185,634.12802)">
      <path
         inkscape:connector-curvature="0"
         d="m 0,0 c -0.173,0.406 -0.569,0.667 -1.038,0.667 -0.47,0 -0.866,-0.261 -1.038,-0.667 -0.1,-0.244 -0.117,-0.379 -0.135,-0.74 l 2.346,0 C 0.117,-0.379 0.099,-0.244 0,0 m -2.211,-1.228 c 0,-0.974 0.46,-1.534 1.309,-1.534 0.514,0 0.811,0.154 1.164,0.506 L 0.704,-2.645 C 0.252,-3.096 -0.163,-3.33 -0.922,-3.33 c -1.172,0 -1.939,0.703 -1.939,2.274 0,1.435 0.695,2.274 1.823,2.274 1.145,0 1.823,-0.83 1.823,-2.147 l 0,-0.299 -2.996,0 z"
         style="fill:#35567e;fill-opacity:1;fill-rule:nonzero;stroke:none"
         id="path3753" />
    </g>
    <g
       id="g3755"
       transform="matrix(1.25,0,0,-1.25,453.06965,633.73377)">
      <path
         inkscape:connector-curvature="0"
         d="m 0,0 c -0.243,0.244 -0.424,0.324 -0.768,0.324 -0.648,0 -1.063,-0.513 -1.063,-1.19 l 0,-2.726 -0.65,0 0,4.442 0.65,0 0,-0.542 c 0.243,0.369 0.73,0.594 1.245,0.594 0.424,0 0.749,-0.098 1.065,-0.414 L 0,0 z"
         style="fill:#35567e;fill-opacity:1;fill-rule:nonzero;stroke:none"
         id="path3757" />
    </g>
    <g
       id="g3759"
       transform="matrix(1.25,0,0,-1.25,456.30685,633.32852)">
      <path
         inkscape:connector-curvature="0"
         d="m 0,0 c -0.966,0 -1.111,-0.829 -1.111,-1.659 0,-0.831 0.145,-1.661 1.111,-1.661 0.965,0 1.102,0.83 1.102,1.661 C 1.102,-0.829 0.965,0 0,0 m -0.1,-5.955 c -0.667,0 -1.038,0.171 -1.506,0.596 l 0.423,0.415 c 0.327,-0.289 0.551,-0.443 1.066,-0.443 0.856,0 1.219,0.605 1.219,1.364 l 0,0.694 C 0.739,-3.79 0.334,-3.906 -0.145,-3.906 c -0.452,0 -0.839,0.162 -1.074,0.397 -0.442,0.443 -0.542,1.128 -0.542,1.85 0,0.721 0.1,1.407 0.542,1.849 0.235,0.235 0.632,0.388 1.084,0.388 C 0.352,0.578 0.749,0.471 1.11,0 l 0,0.525 0.641,0 0,-4.576 c 0,-1.101 -0.687,-1.904 -1.851,-1.904"
         style="fill:#35567e;fill-opacity:1;fill-rule:nonzero;stroke:none"
         id="path3761" />
    </g>
    <path
       inkscape:connector-curvature="0"
       d="m 460.59515,632.67213 0.8112,0 0,5.55125 -0.8112,0 0,-5.55125 z m -0.045,-2.4925 0.9125,0 0,0.91375 -0.9125,0 0,-0.91375 z"
       style="fill:#35567e;fill-opacity:1;fill-rule:nonzero;stroke:none"
       id="path3763" />
    <g
       id="g3765"
       transform="matrix(1.25,0,0,-1.25,466.78915,634.12802)">
      <path
         inkscape:connector-curvature="0"
         d="M 0,0 C -0.172,0.406 -0.569,0.667 -1.038,0.667 -1.508,0.667 -1.905,0.406 -2.076,0 -2.175,-0.244 -2.193,-0.379 -2.212,-0.74 l 2.347,0 C 0.117,-0.379 0.099,-0.244 0,0 m -2.212,-1.228 c 0,-0.974 0.461,-1.534 1.31,-1.534 0.513,0 0.812,0.154 1.164,0.506 L 0.704,-2.645 C 0.252,-3.096 -0.162,-3.33 -0.921,-3.33 c -1.173,0 -1.94,0.703 -1.94,2.274 0,1.435 0.695,2.274 1.823,2.274 1.145,0 1.823,-0.83 1.823,-2.147 l 0,-0.299 -2.997,0 z"
         style="fill:#35567e;fill-opacity:1;fill-rule:nonzero;stroke:none"
         id="path3767" />
    </g>
    <g
       id="g3769"
       transform="matrix(1.25,0,0,-1.25,475.71365,634.12802)">
      <path
         inkscape:connector-curvature="0"
         d="M 0,0 C -0.171,0.406 -0.567,0.667 -1.038,0.667 -1.507,0.667 -1.903,0.406 -2.075,0 -2.174,-0.244 -2.192,-0.379 -2.21,-0.74 l 2.346,0 C 0.117,-0.379 0.1,-0.244 0,0 m -2.21,-1.228 c 0,-0.974 0.46,-1.534 1.308,-1.534 0.514,0 0.812,0.154 1.164,0.506 L 0.704,-2.645 C 0.253,-3.096 -0.162,-3.33 -0.92,-3.33 c -1.173,0 -1.94,0.703 -1.94,2.274 0,1.435 0.695,2.274 1.822,2.274 1.146,0 1.823,-0.83 1.823,-2.147 l 0,-0.299 -2.995,0 z"
         style="fill:#35567e;fill-opacity:1;fill-rule:nonzero;stroke:none"
         id="path3771" />
    </g>
    <g
       id="g3773"
       transform="matrix(1.25,0,0,-1.25,480.04835,638.22352)">
      <path
         inkscape:connector-curvature="0"
         d="m 0,0 c -0.759,0 -1.138,0.532 -1.138,1.191 l 0,2.725 -0.559,0 0,0.498 0.559,0 0,1.39 0.65,0 0,-1.39 0.948,0 0,-0.498 -0.948,0 0,-2.707 c 0,-0.405 0.189,-0.649 0.605,-0.649 L 0.46,0.56 0.46,0 0,0 z"
         style="fill:#35567e;fill-opacity:1;fill-rule:nonzero;stroke:none"
         id="path3775" />
    </g>
    <g
       id="g3777"
       transform="matrix(1.25,0,0,-1.25,486.57065,638.22352)">
      <path
         inkscape:connector-curvature="0"
         d="m 0,0 c -0.777,0 -1.129,0.506 -1.129,1.182 l 0,5.244 0.65,0 0,-5.217 c 0,-0.432 0.144,-0.649 0.596,-0.649 l 0.351,0 L 0.468,0 0,0 z"
         style="fill:#35567e;fill-opacity:1;fill-rule:nonzero;stroke:none"
         id="path3779" />
    </g>
    <g
       id="g3781"
       transform="matrix(1.25,0,0,-1.25,491.74875,635.66252)">
      <path
         inkscape:connector-curvature="0"
         d="m 0,0 -1.246,0 c -0.667,0 -0.992,-0.271 -0.992,-0.785 0,-0.514 0.315,-0.758 1.019,-0.758 0.379,0 0.712,0.026 0.992,0.298 C -0.072,-1.101 0,-0.848 0,-0.478 L 0,0 z m 0,-2.049 0,0.425 c -0.361,-0.362 -0.687,-0.479 -1.282,-0.479 -0.614,0 -0.975,0.117 -1.255,0.407 -0.216,0.217 -0.333,0.55 -0.333,0.902 0,0.775 0.54,1.281 1.534,1.281 l 1.336,0 0,0.424 c 0,0.651 -0.325,0.976 -1.138,0.976 -0.568,0 -0.857,-0.136 -1.119,-0.506 l -0.442,0.406 c 0.396,0.515 0.848,0.658 1.57,0.658 1.192,0 1.778,-0.513 1.778,-1.479 l 0,-3.015 -0.649,0 z"
         style="fill:#35567e;fill-opacity:1;fill-rule:nonzero;stroke:none"
         id="path3783" />
    </g>
    <g
       id="g3785"
       transform="matrix(1.25,0,0,-1.25,499.69185,638.29064)">
      <path
         inkscape:connector-curvature="0"
         d="m 0,0 c -0.966,0 -1.598,0.244 -2.202,0.849 l 0.47,0.468 c 0.532,-0.532 1.028,-0.704 1.75,-0.704 0.938,0 1.516,0.443 1.516,1.192 0,0.334 -0.099,0.623 -0.306,0.803 -0.207,0.181 -0.371,0.235 -0.84,0.307 l -0.749,0.117 c -0.506,0.081 -0.903,0.243 -1.183,0.489 -0.325,0.287 -0.487,0.684 -0.487,1.199 0,1.092 0.786,1.814 2.057,1.814 0.822,0 1.364,-0.208 1.913,-0.704 L 1.497,5.388 C 1.101,5.748 0.676,5.938 0,5.938 c -0.857,0 -1.354,-0.478 -1.354,-1.191 0,-0.315 0.09,-0.569 0.289,-0.739 0.198,-0.173 0.532,-0.299 0.867,-0.353 L 0.505,3.547 C 1.11,3.456 1.407,3.33 1.679,3.096 2.03,2.798 2.22,2.355 2.22,1.823 2.22,0.694 1.335,0 0,0"
         style="fill:#35567e;fill-opacity:1;fill-rule:nonzero;stroke:none"
         id="path3787" />
    </g>
    <g
       id="g3789"
       transform="matrix(1.25,0,0,-1.25,507.17235,633.73377)">
      <path
         inkscape:connector-curvature="0"
         d="M 0,0 C -0.207,0.208 -0.496,0.324 -0.812,0.324 -1.128,0.324 -1.408,0.208 -1.615,0 -1.94,-0.324 -1.977,-0.875 -1.977,-1.371 c 0,-0.497 0.037,-1.047 0.362,-1.371 0.207,-0.209 0.487,-0.325 0.803,-0.325 0.316,0 0.605,0.116 0.812,0.325 0.325,0.324 0.353,0.874 0.353,1.371 C 0.353,-0.875 0.325,-0.324 0,0 m 0.46,-3.14 c -0.307,-0.307 -0.73,-0.506 -1.272,-0.506 -0.542,0 -0.966,0.199 -1.273,0.506 -0.45,0.46 -0.541,1.083 -0.541,1.769 0,0.685 0.091,1.308 0.541,1.768 0.307,0.307 0.731,0.505 1.273,0.505 0.542,0 0.965,-0.198 1.272,-0.505 0.452,-0.46 0.542,-1.083 0.542,-1.768 0,-0.686 -0.09,-1.309 -0.542,-1.769"
         style="fill:#35567e;fill-opacity:1;fill-rule:nonzero;stroke:none"
         id="path3791" />
    </g>
    <g
       id="g3793"
       transform="matrix(1.25,0,0,-1.25,512.38605,638.29064)">
      <path
         inkscape:connector-curvature="0"
         d="m 0,0 c -1.119,0 -1.968,0.758 -1.968,2.274 0,1.516 0.849,2.274 1.968,2.274 0.613,0 1.001,-0.162 1.462,-0.658 L 1.02,3.475 C 0.687,3.845 0.424,3.97 0,3.97 -0.434,3.97 -0.795,3.8 -1.029,3.466 -1.236,3.176 -1.318,2.834 -1.318,2.274 -1.318,1.715 -1.236,1.372 -1.029,1.083 -0.795,0.749 -0.434,0.578 0,0.578 c 0.424,0 0.687,0.135 1.02,0.505 L 1.462,0.658 C 1.001,0.163 0.613,0 0,0"
         style="fill:#35567e;fill-opacity:1;fill-rule:nonzero;stroke:none"
         id="path3795" />
    </g>
    <path
       inkscape:connector-curvature="0"
       d="m 515.82885,632.67213 0.8113,0 0,5.55125 -0.8113,0 0,-5.55125 z m -0.046,-2.4925 0.9137,0 0,0.91375 -0.9137,0 0,-0.91375 z"
       style="fill:#35567e;fill-opacity:1;fill-rule:nonzero;stroke:none"
       id="path3797" />
    <g
       id="g3799"
       transform="matrix(1.25,0,0,-1.25,520.95055,631.52189)">
      <path
         inkscape:connector-curvature="0"
         d="m 0,0 -0.597,0 0.794,1.381 0.778,0 L 0,0 z m 0.857,-2.085 c -0.171,0.406 -0.569,0.667 -1.038,0.667 -0.469,0 -0.866,-0.261 -1.038,-0.667 -0.099,-0.244 -0.117,-0.379 -0.135,-0.74 l 2.346,0 c -0.017,0.361 -0.035,0.496 -0.135,0.74 m -2.211,-1.228 c 0,-0.974 0.46,-1.534 1.309,-1.534 0.515,0 0.812,0.154 1.164,0.506 l 0.442,-0.388 c -0.452,-0.452 -0.867,-0.686 -1.624,-0.686 -1.173,0 -1.94,0.703 -1.94,2.274 0,1.435 0.694,2.274 1.822,2.274 1.147,0 1.824,-0.83 1.824,-2.147 l 0,-0.299 -2.997,0 z"
         style="fill:#35567e;fill-opacity:1;fill-rule:nonzero;stroke:none"
         id="path3801" />
    </g>
    <g
       id="g3803"
       transform="matrix(1.25,0,0,-1.25,526.35579,638.22352)">
      <path
         inkscape:connector-curvature="0"
         d="m 0,0 c -0.759,0 -1.138,0.532 -1.138,1.191 l 0,2.725 -0.559,0 0,0.498 0.559,0 0,1.39 0.65,0 0,-1.39 0.948,0 0,-0.498 -0.948,0 0,-2.707 c 0,-0.405 0.189,-0.649 0.605,-0.649 L 0.46,0.56 0.46,0 0,0 z"
         style="fill:#35567e;fill-opacity:1;fill-rule:nonzero;stroke:none"
         id="path3805" />
    </g>
    <g
       id="g3807"
       transform="matrix(1.25,0,0,-1.25,530.81129,631.52189)">
      <path
         inkscape:connector-curvature="0"
         d="m 0,0 -0.596,0 0.795,1.381 0.776,0 L 0,0 z m 0.857,-2.085 c -0.171,0.406 -0.567,0.667 -1.038,0.667 -0.468,0 -0.865,-0.261 -1.038,-0.667 -0.098,-0.244 -0.117,-0.379 -0.135,-0.74 l 2.347,0 c -0.018,0.361 -0.036,0.496 -0.136,0.74 m -2.211,-1.228 c 0,-0.974 0.46,-1.534 1.309,-1.534 0.515,0 0.813,0.154 1.164,0.506 L 1.562,-4.729 C 1.11,-5.181 0.695,-5.415 -0.063,-5.415 c -1.173,0 -1.94,0.703 -1.94,2.274 0,1.435 0.694,2.274 1.822,2.274 1.147,0 1.824,-0.83 1.824,-2.147 l 0,-0.299 -2.997,0 z"
         style="fill:#35567e;fill-opacity:1;fill-rule:nonzero;stroke:none"
         id="path3809" />
    </g>
    <path
       inkscape:connector-curvature="0"
       d="m 302.53138,549.66713 -9.12625,0 0,44.93125 9.12625,0 0,-44.93125 z"
       style="fill:#a80977;fill-opacity:1;fill-rule:nonzero;stroke:none"
       id="path3811" />
    <g
       id="g3813"
       transform="matrix(1.25,0,0,-1.25,323.29788,575.83039)">
      <path
         inkscape:connector-curvature="0"
         d="m 0,0 c 2.348,0.505 4.145,1.629 5.392,3.374 1.247,1.744 1.871,3.993 1.871,6.748 0,3.717 -1.012,6.447 -3.034,8.191 -2.021,1.745 -5.199,2.618 -9.536,2.618 l -7.714,0 0,-6.407 5.929,0 c 2.56,0 4.317,-0.339 5.271,-1.015 0.953,-0.676 1.429,-1.838 1.429,-3.484 0,-1.663 -0.489,-2.837 -1.466,-3.522 C -2.837,5.819 -4.581,5.477 -7.092,5.477 l -5.929,0 0,-6.358 5.563,0 7.923,-14.133 8.509,0 L 0,0 z"
         style="fill:#a80977;fill-opacity:1;fill-rule:nonzero;stroke:none"
         id="path3815" />
    </g>
    <path
       inkscape:connector-curvature="0"
       d="m 381.72265,549.72963 -38.88,0 0,7.8 38.88,0 0,-7.8 z"
       style="fill:#35567e;fill-opacity:1;fill-rule:nonzero;stroke:none"
       id="path3817" />
    <path
       inkscape:connector-curvature="0"
       d="m 357.36135,594.59838 9.7813,0 0,-32.97375 -9.7813,0 0,32.97375 z"
       style="fill:#35567e;fill-opacity:1;fill-rule:nonzero;stroke:none"
       id="path3819" />
    <g
       id="g3821"
       transform="matrix(1.25,0,0,-1.25,260.14601,616.81852)">
      <path
         inkscape:connector-curvature="0"
         d="m 0,0 c -1.344,0 -2.396,0.308 -3.271,1.15 l 0.778,0.777 c 0.631,-0.664 1.489,-0.923 2.476,-0.923 1.312,0 2.121,0.47 2.121,1.408 0,0.696 -0.405,1.085 -1.328,1.166 l -1.311,0.113 c -1.554,0.13 -2.379,0.826 -2.379,2.137 0,1.457 1.229,2.331 2.93,2.331 1.132,0 2.153,-0.275 2.865,-0.858 L 2.12,6.54 C 1.554,6.978 0.825,7.172 0,7.172 c -1.166,0 -1.781,-0.503 -1.781,-1.312 0,-0.679 0.388,-1.084 1.392,-1.165 L 0.89,4.582 C 2.282,4.452 3.237,3.918 3.237,2.428 3.237,0.891 1.926,0 0,0"
         style="fill:#35567e;fill-opacity:1;fill-rule:nonzero;stroke:none"
         id="path3823" />
    </g>
    <g
       id="g3825"
       transform="matrix(1.25,0,0,-1.25,272.93163,616.81852)">
      <path
         inkscape:connector-curvature="0"
         d="m 0,0 c -2.008,0 -3.529,1.36 -3.529,4.08 0,2.719 1.521,4.079 3.529,4.079 1.101,0 1.797,-0.291 2.622,-1.181 L 1.829,6.233 C 1.23,6.896 0.761,7.123 0,7.123 -0.777,7.123 -1.425,6.815 -1.846,6.216 -2.218,5.698 -2.363,5.083 -2.363,4.08 -2.363,3.076 -2.218,2.461 -1.846,1.943 -1.425,1.344 -0.777,1.036 0,1.036 c 0.761,0 1.23,0.243 1.829,0.907 L 2.622,1.182 C 1.797,0.292 1.101,0 0,0"
         style="fill:#35567e;fill-opacity:1;fill-rule:nonzero;stroke:none"
         id="path3827" />
    </g>
    <path
       inkscape:connector-curvature="0"
       d="m 281.00263,606.74088 1.4575,0 0,9.95625 -1.4575,0 0,-9.95625 z m -0.08,-4.4725 1.64,0 0,1.64 -1.64,0 0,-1.64 z"
       style="fill:#35567e;fill-opacity:1;fill-rule:nonzero;stroke:none"
       id="path3829" />
    <g
       id="g3831"
       transform="matrix(1.25,0,0,-1.25,294.01326,609.35151)">
      <path
         inkscape:connector-curvature="0"
         d="M 0,0 C -0.308,0.729 -1.02,1.198 -1.861,1.198 -2.703,1.198 -3.416,0.729 -3.724,0 -3.901,-0.437 -3.934,-0.68 -3.966,-1.328 l 4.209,0 C 0.21,-0.68 0.178,-0.437 0,0 m -3.966,-2.202 c 0,-1.748 0.825,-2.752 2.347,-2.752 0.923,0 1.457,0.276 2.089,0.907 l 0.793,-0.696 c -0.81,-0.81 -1.555,-1.231 -2.914,-1.231 -2.105,0 -3.481,1.263 -3.481,4.08 0,2.574 1.247,4.08 3.271,4.08 2.055,0 3.269,-1.49 3.269,-3.853 l 0,-0.535 -5.374,0 z"
         style="fill:#35567e;fill-opacity:1;fill-rule:nonzero;stroke:none"
         id="path3833" />
    </g>
    <g
       id="g3835"
       transform="matrix(1.25,0,0,-1.25,307.26513,616.69701)">
      <path
         inkscape:connector-curvature="0"
         d="m 0,0 0,4.905 c 0,1.408 -0.761,2.121 -1.959,2.121 -1.198,0 -1.976,-0.729 -1.976,-2.121 l 0,-4.905 -1.165,0 0,7.965 1.165,0 0,-0.875 c 0.568,0.648 1.344,0.972 2.235,0.972 0.858,0 1.554,-0.259 2.04,-0.745 C 0.906,6.767 1.165,6.022 1.165,5.1 L 1.165,0 0,0 z"
         style="fill:#35567e;fill-opacity:1;fill-rule:nonzero;stroke:none"
         id="path3837-7" />
    </g>
    <g
       id="g3839"
       transform="matrix(1.25,0,0,-1.25,318.149,616.81852)">
      <path
         inkscape:connector-curvature="0"
         d="m 0,0 c -2.008,0 -3.529,1.36 -3.529,4.08 0,2.719 1.521,4.079 3.529,4.079 1.101,0 1.797,-0.291 2.622,-1.181 L 1.829,6.233 C 1.23,6.896 0.761,7.123 0,7.123 -0.777,7.123 -1.425,6.815 -1.846,6.216 -2.218,5.698 -2.363,5.083 -2.363,4.08 -2.363,3.076 -2.218,2.461 -1.846,1.943 -1.425,1.344 -0.777,1.036 0,1.036 c 0.761,0 1.23,0.243 1.829,0.907 L 2.622,1.182 C 1.797,0.292 1.101,0 0,0"
         style="fill:#35567e;fill-opacity:1;fill-rule:nonzero;stroke:none"
         id="path3841" />
    </g>
    <g
       id="g3843"
       transform="matrix(1.25,0,0,-1.25,331.78301,609.35151)">
      <path
         inkscape:connector-curvature="0"
         d="M 0,0 C -0.308,0.729 -1.021,1.198 -1.862,1.198 -2.704,1.198 -3.416,0.729 -3.724,0 -3.901,-0.437 -3.935,-0.68 -3.967,-1.328 l 4.209,0 C 0.21,-0.68 0.178,-0.437 0,0 m -3.967,-2.202 c 0,-1.748 0.826,-2.752 2.348,-2.752 0.923,0 1.457,0.276 2.088,0.907 l 0.794,-0.696 c -0.81,-0.81 -1.555,-1.231 -2.914,-1.231 -2.105,0 -3.481,1.263 -3.481,4.08 0,2.574 1.246,4.08 3.27,4.08 2.056,0 3.27,-1.49 3.27,-3.853 l 0,-0.535 -5.375,0 z"
         style="fill:#35567e;fill-opacity:1;fill-rule:nonzero;stroke:none"
         id="path3845" />
    </g>
    <g
       id="g3847"
       transform="matrix(1.25,0,0,-1.25,341.79635,616.81852)">
      <path
         inkscape:connector-curvature="0"
         d="m 0,0 c -1.343,0 -2.396,0.308 -3.27,1.15 l 0.777,0.777 c 0.632,-0.664 1.489,-0.923 2.477,-0.923 1.311,0 2.12,0.47 2.12,1.408 0,0.696 -0.405,1.085 -1.327,1.166 l -1.311,0.113 c -1.554,0.13 -2.379,0.826 -2.379,2.137 0,1.457 1.229,2.331 2.93,2.331 1.132,0 2.153,-0.275 2.865,-0.858 L 2.121,6.54 C 1.555,6.978 0.825,7.172 0,7.172 c -1.166,0 -1.78,-0.503 -1.78,-1.312 0,-0.679 0.388,-1.084 1.391,-1.165 L 0.891,4.582 C 2.282,4.452 3.237,3.918 3.237,2.428 3.237,0.891 1.927,0 0,0"
         style="fill:#35567e;fill-opacity:1;fill-rule:nonzero;stroke:none"
         id="path3849" />
    </g>
    <g
       id="g3851"
       transform="matrix(1.25,0,0,-1.25,362.25055,603.48289)">
      <path
         inkscape:connector-curvature="0"
         d="m 0,0 c -0.793,0 -1.327,-0.567 -1.327,-1.344 0,-0.534 0.275,-0.971 1.036,-1.894 0.194,0.13 0.614,0.421 0.614,0.421 0.535,0.372 1.036,0.777 1.036,1.441 C 1.359,-0.599 0.777,0 0,0 m -0.615,-4.646 c -0.988,-0.68 -1.975,-1.328 -1.975,-2.639 0,-1.376 1.004,-2.298 2.428,-2.298 0.858,0 1.732,0.226 2.721,1.116 l -3.174,3.821 z m 4.905,-5.925 -1.036,1.262 c -0.47,-0.437 -1.554,-1.359 -3.4,-1.359 -2.234,0 -3.642,1.344 -3.642,3.351 0,1.732 1.23,2.606 2.493,3.448 -0.566,0.68 -1.247,1.473 -1.247,2.509 0,1.376 1.069,2.412 2.542,2.412 1.44,0 2.51,-1.052 2.51,-2.428 0,-0.923 -0.551,-1.554 -1.28,-2.056 0,0 -0.583,-0.388 -0.858,-0.583 L 3.318,-7.56 c 0.47,0.712 0.632,1.344 0.648,2.639 l 1.166,0 C 5.115,-6.378 4.808,-7.56 4.063,-8.45 l 1.765,-2.121 -1.538,0 z"
         style="fill:#35567e;fill-opacity:1;fill-rule:nonzero;stroke:none"
         id="path3853" />
    </g>
    <path
       inkscape:connector-curvature="0"
       d="m 381.81385,606.74088 1.4575,0 0,9.95625 -1.4575,0 0,-9.95625 z m -0.081,-4.4725 1.64,0 0,1.64 -1.64,0 0,-1.64 z"
       style="fill:#35567e;fill-opacity:1;fill-rule:nonzero;stroke:none"
       id="path3855" />
    <g
       id="g3857"
       transform="matrix(1.25,0,0,-1.25,395.33035,616.69701)">
      <path
         inkscape:connector-curvature="0"
         d="m 0,0 0,4.905 c 0,1.408 -0.762,2.121 -1.959,2.121 -1.198,0 -1.975,-0.729 -1.975,-2.121 l 0,-4.905 -1.166,0 0,7.965 1.166,0 0,-0.875 c 0.566,0.648 1.343,0.972 2.234,0.972 0.857,0 1.554,-0.259 2.039,-0.745 C 0.906,6.767 1.165,6.022 1.165,5.1 L 1.165,0 0,0 z"
         style="fill:#35567e;fill-opacity:1;fill-rule:nonzero;stroke:none"
         id="path3859" />
    </g>
    <g
       id="g3861"
       transform="matrix(1.25,0,0,-1.25,405.76865,607.91464)">
      <path
         inkscape:connector-curvature="0"
         d="m 0,0 c -1.732,0 -1.991,-1.489 -1.991,-2.979 0,-1.489 0.259,-2.979 1.991,-2.979 1.731,0 1.975,1.49 1.975,2.979 C 1.975,-1.489 1.731,0 0,0 m -0.178,-10.684 c -1.198,0 -1.862,0.308 -2.704,1.068 l 0.761,0.745 c 0.583,-0.518 0.987,-0.794 1.911,-0.794 1.537,0 2.185,1.085 2.185,2.445 l 0,1.247 c -0.648,-0.826 -1.376,-1.036 -2.234,-1.036 -0.81,0 -1.506,0.291 -1.927,0.712 -0.793,0.793 -0.971,2.024 -0.971,3.318 0,1.295 0.178,2.525 0.971,3.319 0.421,0.421 1.134,0.696 1.943,0.696 0.875,0 1.586,-0.194 2.234,-1.036 l 0,0.939 1.15,0 0,-8.208 c 0,-1.975 -1.231,-3.415 -3.319,-3.415"
         style="fill:#35567e;fill-opacity:1;fill-rule:nonzero;stroke:none"
         id="path3863" />
    </g>
    <g
       id="g3865"
       transform="matrix(1.25,0,0,-1.25,419.30375,604.67677)">
      <path
         inkscape:connector-curvature="0"
         d="m 0,0 -1.068,0 1.424,2.477 1.392,0 L 0,0 z m 1.538,-3.74 c -0.309,0.729 -1.019,1.198 -1.861,1.198 -0.842,0 -1.555,-0.469 -1.863,-1.198 -0.178,-0.437 -0.21,-0.679 -0.243,-1.327 l 4.209,0 c -0.032,0.648 -0.064,0.89 -0.242,1.327 m -3.967,-2.201 c 0,-1.748 0.826,-2.752 2.348,-2.752 0.923,0 1.457,0.275 2.088,0.906 l 0.794,-0.696 c -0.81,-0.809 -1.555,-1.23 -2.914,-1.23 -2.105,0 -3.481,1.262 -3.481,4.079 0,2.574 1.247,4.08 3.271,4.08 2.055,0 3.269,-1.49 3.269,-3.853 l 0,-0.534 -5.375,0 z"
         style="fill:#35567e;fill-opacity:1;fill-rule:nonzero;stroke:none"
         id="path3867" />
    </g>
    <g
       id="g3869"
       transform="matrix(1.25,0,0,-1.25,434.47825,616.69701)">
      <path
         inkscape:connector-curvature="0"
         d="m 0,0 0,4.905 c 0,1.408 -0.762,2.121 -1.959,2.121 -1.198,0 -1.976,-0.729 -1.976,-2.121 l 0,-4.905 -1.165,0 0,7.965 1.165,0 0,-0.875 c 0.567,0.648 1.344,0.972 2.235,0.972 0.858,0 1.554,-0.259 2.04,-0.745 C 0.906,6.767 1.165,6.022 1.165,5.1 L 1.165,0 0,0 z"
         style="fill:#35567e;fill-opacity:1;fill-rule:nonzero;stroke:none"
         id="path3871" />
    </g>
    <path
       inkscape:connector-curvature="0"
       d="m 441.49765,606.74088 1.4562,0 0,9.95625 -1.4562,0 0,-9.95625 z m -0.082,-4.4725 1.64,0 0,1.64 -1.64,0 0,-1.64 z"
       style="fill:#35567e;fill-opacity:1;fill-rule:nonzero;stroke:none"
       id="path3873" />
    <g
       id="g3875"
       transform="matrix(1.25,0,0,-1.25,454.50635,609.35151)">
      <path
         inkscape:connector-curvature="0"
         d="M 0,0 C -0.308,0.729 -1.02,1.198 -1.861,1.198 -2.703,1.198 -3.415,0.729 -3.724,0 -3.901,-0.437 -3.934,-0.68 -3.966,-1.328 l 4.209,0 C 0.211,-0.68 0.179,-0.437 0,0 m -3.966,-2.202 c 0,-1.748 0.825,-2.752 2.348,-2.752 0.922,0 1.457,0.276 2.088,0.907 l 0.793,-0.696 c -0.81,-0.81 -1.554,-1.231 -2.914,-1.231 -2.105,0 -3.481,1.263 -3.481,4.08 0,2.574 1.247,4.08 3.271,4.08 2.055,0 3.269,-1.49 3.269,-3.853 l 0,-0.535 -5.374,0 z"
         style="fill:#35567e;fill-opacity:1;fill-rule:nonzero;stroke:none"
         id="path3877" />
    </g>
    <g
       id="g3879"
       transform="matrix(1.25,0,0,-1.25,466.94905,608.64351)">
      <path
         inkscape:connector-curvature="0"
         d="m 0,0 c -0.437,0.438 -0.761,0.583 -1.376,0.583 -1.165,0 -1.91,-0.923 -1.91,-2.137 l 0,-4.889 -1.165,0 0,7.965 1.165,0 0,-0.971 c 0.437,0.663 1.311,1.068 2.234,1.068 0.761,0 1.343,-0.178 1.909,-0.744 L 0,0 z"
         style="fill:#35567e;fill-opacity:1;fill-rule:nonzero;stroke:none"
         id="path3881" />
    </g>
    <path
       inkscape:connector-curvature="0"
       d="m 471.92515,606.74088 1.4575,0 0,9.95625 -1.4575,0 0,-9.95625 z m -0.081,-4.4725 1.64,0 0,1.64 -1.64,0 0,-1.64 z"
       style="fill:#35567e;fill-opacity:1;fill-rule:nonzero;stroke:none"
       id="path3883" />
    <g
       id="g3885"
       transform="matrix(1.25,0,0,-1.25,484.93485,609.35151)">
      <path
         inkscape:connector-curvature="0"
         d="M 0,0 C -0.308,0.729 -1.021,1.198 -1.861,1.198 -2.703,1.198 -3.416,0.729 -3.724,0 -3.901,-0.437 -3.934,-0.68 -3.966,-1.328 l 4.208,0 C 0.21,-0.68 0.178,-0.437 0,0 m -3.966,-2.202 c 0,-1.748 0.825,-2.752 2.347,-2.752 0.923,0 1.457,0.276 2.088,0.907 l 0.794,-0.696 c -0.81,-0.81 -1.554,-1.231 -2.914,-1.231 -2.105,0 -3.481,1.263 -3.481,4.08 0,2.574 1.246,4.08 3.271,4.08 2.055,0 3.269,-1.49 3.269,-3.853 l 0,-0.535 -5.374,0 z"
         style="fill:#35567e;fill-opacity:1;fill-rule:nonzero;stroke:none"
         id="path3887" />
    </g>
    <g
       id="g3889"
       transform="matrix(1.25,0,0,-1.25,403.05505,561.62439)">
      <path
         inkscape:connector-curvature="0"
         d="m 0,0 -8.641,0 c -0.847,-2.501 -1.273,-5.514 -1.273,-9.042 0,-3.277 0.46,-6.093 1.381,-8.448 0.921,-2.356 2.301,-4.267 4.142,-5.735 1.417,-1.141 2.933,-1.952 4.546,-2.432 1.613,-0.481 3.828,-0.722 6.647,-0.722 l 12.773,0 0,6.26 -12.407,0 c -3.061,0 -5.248,0.685 -6.558,2.054 -1.31,1.369 -1.974,3.618 -1.99,6.749 l 20.955,0 0,6.259 -20.906,0.025 C -1.224,-2.963 -0.778,-1.288 0,0"
         style="fill:#35567e;fill-opacity:1;fill-rule:nonzero;stroke:none"
         id="path3891" />
    </g>
    <g
       id="g3893"
       transform="matrix(1.25,0,0,-1.25,410.89805,557.52889)">
      <path
         inkscape:connector-curvature="0"
         d="m 0,0 c 0.29,0.018 0.586,0.029 0.894,0.029 l 12.407,0 0,6.261 -12.554,0 C -5.036,6.29 -9.306,4.777 -12.058,1.753 -12.542,1.222 -12.981,0.635 -13.381,0 L 0,0 z"
         style="fill:#35567e;fill-opacity:1;fill-rule:nonzero;stroke:none"
         id="path3895" />
    </g>
    <g
       id="g3897"
       transform="matrix(1.25,0,0,-1.25,480.99685,557.52889)">
      <path
         inkscape:connector-curvature="0"
         d="m 0,0 0,6.29 -19.781,0 c -4.385,0 -7.585,-0.881 -9.598,-2.642 C -30.441,2.719 -31.22,1.501 -31.722,0 L 0,0 z"
         style="fill:#35567e;fill-opacity:1;fill-rule:nonzero;stroke:none"
         id="path3899" />
    </g>
    <g
       id="g3901"
       transform="matrix(1.25,0,0,-1.25,479.88115,571.36926)">
      <path
         inkscape:connector-curvature="0"
         d="m 0,0 c -1.752,1.565 -4.699,2.348 -8.839,2.348 l -10.001,0 c -1.581,0 -2.771,0.326 -3.569,0.979 -0.799,0.651 -1.198,1.629 -1.198,2.934 0,0.566 0.06,1.075 0.173,1.535 l -8.019,0 c -0.034,-0.463 -0.053,-0.941 -0.053,-1.438 0,-3.57 0.958,-6.183 2.873,-7.837 1.916,-1.654 4.944,-2.481 9.084,-2.481 l 8.925,0 c 1.956,0 3.338,-0.319 4.145,-0.955 0.806,-0.635 1.209,-1.703 1.209,-3.202 0,-1.452 -0.439,-2.49 -1.32,-3.118 -0.88,-0.628 -2.395,-0.942 -4.548,-0.942 l -18.925,0 0,-6.406 20.124,0 c 4.335,0 7.514,0.868 9.536,2.604 2.021,1.736 3.032,4.455 3.032,8.155 C 2.629,-4.173 1.753,-1.564 0,0"
         style="fill:#35567e;fill-opacity:1;fill-rule:nonzero;stroke:none"
         id="path3903" />
    </g>
  </g>
</svg>
