<?xml version="1.0" encoding="UTF-8" standalone="no"?>
<!-- Created with Inkscape (http://www.inkscape.org/) -->

<svg
   xmlns:dc="http://purl.org/dc/elements/1.1/"
   xmlns:cc="http://creativecommons.org/ns#"
   xmlns:rdf="http://www.w3.org/1999/02/22-rdf-syntax-ns#"
   xmlns:svg="http://www.w3.org/2000/svg"
   xmlns="http://www.w3.org/2000/svg"
   xmlns:sodipodi="http://sodipodi.sourceforge.net/DTD/sodipodi-0.dtd"
   xmlns:inkscape="http://www.inkscape.org/namespaces/inkscape"
   width="169.55624"
   height="75.612732"
   id="svg6243"
   version="1.1"
   inkscape:version="0.48.4 r9939"
   sodipodi:docname="Nouveau document 4">
  <defs
     id="defs6245" />
  <sodipodi:namedview
     id="base"
     pagecolor="#ffffff"
     bordercolor="#666666"
     borderopacity="1.0"
     inkscape:pageopacity="0.0"
     inkscape:pageshadow="2"
     inkscape:zoom="1.4"
     inkscape:cx="87.234681"
     inkscape:cy="114.05914"
     inkscape:document-units="px"
     inkscape:current-layer="layer1"
     showgrid="false"
     fit-margin-top="0"
     fit-margin-left="0"
     fit-margin-right="0"
     fit-margin-bottom="0"
     inkscape:window-width="1920"
     inkscape:window-height="1056"
     inkscape:window-x="0"
     inkscape:window-y="24"
     inkscape:window-maximized="1" />
  <metadata
     id="metadata6248">
    <rdf:RDF>
      <cc:Work
         rdf:about="">
        <dc:format>image/svg+xml</dc:format>
        <dc:type
           rdf:resource="http://purl.org/dc/dcmitype/StillImage" />
        <dc:title></dc:title>
      </cc:Work>
    </rdf:RDF>
  </metadata>
  <g
     inkscape:label="Calque 1"
     inkscape:groupmode="layer"
     id="layer1"
     transform="translate(-292.36473,-371.69867)">
    <path
       id="path4171"
       style="fill:#231f20;fill-opacity:1;fill-rule:nonzero;stroke:none"
       d="m 304.04723,428.19765 0,4.74125 c 0,1.58125 -1.285,2.85375 -2.86125,2.85375 -1.56875,0 -2.85125,-1.2725 -2.85125,-2.85375 l 0,-4.74125 0.935,0 0,4.74125 c 0,1.06375 0.8625,1.93625 1.91625,1.93625 1.06125,0 1.91375,-0.8725 1.91375,-1.93625 l 0,-4.74125"
       inkscape:connector-curvature="0" />
    <path
       id="path4175"
       style="fill:#231f20;fill-opacity:1;fill-rule:nonzero;stroke:none"
       d="m 308.99223,429.7639 0,5.9225 -0.94625,0 0,-7.48875 1.03125,0 3.99625,5.9225 0,-5.9225 0.9475,0 0,7.48875 -1.0225,0"
       inkscape:connector-curvature="0" />
    <path
       inkscape:connector-curvature="0"
       d="m 317.84848,435.6864 0.9475,0 0,-7.48888 -0.9475,0 0,7.48888 z"
       style="fill:#231f20;fill-opacity:1;fill-rule:nonzero;stroke:none"
       id="path4177" />
    <path
       id="path4181"
       style="fill:#231f20;fill-opacity:1;fill-rule:nonzero;stroke:none"
       d="m 322.68972,428.19765 2.35375,6.13375 2.36625,-6.13375 1.01,0 -2.8825,7.48875 -0.9775,0 -2.8925,-7.48875"
       inkscape:connector-curvature="0" />
    <path
       id="path4185"
       style="fill:#231f20;fill-opacity:1;fill-rule:nonzero;stroke:none"
       d="m 331.15223,428.19765 4.7325,0 0,0.905 -3.785,0 0,1.755 3.3025,0 0,0.93625 -3.3025,0 0,2.96625 3.69,0 0,0.92625 -4.6375,0"
       inkscape:connector-curvature="0" />
    <path
       id="path4189"
       style="fill:#231f20;fill-opacity:1;fill-rule:nonzero;stroke:none"
       d="m 340.66848,430.84765 1.6925,0 c 0.485,0 0.87375,-0.38625 0.87375,-0.87375 0,-0.4825 -0.38875,-0.87125 -0.87375,-0.87125 l -1.6925,0 0,1.745 z m 5.015,4.83875 -1.08125,0 -2.86125,-3.93375 -1.0725,0 0,3.93375 -0.90375,0 0,-7.48875 2.59625,0 c 0.475,0 0.91625,0.19 1.25125,0.525 0.3375,0.33875 0.5275,0.7775 0.5275,1.25125 0,0.83375 -0.5775,1.525 -1.34625,1.72625"
       inkscape:connector-curvature="0" />
    <path
       id="path4201"
       style="fill:#231f20;fill-opacity:1;fill-rule:nonzero;stroke:none"
       d="m 349.91848,435.67515 c -0.77375,-0.1575 -1.54375,-0.54875 -2.2275,-1.13375 l 0.62125,-0.705 c 0.5575,0.4825 1.17625,0.80875 1.7975,0.9325 0.52625,0.11625 1.04375,0.0738 1.45,-0.115 0.275,-0.1225 0.75,-0.44125 0.75,-1.08125 0,-0.7875 -0.84125,-1.0725 -1.6625,-1.23125 -0.0737,-0.009 -1.25125,-0.25375 -1.72375,-0.525 -0.63375,-0.37875 -0.9675,-0.9475 -0.9675,-1.64125 0,-0.39 0.125,-0.7575 0.345,-1.08375 0.22125,-0.29375 0.52625,-0.535 0.88625,-0.7025 0.525,-0.2525 1.1425,-0.32875 1.775,-0.2225 0.6825,0.11625 1.37875,0.44125 1.98875,0.94625 l -0.59875,0.72375 c -1.0825,-0.89 -2.1375,-0.9125 -2.7675,-0.62125 -0.42875,0.2025 -0.68375,0.57 -0.68375,0.94875 0,0.71625 0.60875,0.99 1.57625,1.19875 0.4025,0.095 1.23125,0.23125 1.7275,0.51625 0.68375,0.3775 1.0375,0.9675 1.0375,1.69375 0,0.43 -0.1125,0.83125 -0.35375,1.175 -0.2225,0.31625 -0.55875,0.56 -0.9375,0.74875 -0.40125,0.2 -0.80875,0.2625 -1.2725,0.2625 -0.2525,0 -0.50625,-0.03 -0.76,-0.0838"
       inkscape:connector-curvature="0" />
    <path
       inkscape:connector-curvature="0"
       d="m 357.03847,435.6864 0.94375,0 0,-7.48888 -0.94375,0 0,7.48888 z"
       style="fill:#231f20;fill-opacity:1;fill-rule:nonzero;stroke:none"
       id="path4203" />
    <path
       id="path4207"
       style="fill:#231f20;fill-opacity:1;fill-rule:nonzero;stroke:none"
       d="m 363.35348,429.1239 -1.97375,0 0,-0.9275 4.9,0 0,0.9275 -1.9775,0 0,6.5625 -0.94875,0"
       inkscape:connector-curvature="0" />
    <path
       id="path4211"
       style="fill:#231f20;fill-opacity:1;fill-rule:nonzero;stroke:none"
       d="m 371.91348,426.33515 0.71625,0 -0.87375,1.12625 -0.3775,0 0.535,-1.12625 z m -2.83875,1.8625 4.73125,0 0,0.90625 -3.78625,0 0,1.75375 3.30375,0 0,0.9375 -3.30375,0 0,2.965 3.6925,0 0,0.92625 -4.6375,0"
       inkscape:connector-curvature="0" />
    <path
       id="path4215"
       style="fill:#231f20;fill-opacity:1;fill-rule:nonzero;stroke:none"
       d="m 301.51973,446.2814 c 0.8225,-0.02 1.485,-0.71625 1.485,-1.5225 0,-0.82375 -0.6625,-1.495 -1.485,-1.505 l -2.3,0 0,3.0275 2.3,0 z m -0.545,-3.945 c 0.46125,-0.0113 0.84,-0.38625 0.84,-0.84875 0,-0.465 -0.3675,-0.84375 -0.84,-0.865 l -1.755,0 0,1.71375 1.755,0 z m -2.6925,-2.62875 2.6925,0 c 0.4725,0 0.92625,0.19125 1.25125,0.52625 0.33875,0.32625 0.52625,0.77875 0.52625,1.25375 0,0.36625 -0.10625,0.7125 -0.31375,1.00625 l -0.0113,0.01 0.0113,0.0125 c 0.2925,0.115 0.56625,0.29375 0.78625,0.52625 0.4625,0.45375 0.71625,1.06125 0.71625,1.71625 0,0.6375 -0.25375,1.2475 -0.71625,1.7125 -0.4525,0.45125 -1.06125,0.72625 -1.705,0.72625 l -3.2375,0"
       inkscape:connector-curvature="0" />
    <path
       id="path4219"
       style="fill:#231f20;fill-opacity:1;fill-rule:nonzero;stroke:none"
       d="m 311.82723,443.40015 c 0,-1.64125 -1.325,-2.99875 -2.96375,-2.99875 -1.6425,0 -2.96625,1.3575 -2.96625,2.99875 0,1.63 1.32375,2.975 2.96625,2.975 1.63875,0 2.96375,-1.345 2.96375,-2.975 m 0.95625,0 c 0,2.155 -1.76375,3.90125 -3.92,3.90125 -2.15875,0 -3.915,-1.74625 -3.915,-3.90125 0,-2.1675 1.75625,-3.9225 3.915,-3.9225 2.15625,0 3.92,1.755 3.92,3.9225"
       inkscape:connector-curvature="0" />
    <path
       id="path4223"
       style="fill:#231f20;fill-opacity:1;fill-rule:nonzero;stroke:none"
       d="m 319.77348,439.70765 0,4.74375 c 0,1.5775 -1.28,2.85 -2.86,2.85 -1.56625,0 -2.85,-1.2725 -2.85,-2.85 l 0,-4.74375 0.93875,0 0,4.74375 c 0,1.06 0.86125,1.93625 1.91125,1.93625 1.065,0 1.91375,-0.87625 1.91375,-1.93625 l 0,-4.74375"
       inkscape:connector-curvature="0" />
    <path
       id="path4235"
       style="fill:#231f20;fill-opacity:1;fill-rule:nonzero;stroke:none"
       d="m 322.41223,442.35765 1.69375,0 c 0.48125,0 0.8725,-0.38875 0.8725,-0.87 0,-0.48625 -0.39125,-0.87625 -0.8725,-0.87625 l -1.69375,0 0,1.74625 z m 5.01625,4.84 -1.08375,0 -2.85875,-3.93375 -1.07375,0 0,3.93375 -0.905,0 0,-7.49 2.59875,0 c 0.4725,0 0.915,0.19125 1.25125,0.52625 0.33625,0.335 0.52625,0.77875 0.52625,1.25375 0,0.8275 -0.57875,1.52375 -1.3475,1.725"
       inkscape:connector-curvature="0" />
    <path
       id="path4239"
       style="fill:#231f20;fill-opacity:1;fill-rule:nonzero;stroke:none"
       d="m 334.54598,442.3789 0,3.3125 c -0.74375,1.00125 -1.925,1.61875 -3.16375,1.61875 -2.1575,0 -3.9125,-1.755 -3.9125,-3.92 0,-2.1575 1.755,-3.9125 3.9125,-3.9125 1.06,0 2.05125,0.4225 2.775,1.15375 l -0.6925,0.61375 c -0.5475,-0.55125 -1.295,-0.84375 -2.0825,-0.84375 -1.65125,0 -2.98625,1.33875 -2.98625,2.98875 0,1.66125 1.335,2.9975 2.98625,2.9975 0.87375,0 1.6725,-0.36875 2.25,-1.00875 l 0,-2.0725 -2.1975,0 0,-0.9275"
       inkscape:connector-curvature="0" />
    <path
       id="path4243"
       style="fill:#231f20;fill-opacity:1;fill-rule:nonzero;stroke:none"
       d="m 342.72598,443.40015 c 0,-1.64125 -1.32625,-2.99875 -2.965,-2.99875 -1.64125,0 -2.96625,1.3575 -2.96625,2.99875 0,1.63 1.325,2.975 2.96625,2.975 1.63875,0 2.965,-1.345 2.965,-2.975 m 0.9575,0 c 0,2.155 -1.76625,3.90125 -3.9225,3.90125 -2.15625,0 -3.91375,-1.74625 -3.91375,-3.90125 0,-2.1675 1.7575,-3.9225 3.91375,-3.9225 2.15625,0 3.9225,1.755 3.9225,3.9225"
       inkscape:connector-curvature="0" />
    <path
       id="path4255"
       style="fill:#231f20;fill-opacity:1;fill-rule:nonzero;stroke:none"
       d="m 351.79098,442.3789 0,3.3125 c -0.745,1.00125 -1.925,1.61875 -3.16375,1.61875 -2.15875,0 -3.915,-1.755 -3.915,-3.92 0,-2.1575 1.75625,-3.9125 3.915,-3.9125 1.06,0 2.05125,0.4225 2.77375,1.15375 l -0.69125,0.61375 c -0.54875,-0.55125 -1.2975,-0.84375 -2.0825,-0.84375 -1.65125,0 -2.98625,1.33875 -2.98625,2.98875 0,1.66125 1.335,2.9975 2.98625,2.9975 0.87125,0 1.67125,-0.36875 2.25,-1.00875 l 0,-2.0725 -2.19875,0 0,-0.9275"
       inkscape:connector-curvature="0" />
    <path
       id="path4259"
       style="fill:#231f20;fill-opacity:1;fill-rule:nonzero;stroke:none"
       d="m 354.62847,441.2764 0,5.92 -0.9475,0 0,-7.48875 1.0325,0 3.99375,5.92125 0,-5.92125 0.9475,0 0,7.48875 -1.02,0"
       inkscape:connector-curvature="0" />
    <path
       id="path4263"
       style="fill:#231f20;fill-opacity:1;fill-rule:nonzero;stroke:none"
       d="m 361.86223,439.70765 4.73125,0 0,0.90375 -3.78625,0 0,1.7575 3.3,0 0,0.9375 -3.3,0 0,2.96375 3.69125,0 0,0.9275 -4.63625,0"
       inkscape:connector-curvature="0" />
    <path
       id="path4267"
       style="fill:#231f20;fill-opacity:1;fill-rule:nonzero;stroke:none"
       d="m 370.89973,439.70765 4.735,0 0,0.915 -3.7875,0 0,1.75625 2.085,0 0,0.9275 -2.085,0 0,3.89125 -0.9475,0"
       inkscape:connector-curvature="0" />
    <path
       id="path4279"
       style="fill:#231f20;fill-opacity:1;fill-rule:nonzero;stroke:none"
       d="m 377.75347,442.35765 1.6925,0 c 0.485,0 0.875,-0.38875 0.875,-0.87 0,-0.48625 -0.39,-0.87625 -0.875,-0.87625 l -1.6925,0 0,1.74625 z m 5.01625,4.84 -1.0825,0 -2.86375,-3.93375 -1.07,0 0,3.93375 -0.9025,0 0,-7.49 2.595,0 c 0.47625,0 0.91375,0.19125 1.25125,0.52625 0.33625,0.335 0.52625,0.77875 0.52625,1.25375 0,0.8275 -0.57875,1.52375 -1.345,1.725"
       inkscape:connector-curvature="0" />
    <path
       id="path4283"
       style="fill:#231f20;fill-opacity:1;fill-rule:nonzero;stroke:none"
       d="m 386.64848,441.06515 -1.17125,3.02875 2.325,0 -1.15375,-3.02875 z m 1.5225,3.955 -3.0575,0 -0.83125,2.1775 -1.01,0 2.87875,-7.48875 0.97875,0 2.895,7.48875 -1.0225,0"
       inkscape:connector-curvature="0" />
    <path
       id="path4287"
       style="fill:#231f20;fill-opacity:1;fill-rule:nonzero;stroke:none"
       d="m 392.44098,441.2764 0,5.92 -0.94625,0 0,-7.48875 1.02875,0 3.9975,5.92125 0,-5.92125 0.94625,0 0,7.48875 -1.02,0"
       inkscape:connector-curvature="0" />
    <path
       id="path4299"
       style="fill:#231f20;fill-opacity:1;fill-rule:nonzero;stroke:none"
       d="m 405.39597,445.1989 0.7325,0.545 c -0.74375,1.00125 -1.895,1.5675 -3.12125,1.5675 -2.1675,0 -3.925,-1.7575 -3.925,-3.92 0,-2.1575 1.7575,-3.915 3.925,-3.915 1.2375,0 2.38875,0.58125 3.1325,1.57875 l -0.74375,0.5475 c -0.57125,-0.77 -1.44625,-1.2 -2.38875,-1.2 -1.6625,0 -2.995,1.3375 -2.995,2.98875 0,1.66 1.3325,2.9975 2.995,2.9975 0.93125,0 1.80625,-0.43375 2.38875,-1.19"
       inkscape:connector-curvature="0" />
    <path
       id="path4303"
       style="fill:#231f20;fill-opacity:1;fill-rule:nonzero;stroke:none"
       d="m 412.41723,443.29515 -3.84,0 0,3.9025 -0.945,0 0,-7.48875 0.945,0 0,2.67 3.84,0 0,-2.67 0.94375,0 0,7.48875 -0.94375,0"
       inkscape:connector-curvature="0" />
    <path
       id="path4307"
       style="fill:#231f20;fill-opacity:1;fill-rule:nonzero;stroke:none"
       d="m 415.30598,439.70765 4.735,0 0,0.90375 -3.78875,0 0,1.7575 3.30125,0 0,0.9375 -3.30125,0 0,2.96375 3.6925,0 0,0.9275 -4.63875,0"
       inkscape:connector-curvature="0" />
    <path
       inkscape:connector-curvature="0"
       d="m 421.21223,445.23015 3.165,0 0,-0.90504 -3.165,0 0,0.90504 z"
       style="fill:#231f20;fill-opacity:1;fill-rule:nonzero;stroke:none"
       id="path4309" />
    <path
       id="path4321"
       style="fill:#231f20;fill-opacity:1;fill-rule:nonzero;stroke:none"
       d="m 431.88848,445.1989 0.7325,0.545 c -0.74375,1.00125 -1.89,1.5675 -3.12125,1.5675 -2.16625,0 -3.925,-1.7575 -3.925,-3.92 0,-2.1575 1.75875,-3.915 3.925,-3.915 1.23875,0 2.38875,0.58125 3.1325,1.57875 l -0.74375,0.5475 c -0.57125,-0.77 -1.44,-1.2 -2.38875,-1.2 -1.66125,0 -2.99875,1.3375 -2.99875,2.98875 0,1.66 1.3375,2.9975 2.99875,2.9975 0.9375,0 1.80875,-0.43375 2.38875,-1.19"
       inkscape:connector-curvature="0" />
    <path
       id="path4325"
       style="fill:#231f20;fill-opacity:1;fill-rule:nonzero;stroke:none"
       d="m 440.56972,443.40015 c 0,-1.64125 -1.3225,-2.99875 -2.9625,-2.99875 -1.64125,0 -2.965,1.3575 -2.965,2.99875 0,1.63 1.32375,2.975 2.965,2.975 1.64,0 2.9625,-1.345 2.9625,-2.975 m 0.9625,0 c 0,2.155 -1.76875,3.90125 -3.925,3.90125 -2.1575,0 -3.915,-1.74625 -3.915,-3.90125 0,-2.1675 1.7575,-3.9225 3.915,-3.9225 2.15625,0 3.925,1.755 3.925,3.9225"
       inkscape:connector-curvature="0" />
    <path
       id="path4329"
       style="fill:#231f20;fill-opacity:1;fill-rule:nonzero;stroke:none"
       d="m 448.56098,447.19765 0,-5.97375 -2.38625,3.25875 -2.3775,-3.25875 0,5.97375 -0.9375,0 0,-7.49 0.9925,0 2.3225,3.19625 2.32375,-3.19625 0.9975,0 0,7.49"
       inkscape:connector-curvature="0" />
    <path
       id="path4333"
       style="fill:#231f20;fill-opacity:1;fill-rule:nonzero;stroke:none"
       d="m 453.00847,440.63265 -1.97625,0 0,-0.92375 4.90125,0 0,0.92375 -1.98,0 0,6.56375 -0.945,0"
       inkscape:connector-curvature="0" />
    <path
       id="path4337"
       style="fill:#231f20;fill-opacity:1;fill-rule:nonzero;stroke:none"
       d="m 460.03223,437.8464 0.7125,0 -0.87125,1.125 -0.37875,0 0.5375,-1.125 z m -2.8425,1.8625 4.73125,0 0,0.9025 -3.7825,0 0,1.7575 3.30125,0 0,0.9375 -3.30125,0 0,2.96375 3.6875,0 0,0.92625 -4.63625,0"
       inkscape:connector-curvature="0" />
    <path
       inkscape:connector-curvature="0"
       d="m 292.36473,419.7989 90.50625,0 0,-0.42504 -90.50625,0 0,0.42504 z"
       style="fill:#231f20;fill-opacity:1;fill-rule:nonzero;stroke:none"
       id="path4339" />
    <path
       id="path4343"
       style="fill:#231f20;fill-opacity:1;fill-rule:nonzero;stroke:none"
       d="m 315.21973,389.84765 0,14.065 c 0,4.67875 -3.8025,8.45125 -8.4775,8.45125 -4.6475,0 -8.45125,-3.7725 -8.45125,-8.45125 l 0,-14.065 2.77625,0 0,14.065 c 0,3.1475 2.55375,5.73625 5.675,5.73625 3.14625,0 5.67375,-2.58875 5.67375,-5.73625 l 0,-14.065"
       inkscape:connector-curvature="0" />
    <path
       id="path4347"
       style="fill:#231f20;fill-opacity:1;fill-rule:nonzero;stroke:none"
       d="m 329.02973,409.3414 c 2.43375,-0.0662 4.395,-2.12375 4.395,-4.5225 0,-2.4325 -1.96125,-4.42625 -4.395,-4.46 l -6.82625,0 0,8.9825 6.82625,0 z m -1.6225,-11.6925 c 1.37375,-0.0337 2.4975,-1.15625 2.4975,-2.525 0,-1.37625 -1.09,-2.4975 -2.4975,-2.55625 l -5.20375,0 0,5.08125 5.20375,0 z m -7.98,-7.80125 7.98,0 c 1.4075,0 2.745,0.5675 3.71125,1.5625 0.99375,0.965 1.5575,2.3075 1.5575,3.71375 0,1.08625 -0.31125,2.11625 -0.93625,2.98875 l -0.0275,0.035 0.0275,0.0288 c 0.87625,0.34375 1.685,0.87625 2.33875,1.555 1.37375,1.34625 2.1225,3.1525 2.1225,5.0875 0,1.90125 -0.74875,3.70875 -2.1225,5.0825 -1.3425,1.34 -3.14375,2.1525 -5.04875,2.1525 l -9.6025,0"
       inkscape:connector-curvature="0" />
    <path
       id="path4351"
       style="fill:#231f20;fill-opacity:1;fill-rule:nonzero;stroke:none"
       d="m 339.22597,389.84765 14.03,0 0,2.71875 -11.2275,0 0,5.2 6.17625,0 0,2.7475 -6.17625,0 0,11.53875 -2.8025,0"
       inkscape:connector-curvature="0" />
    <path
       id="path4355"
       style="fill:#231f20;fill-opacity:1;fill-rule:nonzero;stroke:none"
       d="m 372.51723,406.12515 2.1825,1.62375 c -2.2125,2.965 -5.61125,4.645 -9.26125,4.645 -6.42125,0 -11.62875,-5.205 -11.62875,-11.6325 0,-6.38625 5.2075,-11.59625 11.62875,-11.59625 3.68125,0 7.07875,1.71625 9.29375,4.67625 l -2.215,1.6225 c -1.6875,-2.275 -4.27125,-3.55125 -7.07875,-3.55125 -4.92375,0 -8.88375,3.96 -8.88375,8.84875 0,4.92875 3.96,8.88875 8.88375,8.88875 2.7775,0 5.3625,-1.28125 7.07875,-3.525"
       inkscape:connector-curvature="0" />
    <path
       id="path4359"
       style="fill:#0071bc;fill-opacity:1;fill-rule:nonzero;stroke:none"
       d="m 401.20473,411.69265 c -6.5575,-4.94 -12.455,-9.645 -18.92875,-9.905 l 0.002,0 c -0.76375,-0.0338 -1.355,-0.68375 -1.32,-1.44625 0.035,-0.765 0.68375,-1.355 1.4475,-1.32 7.76125,0.39875 13.96125,5.62875 20.45625,10.45625 6.5075,4.8775 13.22375,9.4175 21.7125,9.41125 8.61875,0.006 19.53875,-4.67625 34.365,-19.41625 0.5425,-0.5375 1.41625,-0.535 1.955,0.006 0.5375,0.54125 0.535,1.41625 -0.005,1.955 -15.0575,14.97875 -26.61875,20.2125 -36.315,20.22 -9.545,-0.007 -16.82875,-5.07125 -23.37,-9.96125"
       inkscape:connector-curvature="0" />
    <path
       id="path4363"
       style="fill:#0095da;fill-opacity:1;fill-rule:nonzero;stroke:none"
       d="m 452.35472,404.1164 c -8.23125,-0.0812 -14.9775,-6.805 -21.8275,-13.12 -6.83375,-6.41 -13.71375,-12.4375 -21.05375,-12.3775 -6.98875,-0.035 -15.45625,5.31375 -25.96125,22.52 l 0,0.003 c -0.39625,0.65125 -1.25125,0.85625 -1.90375,0.4575 -0.65,-0.39625 -0.85625,-1.2525 -0.45625,-1.90375 10.6475,-17.44 19.745,-23.81 28.32125,-23.8425 8.9,0.0588 16.0825,6.77875 22.93875,13.12 6.84,6.4325 13.41375,12.45875 19.9425,12.3775 2.1725,-0.003 4.40625,-0.60625 6.855,-2.10375 0.65,-0.4 1.5025,-0.1975 1.9025,0.45125 0.39875,0.6525 0.19625,1.505 -0.455,1.90375 -2.80125,1.72875 -5.5875,2.515 -8.2875,2.515"
       inkscape:connector-curvature="0" />
    <path
       id="path4367"
       style="fill:#b41e8e;fill-opacity:1;fill-rule:nonzero;stroke:none"
       d="m 443.44348,427.1664 c -4.06125,-0.0438 -7.6375,-2.80625 -11.18375,-6.54 -3.54625,-3.7675 -7.08,-8.68 -10.71125,-13.5525 -7.20375,-9.81875 -15.005,-19.14875 -22.3775,-18.98125 -4.53875,-0.0175 -9.76375,3.26125 -15.6425,13.025 -0.395,0.655 -1.24625,0.8675 -1.90125,0.4725 -0.65375,-0.39375 -0.865,-1.245 -0.4725,-1.9 6.04125,-10.06 11.9825,-14.34375 18.01625,-14.36375 7.23125,0.075 13.3025,5.96375 19.01625,12.86875 5.695,6.9525 11.045,15.19 16.0875,20.53375 3.355,3.5925 6.5375,5.7125 9.16875,5.66875 2.145,-0.002 4.45625,-1.23875 7.09125,-5.04875 2.60375,-3.79125 5.32,-10.01875 8.06,-19.29625 0.215,-0.7325 0.98125,-1.15375 1.715,-0.93625 0.7325,0.2175 1.15125,0.985 0.9375,1.7175 -2.79125,9.435 -5.555,15.8725 -8.43,20.0775 -2.84,4.17875 -6.00125,6.255 -9.36625,6.255"
       inkscape:connector-curvature="0" />
    <path
       id="path4371"
       style="fill:#54666f;fill-opacity:1;fill-rule:nonzero;stroke:none"
       d="m 409.33348,404.73015 c -6.14375,-4.425 -11.3275,-8.50125 -16.24125,-8.4375 -2.91125,0.009 -6.0075,1.2775 -9.75125,5.08125 -0.53625,0.54375 -1.41125,0.5525 -1.95625,0.0175 -0.5475,-0.53625 -0.5575,-1.41125 -0.0213,-1.95625 4.02625,-4.12625 7.92375,-5.9175 11.72875,-5.90875 6.41625,0.0637 11.78,4.6825 17.84625,8.9475 6.0675,4.325 12.705,8.43875 21.20625,8.43375 7.16875,0 15.8675,-2.9075 26.9175,-11.5525 0.6,-0.47125 1.46875,-0.3675 1.94125,0.23375 0.47,0.60375 0.36375,1.4725 -0.23375,1.945 -11.345,8.88625 -20.67,12.14375 -28.625,12.14375 -9.44875,-0.003 -16.675,-4.57875 -22.81125,-8.9475"
       inkscape:connector-curvature="0" />
    <path
       id="path4383"
       style="fill:#f7931d;fill-opacity:1;fill-rule:nonzero;stroke:none"
       d="m 408.83098,419.76515 c -4.41375,-5.8975 -8.085,-12.83625 -11.7975,-17.275 -2.48375,-2.98875 -4.855,-4.66625 -7.175,-4.63625 -1.765,-0.004 -3.89375,0.9025 -6.54,3.5425 l 0.002,0 c -0.5425,0.54 -1.41875,0.54 -1.9575,0 -0.54125,-0.54 -0.54125,-1.4175 0,-1.95625 2.9125,-2.92 5.72,-4.35375 8.495,-4.35625 3.69875,0.0287 6.645,2.45875 9.3025,5.63375 2.67,3.21 5.15625,7.345 7.8,11.43375 5.2825,8.25125 11.13,15.895 18.91,15.8 7.395,0.08 18.01125,-6.81 32.92625,-28.3 0.4375,-0.62625 1.2975,-0.7825 1.92625,-0.345 0.62625,0.435 0.78125,1.29875 0.345,1.9275 -15.09875,21.64125 -26.015,29.405 -35.1975,29.485 -7.30375,-0.025 -12.63625,-5.09125 -17.04,-10.95375"
       inkscape:connector-curvature="0" />
    <path
       id="path4387"
       style="fill:#a6ce39;fill-opacity:1;fill-rule:nonzero;stroke:none"
       d="m 447.27598,407.57265 c -10.2475,-0.0825 -19.5925,-8.6825 -28.22125,-16.9425 -8.525,-8.35625 -16.6175,-16.35375 -22.12125,-16.165 -2.45,0.0238 -4.69875,1.2775 -7.06125,5.33 -2.315,4.0375 -4.43375,10.74625 -6.1675,20.8325 -0.13,0.75375 -0.84375,1.25875 -1.5975,1.13 -0.75375,-0.13 -1.26125,-0.84625 -1.13125,-1.6 1.775,-10.25375 3.91125,-17.2 6.495,-21.735 2.54,-4.51625 5.83375,-6.75 9.4625,-6.72375 7.73375,0.18625 15.40625,8.7425 24.0425,16.94 8.5325,8.295 17.74125,16.24875 26.3,16.16625 3.84125,-0.0125 7.67875,-1.47 11.71375,-5.34625 0.55125,-0.5325 1.4275,-0.5175 1.96,0.0325 0.52875,0.55 0.51125,1.425 -0.0362,1.95875 -4.38875,4.25375 -9.01625,6.1225 -13.595,6.1225"
       inkscape:connector-curvature="0" />
  </g>
</svg>
