<?xml version="1.0" encoding="UTF-8" standalone="no"?>
<!-- Created with Inkscape (http://www.inkscape.org/) -->

<svg
   xmlns:dc="http://purl.org/dc/elements/1.1/"
   xmlns:cc="http://creativecommons.org/ns#"
   xmlns:rdf="http://www.w3.org/1999/02/22-rdf-syntax-ns#"
   xmlns:svg="http://www.w3.org/2000/svg"
   xmlns="http://www.w3.org/2000/svg"
   xmlns:sodipodi="http://sodipodi.sourceforge.net/DTD/sodipodi-0.dtd"
   xmlns:inkscape="http://www.inkscape.org/namespaces/inkscape"
   width="973.80377"
   height="850.7063"
   id="svg2"
   version="1.1"
   inkscape:version="0.48.3.1 r9886"
   sodipodi:docname="scheduling.svg">
  <defs
     id="defs4">
    <marker
       inkscape:stockid="Arrow1Mend"
       orient="auto"
       refY="0"
       refX="0"
       id="Arrow1Mend"
       style="overflow:visible">
      <path
         id="path4279"
         d="M 0,0 5,-5 -12.5,0 5,5 0,0 z"
         style="fill-rule:evenodd;stroke:#000000;stroke-width:1pt"
         transform="matrix(-0.4,0,0,-0.4,-4,0)"
         inkscape:connector-curvature="0" />
    </marker>
    <marker
       inkscape:stockid="Arrow1Mstart"
       orient="auto"
       refY="0"
       refX="0"
       id="Arrow1Mstart"
       style="overflow:visible">
      <path
         id="path4129"
         d="M 0,0 5,-5 -12.5,0 5,5 0,0 z"
         style="fill-rule:evenodd;stroke:#000000;stroke-width:1pt"
         transform="matrix(0.4,0,0,0.4,4,0)"
         inkscape:connector-curvature="0" />
    </marker>
    <marker
       inkscape:stockid="Arrow1Lend"
       orient="auto"
       refY="0"
       refX="0"
       id="Arrow1Lend"
       style="overflow:visible">
      <path
         id="path3811"
         d="M 0,0 5,-5 -12.5,0 5,5 0,0 z"
         style="fill-rule:evenodd;stroke:#000000;stroke-width:1pt"
         transform="matrix(-0.8,0,0,-0.8,-10,0)"
         inkscape:connector-curvature="0" />
    </marker>
    <marker
       inkscape:stockid="Arrow1Lstart"
       orient="auto"
       refY="0"
       refX="0"
       id="Arrow1Lstart"
       style="overflow:visible">
      <path
         id="path3808"
         d="M 0,0 5,-5 -12.5,0 5,5 0,0 z"
         style="fill-rule:evenodd;stroke:#000000;stroke-width:1pt"
         transform="matrix(0.8,0,0,0.8,10,0)"
         inkscape:connector-curvature="0" />
    </marker>
    <marker
       inkscape:stockid="Arrow1Lstart"
       orient="auto"
       refY="0"
       refX="0"
       id="Arrow1Lstart-0"
       style="overflow:visible">
      <path
         inkscape:connector-curvature="0"
         id="path3808-2"
         d="M 0,0 5,-5 -12.5,0 5,5 0,0 z"
         style="fill-rule:evenodd;stroke:#000000;stroke-width:1pt"
         transform="matrix(0.8,0,0,0.8,10,0)" />
    </marker>
    <marker
       inkscape:stockid="Arrow1Lend"
       orient="auto"
       refY="0"
       refX="0"
       id="Arrow1Lend-5"
       style="overflow:visible">
      <path
         inkscape:connector-curvature="0"
         id="path3811-7"
         d="M 0,0 5,-5 -12.5,0 5,5 0,0 z"
         style="fill-rule:evenodd;stroke:#000000;stroke-width:1pt"
         transform="matrix(-0.8,0,0,-0.8,-10,0)" />
    </marker>
    <marker
       inkscape:stockid="Arrow1Lstart"
       orient="auto"
       refY="0"
       refX="0"
       id="Arrow1Lstart-3"
       style="overflow:visible">
      <path
         inkscape:connector-curvature="0"
         id="path3808-7"
         d="M 0,0 5,-5 -12.5,0 5,5 0,0 z"
         style="fill-rule:evenodd;stroke:#000000;stroke-width:1pt"
         transform="matrix(0.8,0,0,0.8,10,0)" />
    </marker>
    <marker
       inkscape:stockid="Arrow1Lstart"
       orient="auto"
       refY="0"
       refX="0"
       id="Arrow1Lstart-7"
       style="overflow:visible">
      <path
         id="path3808-8"
         d="M 0,0 5,-5 -12.5,0 5,5 0,0 z"
         style="fill-rule:evenodd;stroke:#000000;stroke-width:1pt"
         transform="matrix(0.8,0,0,0.8,10,0)"
         inkscape:connector-curvature="0" />
    </marker>
    <marker
       inkscape:stockid="Arrow1Lstart"
       orient="auto"
       refY="0"
       refX="0"
       id="Arrow1Lstart-6"
       style="overflow:visible">
      <path
         id="path3808-3"
         d="M 0,0 5,-5 -12.5,0 5,5 0,0 z"
         style="fill-rule:evenodd;stroke:#000000;stroke-width:1pt"
         transform="matrix(0.8,0,0,0.8,10,0)"
         inkscape:connector-curvature="0" />
    </marker>
    <marker
       inkscape:stockid="Arrow1Mstart"
       orient="auto"
       refY="0"
       refX="0"
       id="Arrow1Mstart-3"
       style="overflow:visible">
      <path
         inkscape:connector-curvature="0"
         id="path4129-9"
         d="M 0,0 5,-5 -12.5,0 5,5 0,0 z"
         style="fill-rule:evenodd;stroke:#000000;stroke-width:1pt"
         transform="matrix(0.4,0,0,0.4,4,0)" />
    </marker>
    <marker
       inkscape:stockid="Arrow1Mstart"
       orient="auto"
       refY="0"
       refX="0"
       id="Arrow1Mstart-1"
       style="overflow:visible">
      <path
         inkscape:connector-curvature="0"
         id="path4129-91"
         d="M 0,0 5,-5 -12.5,0 5,5 0,0 z"
         style="fill-rule:evenodd;stroke:#000000;stroke-width:1pt"
         transform="matrix(0.4,0,0,0.4,4,0)" />
    </marker>
    <marker
       inkscape:stockid="Arrow1Mstart"
       orient="auto"
       refY="0"
       refX="0"
       id="Arrow1Mstart-7"
       style="overflow:visible">
      <path
         id="path4129-8"
         d="M 0,0 5,-5 -12.5,0 5,5 0,0 z"
         style="fill-rule:evenodd;stroke:#000000;stroke-width:1pt"
         transform="matrix(0.4,0,0,0.4,4,0)"
         inkscape:connector-curvature="0" />
    </marker>
    <marker
       inkscape:stockid="Arrow1Mstart"
       orient="auto"
       refY="0"
       refX="0"
       id="Arrow1Mstart-0"
       style="overflow:visible">
      <path
         id="path4129-82"
         d="M 0,0 5,-5 -12.5,0 5,5 0,0 z"
         style="fill-rule:evenodd;stroke:#000000;stroke-width:1pt"
         transform="matrix(0.4,0,0,0.4,4,0)"
         inkscape:connector-curvature="0" />
    </marker>
    <marker
       inkscape:stockid="Arrow1Mstart"
       orient="auto"
       refY="0"
       refX="0"
       id="Arrow1Mstart-6"
       style="overflow:visible">
      <path
         id="path4129-5"
         d="M 0,0 5,-5 -12.5,0 5,5 0,0 z"
         style="fill-rule:evenodd;stroke:#000000;stroke-width:1pt"
         transform="matrix(0.4,0,0,0.4,4,0)"
         inkscape:connector-curvature="0" />
    </marker>
    <marker
       inkscape:stockid="Arrow1Mstart"
       orient="auto"
       refY="0"
       refX="0"
       id="Arrow1Mstart-8"
       style="overflow:visible">
      <path
         id="path4129-4"
         d="M 0,0 5,-5 -12.5,0 5,5 0,0 z"
         style="fill-rule:evenodd;stroke:#000000;stroke-width:1pt"
         transform="matrix(0.4,0,0,0.4,4,0)"
         inkscape:connector-curvature="0" />
    </marker>
  </defs>
  <sodipodi:namedview
     id="base"
     pagecolor="#ffffff"
     bordercolor="#666666"
     borderopacity="1.0"
     inkscape:pageopacity="0.0"
     inkscape:pageshadow="2"
     inkscape:zoom="0.49497475"
     inkscape:cx="386.5002"
     inkscape:cy="381.95607"
     inkscape:document-units="px"
     inkscape:current-layer="layer1"
     showgrid="false"
     fit-margin-top="0"
     fit-margin-left="0"
     fit-margin-right="0"
     fit-margin-bottom="0"
     inkscape:window-width="1440"
     inkscape:window-height="876"
     inkscape:window-x="0"
     inkscape:window-y="24"
     inkscape:window-maximized="1"
     showguides="true"
     inkscape:guide-bbox="true" />
  <metadata
     id="metadata7">
    <rdf:RDF>
      <cc:Work
         rdf:about="">
        <dc:format>image/svg+xml</dc:format>
        <dc:type
           rdf:resource="http://purl.org/dc/dcmitype/StillImage" />
        <dc:title />
      </cc:Work>
    </rdf:RDF>
  </metadata>
  <g
     inkscape:label="Calque 1"
     inkscape:groupmode="layer"
     id="layer1"
     transform="translate(853.5141,-198.93933)">
    <path
       style="fill:#a20d59;fill-opacity:1;stroke:#000000;stroke-width:2;stroke-linecap:round;stroke-linejoin:round;stroke-miterlimit:4;stroke-opacity:1;stroke-dasharray:none;stroke-dashoffset:0"
       d="M -608.28125,202.28125 C -745.60323,243.09938 -845.8742,370.00782 -846.5,520.4375 l 90.9375,0 c 0.61551,-107.97418 71.80576,-199.2379 169.78125,-229.96875 z"
       transform="translate(127.01742,118.69489)"
       id="path3093-2-0-3"
       inkscape:connector-curvature="0"
       sodipodi:nodetypes="ccccc" />
    <path
       style="fill:#a20d59;fill-opacity:1;stroke:#000000;stroke-width:2;stroke-linecap:round;stroke-linejoin:round;stroke-miterlimit:4;stroke-opacity:1;stroke-dasharray:none;stroke-dashoffset:0"
       d="m -270.71875,520.4375 90.90625,0 c -0.59813,-143.77704 -92.2195,-266.07541 -220.21875,-312.25 l -33.40625,84.5 c 54.91301,19.19165 93.78675,52.8072 118.85623,88.71031 25.24594,36.15583 38.82627,69.39037 43.86252,139.03969 z"
       transform="translate(127.01742,118.69489)"
       id="path3093-2-0"
       inkscape:connector-curvature="0"
       sodipodi:nodetypes="ccccsc" />
    <g
       id="g4259"
       transform="translate(-4.59499,0)">
      <path
         transform="translate(127.01742,118.69489)"
         sodipodi:nodetypes="ccccc"
         inkscape:connector-curvature="0"
         id="path3093-2-4"
         d="m -266.125,520.6875 c -0.17745,31.13542 -6.22775,60.88265 -17.09375,88.1875 l 85.625,30.625 c 14.27177,-36.8875 22.20075,-76.92871 22.375,-118.8125 z"
         style="fill:#2a5879;fill-opacity:1;stroke:#000000;stroke-width:2;stroke-linecap:round;stroke-linejoin:round;stroke-miterlimit:4;stroke-opacity:1;stroke-dasharray:none;stroke-dashoffset:0" />
      <path
         transform="translate(127.01742,118.69489)"
         id="path3093-2-8"
         d="m -283.25,608.875 c -11.44264,28.73299 -28.20333,54.76981 -49.09375,76.875 l 69.21875,59.09375 c 27.98377,-30.43449 50.37921,-66.0979 65.5625,-105.34375 L -283.25,608.875 z"
         style="fill:#4d91c1;fill-opacity:1;stroke:#000000;stroke-width:2;stroke-linecap:round;stroke-linejoin:round;stroke-miterlimit:4;stroke-opacity:1;stroke-dasharray:none;stroke-dashoffset:0"
         inkscape:connector-curvature="0" />
      <path
         transform="translate(127.01742,118.69489)"
         id="path3093-2"
         d="m -332.34375,685.75 c -44.19796,46.76805 -106.79358,75.96875 -176.21875,75.96875 -57.83792,0 -110.95917,-20.25947 -152.625,-54.0625 l -63.15625,65.6875 c 58.14945,49.43365 133.47926,79.28125 215.78125,79.28125 97.10808,0 184.51292,-41.52111 245.4375,-107.78125 L -332.34375,685.75 z"
         style="fill:#7bbeff;fill-opacity:1;stroke:#000000;stroke-width:2;stroke-linecap:round;stroke-linejoin:round;stroke-miterlimit:4;stroke-opacity:1;stroke-dasharray:none;stroke-dashoffset:0"
         inkscape:connector-curvature="0" />
      <path
         transform="translate(127.01742,118.69489)"
         id="path3093-2-7"
         d="m -841.90625,520.6875 c 0.42112,101.23095 45.9691,191.7937 117.5625,252.65625 l 63.15625,-65.6875 c -54.45091,-44.17541 -89.35095,-111.48463 -89.78125,-186.96875 l -90.9375,0 z"
         style="fill:#edf6ff;fill-opacity:1;stroke:#000000;stroke-width:2;stroke-linecap:round;stroke-linejoin:round;stroke-miterlimit:4;stroke-opacity:1;stroke-dasharray:none;stroke-dashoffset:0"
         inkscape:connector-curvature="0" />
    </g>
    <path
       style="fill:none;stroke:#000000;stroke-width:5;stroke-linecap:butt;stroke-linejoin:miter;stroke-miterlimit:4;stroke-opacity:1;stroke-dasharray:none"
       d="m -739.69346,639.90013 707.10678,0"
       id="path4265"
       inkscape:connector-curvature="0" />
    <text
       xml:space="preserve"
       style="font-size:16px;font-style:normal;font-variant:normal;font-weight:normal;font-stretch:normal;line-height:125%;letter-spacing:0px;word-spacing:0px;fill:#000000;fill-opacity:1;stroke:none;font-family:Arial;-inkscape-font-specification:Arial"
       x="-382.75214"
       y="557.51495"
       id="text4267"
       sodipodi:linespacing="125%"><tspan
         sodipodi:role="line"
         id="tspan4269"
         x="-382.75214"
         y="557.51495"
         style="font-size:40px;font-weight:bold;text-align:center;text-anchor:middle;-inkscape-font-specification:Arial Bold">Agent Scheduling</tspan></text>
    <text
       xml:space="preserve"
       style="font-size:16px;font-style:normal;font-variant:normal;font-weight:normal;font-stretch:normal;line-height:125%;letter-spacing:0px;word-spacing:0px;fill:#000000;fill-opacity:1;stroke:none;font-family:Arial;-inkscape-font-specification:Arial"
       x="-383.2326"
       y="722.87274"
       id="text4267-3"
       sodipodi:linespacing="125%"><tspan
         sodipodi:role="line"
         id="tspan4269-9"
         x="-383.2326"
         y="722.87274"
         style="font-size:40px;font-weight:bold;text-align:center;text-anchor:middle;-inkscape-font-specification:Arial Bold">Environment</tspan><tspan
         sodipodi:role="line"
         x="-383.2326"
         y="772.87274"
         style="font-size:40px;font-weight:bold;text-align:center;text-anchor:middle;-inkscape-font-specification:Arial Bold"
         id="tspan4292">Scheduling</tspan></text>
    <path
       style="fill:#f363ae;fill-opacity:1;stroke:#000000;stroke-width:2;stroke-linecap:round;stroke-linejoin:round;stroke-miterlimit:4;stroke-opacity:1;stroke-dasharray:none;stroke-dashoffset:0"
       d="m -553.44772,129.1995 c -20.55217,2.16696 -52.33022,6.89324 -71.59822,12.62053 l 39.26469,148.64872 c 14.41868,-4.52254 29.40625,-7.7408 44.84375,-9.5 z"
       transform="translate(127.01742,118.69489)"
       id="path3093-2-0-2"
       inkscape:connector-curvature="0"
       sodipodi:nodetypes="ccccc" />
    <path
       inkscape:connector-curvature="0"
       style="fill:#f363ae;fill-opacity:1;stroke:#000000;stroke-width:2;stroke-linecap:round;stroke-linejoin:round;stroke-miterlimit:4;stroke-opacity:1;stroke-dasharray:none;stroke-dashoffset:0"
       d="m -251.22784,272.2038 c -19.38326,-9.31061 -46.83508,-16.38373 -66.64541,-19.79083 l -32.95549,147.61686 c 14.92943,2.33745 29.79066,6.09621 44.40844,11.3623 z"
       id="path3093-2-0-2-5"
       sodipodi:nodetypes="ccccc" />
    <path
       inkscape:connector-curvature="0"
       style="fill:#fcdced;fill-opacity:1;stroke:#000000;stroke-width:2;stroke-linecap:round;stroke-linejoin:round;stroke-miterlimit:4;stroke-opacity:1;stroke-dasharray:none;stroke-dashoffset:0"
       d="m -391.13883,245.76632 c -11.92748,0 -23.70998,0.77794 -35.3125,2.00127 l 12.53125,151.89605 c 29.96704,-2.27376 34.60474,-1.81032 63.09375,0.375 28.42814,-133.91024 33.06696,-147.75446 33.06696,-147.75446 -17.6097,-2.87428 -54.957,-6.51786 -73.37946,-6.51786 z"
       id="path3093-2-0-5"
       sodipodi:nodetypes="sccccs" />
    <text
       xml:space="preserve"
       style="font-size:28px;font-style:normal;font-variant:normal;font-weight:normal;font-stretch:normal;text-align:end;line-height:125%;letter-spacing:0px;word-spacing:0px;text-anchor:end;fill:#000000;fill-opacity:1;stroke:none;font-family:Arial;-inkscape-font-specification:Arial"
       x="-721.68988"
       y="756.86633"
       id="text4485"
       sodipodi:linespacing="125%"><tspan
         sodipodi:role="line"
         id="tspan4487"
         x="-721.68988"
         y="756.86633">Perception</tspan><tspan
         sodipodi:role="line"
         x="-721.68988"
         y="791.86633"
         id="tspan4489">generation</tspan></text>
    <text
       xml:space="preserve"
       style="font-size:28px;font-style:normal;font-variant:normal;font-weight:normal;font-stretch:normal;text-align:center;line-height:125%;letter-spacing:0px;word-spacing:0px;text-anchor:middle;fill:#000000;fill-opacity:1;stroke:none;font-family:Arial;-inkscape-font-specification:Arial"
       x="-354.29568"
       y="1009.0812"
       id="text4485-5"
       sodipodi:linespacing="125%"><tspan
         sodipodi:role="line"
         x="-354.29568"
         y="1009.0812"
         id="tspan4489-7">Environment reaction computation</tspan><tspan
         sodipodi:role="line"
         x="-354.29568"
         y="1044.0812"
         id="tspan4517">Update environmental state</tspan></text>
    <text
       xml:space="preserve"
       style="font-size:28px;font-style:normal;font-variant:normal;font-weight:normal;font-stretch:normal;text-align:start;line-height:125%;letter-spacing:0px;word-spacing:0px;text-anchor:start;fill:#000000;fill-opacity:1;stroke:none;font-family:Arial;-inkscape-font-specification:Arial"
       x="-71.343025"
       y="817.15222"
       id="text4485-8"
       sodipodi:linespacing="125%"><tspan
         sodipodi:role="line"
         x="-71.343025"
         y="817.15222"
         id="tspan4489-2">Influence</tspan><tspan
         sodipodi:role="line"
         x="-71.343025"
         y="852.15222"
         id="tspan4536">collection</tspan></text>
    <text
       xml:space="preserve"
       style="font-size:28px;font-style:normal;font-variant:normal;font-weight:normal;font-stretch:normal;text-align:start;line-height:125%;letter-spacing:0px;word-spacing:0px;text-anchor:start;fill:#000000;fill-opacity:1;stroke:none;font-family:Arial;-inkscape-font-specification:Arial"
       x="-36.020878"
       y="684.74493"
       id="text4485-8-8"
       sodipodi:linespacing="125%"><tspan
         sodipodi:role="line"
         x="-36.020878"
         y="684.74493"
         id="tspan4536-2">Endogenous</tspan><tspan
         sodipodi:role="line"
         x="-36.020878"
         y="719.74493"
         id="tspan4564">dynamics</tspan></text>
    <path
       style="fill:none;stroke:#000000;stroke-width:2;stroke-linecap:butt;stroke-linejoin:miter;stroke-miterlimit:4;stroke-opacity:1;stroke-dasharray:none;marker-start:url(#Arrow1Mstart-8);marker-end:url(#Arrow1Mend)"
       d="m -630,126.78196 c 0,0 59.17257,-17.67524 129.28572,-13.92857 70.42208,3.76318 126.42857,21.78571 126.42857,21.78571"
       id="path4566"
       inkscape:connector-curvature="0"
       transform="translate(127.01742,118.69489)"
       sodipodi:nodetypes="csc" />
    <text
       xml:space="preserve"
       style="font-size:28px;font-style:normal;font-variant:normal;font-weight:normal;font-stretch:normal;text-align:center;line-height:125%;letter-spacing:0px;word-spacing:0px;text-anchor:middle;fill:#000000;fill-opacity:1;stroke:none;font-family:Arial;-inkscape-font-specification:Arial"
       x="-379.83972"
       y="219.33777"
       id="text4485-8-8-8"
       sodipodi:linespacing="125%"><tspan
         sodipodi:role="line"
         x="-379.83972"
         y="219.33777"
         id="tspan4564-8">One agent</tspan></text>
    <text
       xml:space="preserve"
       style="font-size:24px;font-style:normal;font-variant:normal;font-weight:normal;font-stretch:normal;text-align:center;line-height:125%;letter-spacing:0px;word-spacing:0px;text-anchor:middle;fill:#ffffff;fill-opacity:1;stroke:none;font-family:Arial;-inkscape-font-specification:Arial"
       x="-241.27745"
       y="-494.4678"
       id="text4485-8-8-6"
       sodipodi:linespacing="125%"
       transform="matrix(-0.18011507,-0.98364555,0.98364555,-0.18011507,0,0)"
       inkscape:transform-center-y="8.4757754"
       inkscape:transform-center-x="0.32940843"><tspan
         sodipodi:role="line"
         x="-241.27745"
         y="-494.4678"
         id="tspan4564-3">Perception</tspan></text>
    <text
       xml:space="preserve"
       style="font-size:24px;font-style:normal;font-variant:normal;font-weight:normal;font-stretch:normal;text-align:center;line-height:125%;letter-spacing:0px;word-spacing:0px;text-anchor:middle;fill:#ffffff;fill-opacity:1;stroke:none;font-family:Arial;-inkscape-font-specification:Arial"
       x="-410.97925"
       y="-179.16621"
       id="text4485-8-8-6-8"
       sodipodi:linespacing="125%"
       transform="matrix(0.3123025,-0.94998271,0.94998271,0.3123025,0,0)"
       inkscape:transform-center-y="6.9601869"
       inkscape:transform-center-x="6.1489419"><tspan
         sodipodi:role="line"
         x="-410.97925"
         y="-179.16621"
         id="tspan4564-3-4">Influence</tspan></text>
    <text
       xml:space="preserve"
       style="font-size:24px;font-style:normal;font-variant:normal;font-weight:normal;font-stretch:normal;text-align:center;line-height:125%;letter-spacing:0px;word-spacing:0px;text-anchor:middle;fill:#000000;fill-opacity:1;stroke:none;font-family:Arial;-inkscape-font-specification:Arial"
       x="-334.82178"
       y="-359.03522"
       id="text4485-8-8-6-8-6"
       sodipodi:linespacing="125%"
       transform="matrix(0.0365476,-0.99933191,0.99933191,0.0365476,0,0)"
       inkscape:transform-center-y="7.8059297"
       inkscape:transform-center-x="4.1699774"><tspan
         sodipodi:role="line"
         x="-334.82178"
         y="-359.03522"
         id="tspan4564-3-4-8">Behavior</tspan></text>
    <path
       style="fill:none;stroke:#000000;stroke-width:3;stroke-linecap:butt;stroke-linejoin:miter;stroke-miterlimit:4;stroke-opacity:1;stroke-dasharray:6, 6;stroke-dashoffset:0;marker-start:none;marker-end:url(#Arrow1Mend)"
       d="m 105.05586,390.07674 c 0,0 -5.387475,-36.36549 12.12183,-82.83252 17.50932,-46.46702 40.40611,-70.71067 40.40611,-70.71067"
       id="path3049"
       inkscape:connector-curvature="0"
       transform="translate(-853.5141,198.93933)"
       sodipodi:nodetypes="czc" />
  </g>
</svg>
