<?xml version="1.0" encoding="UTF-8" standalone="no"?>
<!-- Created with Inkscape (http://www.inkscape.org/) -->

<svg
   xmlns:dc="http://purl.org/dc/elements/1.1/"
   xmlns:cc="http://creativecommons.org/ns#"
   xmlns:rdf="http://www.w3.org/1999/02/22-rdf-syntax-ns#"
   xmlns:svg="http://www.w3.org/2000/svg"
   xmlns="http://www.w3.org/2000/svg"
   xmlns:sodipodi="http://sodipodi.sourceforge.net/DTD/sodipodi-0.dtd"
   xmlns:inkscape="http://www.inkscape.org/namespaces/inkscape"
   width="184.39925"
   height="75.481133"
   id="svg11751"
   version="1.1"
   inkscape:version="0.48.3.1 r9886"
   sodipodi:docname="Nouveau document 15">
  <defs
     id="defs11753" />
  <sodipodi:namedview
     id="base"
     pagecolor="#ffffff"
     bordercolor="#666666"
     borderopacity="1.0"
     inkscape:pageopacity="0.0"
     inkscape:pageshadow="2"
     inkscape:zoom="0.35"
     inkscape:cx="118.6282"
     inkscape:cy="-7.9737226"
     inkscape:document-units="px"
     inkscape:current-layer="layer1"
     showgrid="false"
     fit-margin-top="0"
     fit-margin-left="0"
     fit-margin-right="0"
     fit-margin-bottom="0"
     inkscape:window-width="486"
     inkscape:window-height="383"
     inkscape:window-x="0"
     inkscape:window-y="24"
     inkscape:window-maximized="0" />
  <metadata
     id="metadata11756">
    <rdf:RDF>
      <cc:Work
         rdf:about="">
        <dc:format>image/svg+xml</dc:format>
        <dc:type
           rdf:resource="http://purl.org/dc/dcmitype/StillImage" />
        <dc:title></dc:title>
      </cc:Work>
    </rdf:RDF>
  </metadata>
  <g
     inkscape:label="Calque 1"
     inkscape:groupmode="layer"
     id="layer1"
     transform="translate(-256.3718,-448.90733)">
    <g
       id="g5283"
       transform="matrix(1.25,0,0,-1.25,335.59105,495.14409)">
      <path
         inkscape:connector-curvature="0"
         d="M 0,0 83.898,0"
         style="fill:#585e6a;fill-opacity:1;fill-rule:nonzero;stroke:#706d6e;stroke-width:0.49200001;stroke-linecap:butt;stroke-linejoin:miter;stroke-miterlimit:4;stroke-opacity:1;stroke-dasharray:none"
         id="path5285" />
    </g>
    <g
       id="g5287"
       transform="matrix(1.25,0,0,-1.25,355.41285,491.18409)">
      <path
         inkscape:connector-curvature="0"
         d="m 0,0 -2.913,0 0,2.907 c -2.474,-2.172 -4.901,-3.238 -7.684,-3.238 -3.796,0 -6.004,1.913 -6.004,5.335 l 0,14.239 3.179,0 0,-13.245 c 0,-2.761 0.972,-4.011 3.709,-4.011 2.296,0 4.415,0.956 6.534,2.908 l 0,14.348 3.179,0 L 0,0 z"
         style="fill:#585e6a;fill-opacity:1;fill-rule:nonzero;stroke:none"
         id="path5289" />
    </g>
    <g
       id="g5291"
       transform="matrix(1.25,0,0,-1.25,373.44505,491.09134)">
      <path
         inkscape:connector-curvature="0"
         d="m 0,0 c -1.016,-0.296 -2.119,-0.405 -3.4,-0.405 -3.489,0 -5.254,1.251 -5.254,3.753 l 0,13.541 -3.445,0 0,2.28 3.445,0 0,6.22 3.354,0 0,-6.22 5.255,0 0,-2.28 -5.255,0 0,-12.326 c 0,-1.952 0.355,-2.614 3.048,-2.614 0.883,0 1.545,0.148 2.252,0.295 L 0,0 z"
         style="fill:#585e6a;fill-opacity:1;fill-rule:nonzero;stroke:none"
         id="path5293" />
    </g>
    <g
       id="g5295"
       transform="matrix(1.25,0,0,-1.25,387.92865,488.83909)">
      <path
         inkscape:connector-curvature="0"
         d="m 0,0 c 3.664,0 5.96,2.649 5.96,7.506 0,5.299 -2.075,7.912 -6.314,7.912 -2.295,0 -4.238,-0.957 -5.651,-2.87 l 0,-9.604 C -4.371,0.958 -2.472,0 0,0 m -9.184,4.232 0,20.496 3.179,0 0,-9.641 c 1.413,1.729 3.312,2.612 5.872,2.612 5.917,0 9.404,-3.569 9.404,-10.045 0,-6.402 -3.399,-9.861 -9.447,-9.861 -2.694,0 -4.637,0.846 -6.094,2.649 l -0.75,-2.318 -2.472,0 c 0.221,2.098 0.308,4.158 0.308,6.108"
         style="fill:#585e6a;fill-opacity:1;fill-rule:nonzero;stroke:none"
         id="path5297" />
    </g>
    <g
       id="g5299"
       transform="matrix(1.25,0,0,-1.25,403.49995,467.13009)">
      <path
         inkscape:connector-curvature="0"
         d="m 0,0 2.959,0 0,-2.906 c 2.472,2.208 4.679,3.238 7.55,3.238 3.089,0 4.812,-1.324 5.562,-3.238 2.472,2.208 4.768,3.238 7.639,3.238 3.752,0 5.916,-1.914 5.916,-5.335 l 0,-14.24 -3.179,0 0,13.394 c 0,2.649 -0.97,3.863 -3.62,3.863 -2.34,0 -4.416,-0.957 -6.491,-2.908 l 0,-14.349 -3.046,0 0,13.319 c 0,2.687 -1.016,3.938 -3.664,3.938 -2.385,0 -4.328,-0.957 -6.447,-2.908 l 0,-14.349 -3.179,0 L 0,0 z"
         style="fill:#585e6a;fill-opacity:1;fill-rule:nonzero;stroke:none"
         id="path5301" />
    </g>
    <g
       id="g5303"
       transform="matrix(1.25,0,0,-1.25,339.99535,504.34209)">
      <path
         inkscape:connector-curvature="0"
         d="m 0,0 -0.746,0 0,0.412 -0.013,0 c -0.24,-0.294 -0.582,-0.481 -0.994,-0.481 -0.718,0 -1.03,0.506 -1.03,1.188 l 0,1.912 0.79,0 0,-1.618 c 0,-0.371 0.005,-0.871 0.511,-0.871 0.572,0 0.694,0.618 0.694,1.007 l 0,1.482 L 0,3.031 0,0 z"
         style="fill:#585e6a;fill-opacity:1;fill-rule:nonzero;stroke:none"
         id="path5305" />
    </g>
    <g
       id="g5307"
       transform="matrix(1.25,0,0,-1.25,341.54195,500.55296)">
      <path
         inkscape:connector-curvature="0"
         d="m 0,0 0.748,0 0,-0.412 0.011,0 c 0.248,0.348 0.584,0.483 0.996,0.483 0.717,0 1.029,-0.507 1.029,-1.188 l 0,-1.914 -0.788,0 0,1.619 c 0,0.37 -0.006,0.872 -0.513,0.872 -0.571,0 -0.695,-0.619 -0.695,-1.007 l 0,-1.484 L 0,-3.031 0,0 z"
         style="fill:#585e6a;fill-opacity:1;fill-rule:nonzero;stroke:none"
         id="path5309" />
    </g>
    <path
       inkscape:connector-curvature="0"
       d="m 346.58965,498.91859 0.985,0 0,0.9425 -0.985,0 0,-0.9425 z m 0,1.635 0.985,0 0,3.78875 -0.985,0 0,-3.78875 z"
       style="fill:#585e6a;fill-opacity:1;fill-rule:nonzero;stroke:none"
       id="path5311" />
    <g
       id="g5313"
       transform="matrix(1.25,0,0,-1.25,348.72335,500.55296)">
      <path
         inkscape:connector-curvature="0"
         d="m 0,0 0.848,0 0.753,-2.206 0.011,0 0.73,2.206 0.79,0 -1.119,-3.031 -0.889,0 L 0,0 z"
         style="fill:#585e6a;fill-opacity:1;fill-rule:nonzero;stroke:none"
         id="path5315" />
    </g>
    <g
       id="g5317"
       transform="matrix(1.25,0,0,-1.25,356.14035,502.07521)">
      <path
         inkscape:connector-curvature="0"
         d="M 0,0 C -0.023,0.383 -0.201,0.713 -0.642,0.713 -1.084,0.713 -1.308,0.407 -1.343,0 L 0,0 z m 0.529,-1.643 c -0.288,-0.159 -0.618,-0.24 -1.043,-0.24 -0.999,0 -1.583,0.576 -1.583,1.571 0,0.877 0.466,1.601 1.408,1.601 1.125,0 1.441,-0.771 1.441,-1.831 l -2.095,0 c 0.035,-0.487 0.377,-0.765 0.865,-0.765 0.383,0 0.713,0.143 1.007,0.306 l 0,-0.642 z"
         style="fill:#585e6a;fill-opacity:1;fill-rule:nonzero;stroke:none"
         id="path5319" />
    </g>
    <g
       id="g5321"
       transform="matrix(1.25,0,0,-1.25,358.40595,500.55296)">
      <path
         inkscape:connector-curvature="0"
         d="m 0,0 0.701,0 0,-0.688 0.012,0 c 0.035,0.282 0.358,0.759 0.83,0.759 0.076,0 0.158,0 0.24,-0.023 l 0,-0.795 c -0.07,0.041 -0.211,0.064 -0.352,0.064 -0.642,0 -0.642,-0.799 -0.642,-1.236 l 0,-1.112 L 0,-3.031 0,0 z"
         style="fill:#585e6a;fill-opacity:1;fill-rule:nonzero;stroke:none"
         id="path5323" />
    </g>
    <g
       id="g5325"
       transform="matrix(1.25,0,0,-1.25,364.02855,501.34646)">
      <path
         inkscape:connector-curvature="0"
         d="m 0,0 c -0.242,0.082 -0.418,0.13 -0.707,0.13 -0.212,0 -0.465,-0.077 -0.465,-0.336 0,-0.482 1.371,-0.177 1.371,-1.272 0,-0.706 -0.629,-0.988 -1.27,-0.988 -0.301,0 -0.607,0.052 -0.895,0.129 l 0.046,0.648 c 0.248,-0.125 0.507,-0.201 0.777,-0.201 0.202,0 0.518,0.076 0.518,0.371 0,0.594 -1.37,0.189 -1.37,1.284 0,0.653 0.57,0.941 1.188,0.941 0.371,0 0.613,-0.06 0.859,-0.112 L 0,0 z"
         style="fill:#585e6a;fill-opacity:1;fill-rule:nonzero;stroke:none"
         id="path5327" />
    </g>
    <path
       inkscape:connector-curvature="0"
       d="m 365.59465,498.91859 0.9863,0 0,0.9425 -0.9863,0 0,-0.9425 z m 0,1.635 0.9863,0 0,3.78875 -0.9863,0 0,-3.78875 z"
       style="fill:#585e6a;fill-opacity:1;fill-rule:nonzero;stroke:none"
       id="path5329" />
    <g
       id="g5331"
       transform="matrix(1.25,0,0,-1.25,368.47195,501.27321)">
      <path
         inkscape:connector-curvature="0"
         d="m 0,0 -0.583,0 0,0.576 0.583,0 0,0.607 0.788,0.253 0,-0.86 0.7,0 0,-0.576 -0.7,0 0,-1.413 c 0,-0.258 0.071,-0.5 0.371,-0.5 0.142,0 0.277,0.03 0.36,0.082 L 1.542,-2.455 C 1.377,-2.501 1.194,-2.524 0.959,-2.524 0.342,-2.524 0,-2.142 0,-1.542 L 0,0 z"
         style="fill:#585e6a;fill-opacity:1;fill-rule:nonzero;stroke:none"
         id="path5333" />
    </g>
    <g
       id="g5335"
       transform="matrix(1.25,0,0,-1.25,374.57905,504.12847)">
      <path
         inkscape:connector-curvature="0"
         d="m 0,0 c -0.288,-0.159 -0.619,-0.24 -1.042,-0.24 -1.001,0 -1.583,0.576 -1.583,1.571 0,0.877 0.464,1.601 1.405,1.601 1.125,0 1.444,-0.772 1.444,-1.831 l -2.097,0 c 0.036,-0.488 0.377,-0.765 0.866,-0.765 0.382,0 0.713,0.143 1.007,0.306 L 0,0 z m -0.53,1.643 c -0.024,0.382 -0.2,0.712 -0.642,0.712 -0.44,0 -0.665,-0.305 -0.701,-0.712 l 1.343,0 z m -0.618,2.489 0.807,0 -0.807,-0.86 -0.49,0 0.49,0.86 z"
         style="fill:#585e6a;fill-opacity:1;fill-rule:nonzero;stroke:none"
         id="path5337" />
    </g>
    <g
       id="g5339"
       transform="matrix(1.25,0,0,-1.25,380.35415,503.66459)">
      <path
         inkscape:connector-curvature="0"
         d="m 0,0 c 0.524,0 0.695,0.554 0.695,0.983 0,0.423 -0.201,0.966 -0.707,0.966 -0.511,0 -0.653,-0.56 -0.653,-0.966 C -0.665,0.565 -0.518,0 0,0 m 0.725,-0.2 -0.013,0 c -0.234,-0.294 -0.559,-0.411 -0.93,-0.411 -0.929,0 -1.271,0.763 -1.271,1.594 0,0.835 0.342,1.578 1.271,1.578 0.395,0 0.671,-0.136 0.906,-0.424 l 0.012,0 0,1.736 0.789,0 0,-4.415 -0.764,0 0,0.342 z"
         style="fill:#585e6a;fill-opacity:1;fill-rule:nonzero;stroke:none"
         id="path5341" />
    </g>
    <g
       id="g5343"
       transform="matrix(1.25,0,0,-1.25,386.13665,502.07521)">
      <path
         inkscape:connector-curvature="0"
         d="M 0,0 C -0.023,0.383 -0.199,0.713 -0.642,0.713 -1.083,0.713 -1.306,0.407 -1.342,0 L 0,0 z m 0.53,-1.643 c -0.288,-0.159 -0.618,-0.24 -1.041,-0.24 -1.001,0 -1.585,0.576 -1.585,1.571 0,0.877 0.466,1.601 1.408,1.601 1.125,0 1.442,-0.771 1.442,-1.831 l -2.096,0 c 0.036,-0.487 0.378,-0.765 0.866,-0.765 0.382,0 0.712,0.143 1.006,0.306 l 0,-0.642 z"
         style="fill:#585e6a;fill-opacity:1;fill-rule:nonzero;stroke:none"
         id="path5345" />
    </g>
    <g
       id="g5347"
       transform="matrix(1.25,0,0,-1.25,391.27945,501.27321)">
      <path
         inkscape:connector-curvature="0"
         d="m 0,0 -0.582,0 0,0.576 0.582,0 0,0.607 0.79,0.253 0,-0.86 0.7,0 0,-0.576 -0.7,0 0,-1.413 c 0,-0.258 0.07,-0.5 0.37,-0.5 0.141,0 0.277,0.03 0.36,0.082 L 1.544,-2.455 C 1.378,-2.501 1.196,-2.524 0.961,-2.524 0.342,-2.524 0,-2.142 0,-1.542 L 0,0 z"
         style="fill:#585e6a;fill-opacity:1;fill-rule:nonzero;stroke:none"
         id="path5349" />
    </g>
    <g
       id="g5351"
       transform="matrix(1.25,0,0,-1.25,396.72505,502.07521)">
      <path
         inkscape:connector-curvature="0"
         d="M 0,0 C -0.023,0.383 -0.199,0.713 -0.641,0.713 -1.083,0.713 -1.307,0.407 -1.342,0 L 0,0 z m 0.53,-1.643 c -0.289,-0.159 -0.618,-0.24 -1.042,-0.24 -1,0 -1.584,0.576 -1.584,1.571 0,0.877 0.466,1.601 1.408,1.601 1.125,0 1.443,-0.771 1.443,-1.831 l -2.097,0 c 0.035,-0.487 0.377,-0.765 0.866,-0.765 0.381,0 0.711,0.143 1.006,0.306 l 0,-0.642 z"
         style="fill:#585e6a;fill-opacity:1;fill-rule:nonzero;stroke:none"
         id="path5353" />
    </g>
    <g
       id="g5355"
       transform="matrix(1.25,0,0,-1.25,401.42845,501.36847)">
      <path
         inkscape:connector-curvature="0"
         d="m 0,0 c -0.142,0.064 -0.295,0.112 -0.536,0.112 -0.488,0 -0.801,-0.389 -0.801,-0.96 0,-0.559 0.266,-0.989 0.818,-0.989 0.224,0 0.472,0.082 0.607,0.141 L 0.123,-2.35 c -0.229,-0.069 -0.465,-0.098 -0.788,-0.098 -0.995,0 -1.495,0.677 -1.495,1.6 0,0.877 0.517,1.572 1.465,1.572 0.318,0 0.548,-0.036 0.765,-0.1 L 0,0 z"
         style="fill:#585e6a;fill-opacity:1;fill-rule:nonzero;stroke:none"
         id="path5357" />
    </g>
    <g
       id="g5359"
       transform="matrix(1.25,0,0,-1.25,402.76635,498.82322)">
      <path
         inkscape:connector-curvature="0"
         d="m 0,0 0.789,0 0,-1.796 0.012,0 c 0.2,0.294 0.542,0.483 0.954,0.483 0.718,0 1.03,-0.506 1.03,-1.188 l 0,-1.914 -0.79,0 0,1.619 c 0,0.37 -0.005,0.872 -0.511,0.872 -0.572,0 -0.695,-0.619 -0.695,-1.007 l 0,-1.484 L 0,-4.415 0,0 z"
         style="fill:#585e6a;fill-opacity:1;fill-rule:nonzero;stroke:none"
         id="path5361" />
    </g>
    <g
       id="g5363"
       transform="matrix(1.25,0,0,-1.25,407.79195,500.55296)">
      <path
         inkscape:connector-curvature="0"
         d="m 0,0 0.748,0 0,-0.412 0.013,0 c 0.246,0.348 0.582,0.483 0.994,0.483 0.718,0 1.029,-0.507 1.029,-1.188 l 0,-1.914 -0.788,0 0,1.619 c 0,0.37 -0.006,0.872 -0.513,0.872 -0.571,0 -0.695,-0.619 -0.695,-1.007 l 0,-1.484 L 0,-3.031 0,0 z"
         style="fill:#585e6a;fill-opacity:1;fill-rule:nonzero;stroke:none"
         id="path5365" />
    </g>
    <g
       id="g5367"
       transform="matrix(1.25,0,0,-1.25,414.55345,503.66459)">
      <path
         inkscape:connector-curvature="0"
         d="m 0,0 c 0.606,0 0.766,0.542 0.766,1.049 0,0.464 -0.247,0.9 -0.766,0.9 -0.512,0 -0.76,-0.448 -0.76,-0.9 C -0.76,0.548 -0.6,0 0,0 m 0,2.561 c 0.9,0 1.59,-0.607 1.59,-1.607 0,-0.872 -0.583,-1.565 -1.59,-1.565 -1,0 -1.583,0.693 -1.583,1.565 0,1 0.688,1.607 1.583,1.607"
         style="fill:#585e6a;fill-opacity:1;fill-rule:nonzero;stroke:none"
         id="path5369" />
    </g>
    <path
       inkscape:connector-curvature="0"
       d="m 417.86465,498.82359 0.9863,0 0,5.51875 -0.9863,0 0,-5.51875 z"
       style="fill:#585e6a;fill-opacity:1;fill-rule:nonzero;stroke:none"
       id="path5371" />
    <g
       id="g5373"
       transform="matrix(1.25,0,0,-1.25,422.15355,503.66459)">
      <path
         inkscape:connector-curvature="0"
         d="m 0,0 c 0.607,0 0.766,0.542 0.766,1.049 0,0.464 -0.247,0.9 -0.766,0.9 -0.512,0 -0.759,-0.448 -0.759,-0.9 C -0.759,0.548 -0.601,0 0,0 m 0,2.561 c 0.901,0 1.59,-0.607 1.59,-1.607 0,-0.872 -0.584,-1.565 -1.59,-1.565 -1,0 -1.583,0.693 -1.583,1.565 0,1 0.688,1.607 1.583,1.607"
         style="fill:#585e6a;fill-opacity:1;fill-rule:nonzero;stroke:none"
         id="path5375" />
    </g>
    <g
       id="g5377"
       transform="matrix(1.25,0,0,-1.25,427.93715,502.40597)">
      <path
         inkscape:connector-curvature="0"
         d="m 0,0 c 0,0.518 -0.199,0.942 -0.659,0.942 -0.535,0 -0.705,-0.495 -0.705,-0.96 0,-0.412 0.217,-0.918 0.67,-0.918 C -0.199,-0.936 0,-0.507 0,0 m 0.789,1.482 0,-2.737 c 0,-0.823 -0.33,-1.6 -1.602,-1.6 -0.31,0 -0.67,0.047 -1.046,0.207 l 0.064,0.67 c 0.241,-0.129 0.635,-0.264 0.883,-0.264 0.87,0 0.912,0.653 0.912,1.177 l -0.012,0 c -0.147,-0.259 -0.5,-0.484 -0.942,-0.484 -0.894,0 -1.235,0.719 -1.235,1.531 0,0.731 0.376,1.572 1.283,1.572 0.4,0 0.712,-0.136 0.929,-0.484 l 0.012,0 0,0.412 0.754,0 z"
         style="fill:#585e6a;fill-opacity:1;fill-rule:nonzero;stroke:none"
         id="path5379" />
    </g>
    <path
       inkscape:connector-curvature="0"
       d="m 430.49095,498.91859 0.9862,0 0,0.9425 -0.9862,0 0,-0.9425 z m 0,1.635 0.9862,0 0,3.78875 -0.9862,0 0,-3.78875 z"
       style="fill:#585e6a;fill-opacity:1;fill-rule:nonzero;stroke:none"
       id="path5381" />
    <g
       id="g5383"
       transform="matrix(1.25,0,0,-1.25,435.42005,502.07521)">
      <path
         inkscape:connector-curvature="0"
         d="M 0,0 C -0.023,0.383 -0.201,0.713 -0.642,0.713 -1.083,0.713 -1.307,0.407 -1.343,0 L 0,0 z m 0.529,-1.643 c -0.289,-0.159 -0.618,-0.24 -1.042,-0.24 -0.999,0 -1.583,0.576 -1.583,1.571 0,0.877 0.465,1.601 1.407,1.601 1.124,0 1.443,-0.771 1.443,-1.831 l -2.097,0 c 0.036,-0.487 0.377,-0.765 0.865,-0.765 0.383,0 0.712,0.143 1.007,0.306 l 0,-0.642 z"
         style="fill:#585e6a;fill-opacity:1;fill-rule:nonzero;stroke:none"
         id="path5385" />
    </g>
    <g
       id="g5387"
       transform="matrix(1.25,0,0,-1.25,337.63445,510.47971)">
      <path
         inkscape:connector-curvature="0"
         d="m 0,0 0.336,0 c 0.347,0 0.777,0.077 0.777,0.501 0,0.476 -0.419,0.511 -0.796,0.511 L 0,1.012 0,0 z m 0,-1.801 0.389,0 c 0.382,0 0.847,0.095 0.847,0.571 0,0.536 -0.435,0.618 -0.847,0.618 l -0.389,0 0,-1.189 z m -0.823,3.46 1.436,0 c 0.53,0 1.325,-0.152 1.325,-1.054 0,-0.487 -0.33,-0.829 -0.819,-0.918 l 0,-0.011 c 0.559,-0.053 0.942,-0.429 0.942,-0.936 0,-1.036 -0.931,-1.189 -1.448,-1.189 l -1.436,0 0,4.108 z"
         style="fill:#585e6a;fill-opacity:1;fill-rule:nonzero;stroke:none"
         id="path5389" />
    </g>
    <g
       id="g5391"
       transform="matrix(1.25,0,0,-1.25,343.91865,511.27446)">
      <path
         inkscape:connector-curvature="0"
         d="M 0,0 C -0.023,0.382 -0.2,0.713 -0.642,0.713 -1.084,0.713 -1.307,0.406 -1.343,0 L 0,0 z m 0.529,-1.644 c -0.288,-0.157 -0.618,-0.24 -1.041,-0.24 -1.001,0 -1.584,0.577 -1.584,1.572 0,0.876 0.465,1.601 1.407,1.601 1.125,0 1.443,-0.772 1.443,-1.831 l -2.097,0 c 0.036,-0.488 0.378,-0.765 0.865,-0.765 0.383,0 0.713,0.142 1.007,0.306 l 0,-0.643 z"
         style="fill:#585e6a;fill-opacity:1;fill-rule:nonzero;stroke:none"
         id="path5393" />
    </g>
    <path
       inkscape:connector-curvature="0"
       d="m 346.18715,508.02234 0.9838,0 0,5.51875 -0.9838,0 0,-5.51875 z"
       style="fill:#585e6a;fill-opacity:1;fill-rule:nonzero;stroke:none"
       id="path5395" />
    <g
       id="g5397"
       transform="matrix(1.25,0,0,-1.25,349.09805,510.47246)">
      <path
         inkscape:connector-curvature="0"
         d="m 0,0 -0.582,0 0,0.576 0.582,0 0,0.425 C 0,1.606 0.341,2.03 0.965,2.03 1.166,2.03 1.39,2.001 1.542,1.966 L 1.479,1.312 C 1.407,1.354 1.307,1.419 1.137,1.419 0.872,1.419 0.789,1.189 0.789,0.953 l 0,-0.377 0.69,0 0,-0.576 -0.69,0 0,-2.455 L 0,-2.455 0,0 z"
         style="fill:#585e6a;fill-opacity:1;fill-rule:nonzero;stroke:none"
         id="path5399" />
    </g>
    <g
       id="g5401"
       transform="matrix(1.25,0,0,-1.25,353.86495,512.86371)">
      <path
         inkscape:connector-curvature="0"
         d="m 0,0 c 0.607,0 0.767,0.541 0.767,1.048 0,0.466 -0.247,0.9 -0.767,0.9 -0.511,0 -0.758,-0.448 -0.758,-0.9 C -0.758,0.549 -0.6,0 0,0 m 0,2.561 c 0.902,0 1.591,-0.607 1.591,-1.608 0,-0.871 -0.584,-1.565 -1.591,-1.565 -0.999,0 -1.583,0.694 -1.583,1.565 0,1.001 0.689,1.608 1.583,1.608"
         style="fill:#585e6a;fill-opacity:1;fill-rule:nonzero;stroke:none"
         id="path5403" />
    </g>
    <g
       id="g5405"
       transform="matrix(1.25,0,0,-1.25,357.17665,509.75222)">
      <path
         inkscape:connector-curvature="0"
         d="m 0,0 0.701,0 0,-0.688 0.012,0 c 0.035,0.283 0.359,0.759 0.83,0.759 0.076,0 0.159,0 0.241,-0.023 l 0,-0.794 c -0.071,0.041 -0.213,0.064 -0.353,0.064 -0.642,0 -0.642,-0.8 -0.642,-1.237 l 0,-1.112 L 0,-3.031 0,0 z"
         style="fill:#585e6a;fill-opacity:1;fill-rule:nonzero;stroke:none"
         id="path5407" />
    </g>
    <g
       id="g5409"
       transform="matrix(1.25,0,0,-1.25,360.87055,510.47246)">
      <path
         inkscape:connector-curvature="0"
         d="m 0,0 -0.582,0 0,0.576 0.582,0 0,0.608 0.789,0.253 0,-0.861 0.701,0 0,-0.576 -0.701,0 0,-1.412 c 0,-0.26 0.071,-0.501 0.371,-0.501 0.141,0 0.277,0.029 0.36,0.082 L 1.543,-2.455 C 1.378,-2.502 1.196,-2.525 0.96,-2.525 0.342,-2.525 0,-2.143 0,-1.542 L 0,0 z"
         style="fill:#585e6a;fill-opacity:1;fill-rule:nonzero;stroke:none"
         id="path5411" />
    </g>
    <path
       inkscape:connector-curvature="0"
       d="m 363.68965,511.15609 1.9363,0 0,0.80875 -1.9363,0 0,-0.80875 z"
       style="fill:#585e6a;fill-opacity:1;fill-rule:nonzero;stroke:none"
       id="path5413" />
    <g
       id="g5415"
       transform="matrix(1.25,0,0,-1.25,367.00705,508.40572)">
      <path
         inkscape:connector-curvature="0"
         d="m 0,0 1.318,0 0.978,-3.112 0.012,0 0.976,3.112 1.319,0 0,-4.108 -0.789,0 0,3.39 -0.01,0 -1.108,-3.39 -0.79,0 -1.105,3.39 -0.012,-0.011 0,-3.379 L 0,-4.108 0,0 z"
         style="fill:#585e6a;fill-opacity:1;fill-rule:nonzero;stroke:none"
         id="path5417" />
    </g>
    <g
       id="g5419"
       transform="matrix(1.25,0,0,-1.25,376.13055,512.86371)">
      <path
         inkscape:connector-curvature="0"
         d="m 0,0 c 0.606,0 0.765,0.541 0.765,1.048 0,0.466 -0.246,0.9 -0.765,0.9 -0.512,0 -0.759,-0.448 -0.759,-0.9 C -0.759,0.549 -0.6,0 0,0 m 0,2.561 c 0.9,0 1.59,-0.607 1.59,-1.608 0,-0.871 -0.582,-1.565 -1.59,-1.565 -1,0 -1.582,0.694 -1.582,1.565 0,1.001 0.687,1.608 1.582,1.608"
         style="fill:#585e6a;fill-opacity:1;fill-rule:nonzero;stroke:none"
         id="path5421" />
    </g>
    <g
       id="g5423"
       transform="matrix(1.25,0,0,-1.25,379.42035,509.75222)">
      <path
         inkscape:connector-curvature="0"
         d="m 0,0 0.747,0 0,-0.411 0.012,0 c 0.248,0.348 0.584,0.482 0.995,0.482 0.719,0 1.03,-0.506 1.03,-1.189 l 0,-1.913 -0.788,0 0,1.619 c 0,0.371 -0.006,0.871 -0.513,0.871 -0.571,0 -0.695,-0.618 -0.695,-1.007 l 0,-1.483 L 0,-3.031 0,0 z"
         style="fill:#585e6a;fill-opacity:1;fill-rule:nonzero;stroke:none"
         id="path5425" />
    </g>
    <g
       id="g5427"
       transform="matrix(1.25,0,0,-1.25,384.76835,510.47246)">
      <path
         inkscape:connector-curvature="0"
         d="m 0,0 -0.582,0 0,0.576 0.582,0 0,0.608 0.789,0.253 0,-0.861 0.701,0 0,-0.576 -0.701,0 0,-1.412 c 0,-0.26 0.071,-0.501 0.372,-0.501 0.14,0 0.276,0.029 0.359,0.082 L 1.543,-2.455 C 1.378,-2.502 1.196,-2.525 0.961,-2.525 0.342,-2.525 0,-2.143 0,-1.542 L 0,0 z"
         style="fill:#585e6a;fill-opacity:1;fill-rule:nonzero;stroke:none"
         id="path5429" />
    </g>
    <g
       id="g5431"
       transform="matrix(1.25,0,0,-1.25,389.69865,512.86371)">
      <path
         inkscape:connector-curvature="0"
         d="m 0,0 c 0.519,0 0.667,0.564 0.667,0.983 0,0.407 -0.143,0.965 -0.655,0.965 -0.506,0 -0.705,-0.541 -0.705,-0.965 C -0.693,0.553 -0.523,0 0,0 m -1.488,3.873 0.789,0 0,-1.771 0.011,0 c 0.218,0.288 0.495,0.459 0.907,0.459 0.929,0 1.271,-0.743 1.271,-1.578 0,-0.83 -0.342,-1.595 -1.271,-1.595 -0.336,0 -0.701,0.118 -0.931,0.442 l -0.011,0 0,-0.372 -0.765,0 0,4.415 z"
         style="fill:#585e6a;fill-opacity:1;fill-rule:nonzero;stroke:none"
         id="path5433" />
    </g>
    <g
       id="g5435"
       transform="matrix(1.25,0,0,-1.25,395.90105,513.32884)">
      <path
         inkscape:connector-curvature="0"
         d="m 0,0 c -0.288,-0.157 -0.617,-0.24 -1.041,-0.24 -1.001,0 -1.584,0.577 -1.584,1.572 0,0.876 0.466,1.601 1.407,1.601 1.124,0 1.442,-0.773 1.442,-1.831 l -2.095,0 c 0.035,-0.489 0.377,-0.765 0.865,-0.765 0.383,0 0.712,0.142 1.006,0.306 L 0,0 z m -0.528,1.644 c -0.024,0.381 -0.201,0.712 -0.643,0.712 -0.44,0 -0.665,-0.306 -0.7,-0.712 l 1.343,0 z m -0.618,2.49 0.805,0 -0.805,-0.861 -0.49,0 0.49,0.861 z"
         style="fill:#585e6a;fill-opacity:1;fill-rule:nonzero;stroke:none"
         id="path5437" />
    </g>
    <path
       inkscape:connector-curvature="0"
       d="m 397.50595,508.02234 0.9862,0 0,5.51875 -0.9862,0 0,-5.51875 z"
       style="fill:#585e6a;fill-opacity:1;fill-rule:nonzero;stroke:none"
       id="path5439" />
    <path
       inkscape:connector-curvature="0"
       d="m 400.08215,508.11859 0.985,0 0,0.94 -0.985,0 0,-0.94 z m 0,1.63375 0.985,0 0,3.78875 -0.985,0 0,-3.78875 z"
       style="fill:#585e6a;fill-opacity:1;fill-rule:nonzero;stroke:none"
       id="path5441" />
    <g
       id="g5443"
       transform="matrix(1.25,0,0,-1.25,403.95765,512.90771)">
      <path
         inkscape:connector-curvature="0"
         d="m 0,0 c 0.242,0 0.431,0.106 0.555,0.271 0.128,0.17 0.164,0.388 0.164,0.623 l -0.342,0 C 0.023,0.894 -0.5,0.836 -0.5,0.371 -0.5,0.112 -0.282,0 0,0 m -0.924,2.366 c 0.306,0.141 0.718,0.23 1.054,0.23 0.925,0 1.307,-0.383 1.307,-1.278 l 0,-0.388 c 0,-0.306 0.005,-0.535 0.011,-0.759 0.006,-0.231 0.019,-0.442 0.036,-0.678 l -0.695,0 C 0.76,-0.348 0.76,-0.147 0.754,-0.054 l -0.012,0 c -0.183,-0.335 -0.576,-0.523 -0.936,-0.523 -0.535,0 -1.06,0.324 -1.06,0.9 0,0.454 0.218,0.719 0.52,0.866 0.299,0.147 0.687,0.176 1.017,0.176 l 0.436,0 C 0.719,1.854 0.501,2.02 0.035,2.02 -0.3,2.02 -0.636,1.891 -0.9,1.688 l -0.024,0.678 z"
         style="fill:#585e6a;fill-opacity:1;fill-rule:nonzero;stroke:none"
         id="path5445" />
    </g>
    <g
       id="g5447"
       transform="matrix(1.25,0,0,-1.25,407.27555,509.75222)">
      <path
         inkscape:connector-curvature="0"
         d="m 0,0 0.702,0 0,-0.688 0.012,0 c 0.035,0.283 0.358,0.759 0.829,0.759 0.077,0 0.159,0 0.242,-0.023 l 0,-0.794 c -0.071,0.041 -0.213,0.064 -0.353,0.064 -0.642,0 -0.642,-0.8 -0.642,-1.237 l 0,-1.112 -0.79,0 L 0,0 z"
         style="fill:#585e6a;fill-opacity:1;fill-rule:nonzero;stroke:none"
         id="path5449" />
    </g>
    <g
       id="g5451"
       transform="matrix(1.25,0,0,-1.25,412.13395,512.86371)">
      <path
         inkscape:connector-curvature="0"
         d="m 0,0 c 0.524,0 0.695,0.553 0.695,0.983 0,0.424 -0.2,0.965 -0.707,0.965 -0.511,0 -0.653,-0.558 -0.653,-0.965 C -0.665,0.564 -0.517,0 0,0 m 0.725,-0.2 -0.012,0 c -0.235,-0.294 -0.559,-0.412 -0.93,-0.412 -0.929,0 -1.272,0.765 -1.272,1.595 0,0.835 0.343,1.578 1.272,1.578 0.394,0 0.671,-0.135 0.905,-0.423 l 0.013,0 0,1.735 0.789,0 0,-4.415 -0.765,0 0,0.342 z"
         style="fill:#585e6a;fill-opacity:1;fill-rule:nonzero;stroke:none"
         id="path5453" />
    </g>
    <g
       id="g5455"
       transform="matrix(1.25,0,0,-1.25,292.65645,466.26221)">
      <path
         inkscape:connector-curvature="0"
         d="m 0,0 c -7.068,-0.852 -13.572,-0.819 -18.431,-0.083 l 1.683,-12.341 c 3.207,0.278 7.781,0.7 11.026,1.105 13.966,1.735 24.972,6.863 24.492,10.978 -0.098,0.836 -0.666,1.58 -1.614,2.223 4.285,-0.821 7.007,-2.258 7.237,-4.165 0.496,-4.115 -10.791,-8.861 -25.21,-10.596 -5.868,-0.706 -11.343,-0.804 -15.814,-0.395 l 1.671,-12.253 c 2.974,0.266 6.56,0.612 9.238,0.944 13.966,1.737 24.972,6.863 24.492,10.98 -0.098,0.835 -0.666,1.58 -1.614,2.223 4.285,-0.821 7.007,-2.259 7.237,-4.165 0.496,-4.117 -10.791,-8.86 -25.21,-10.597 -5.091,-0.612 -9.885,-0.764 -13.987,-0.529 l 1.451,-10.645 5.097,0 c 0.859,0.078 1.726,0.167 2.607,0.276 13.965,1.736 24.899,6.479 24.419,10.597 -0.098,0.835 -0.666,1.579 -1.614,2.222 4.285,-0.821 7.007,-2.258 7.237,-4.165 0.38,-3.153 -6.163,-6.676 -15.726,-8.93 l 15.745,0 0,45.693 C 21.617,4.898 11.874,1.429 0,0"
         style="fill:#127bca;fill-opacity:1;fill-rule:nonzero;stroke:none"
         id="path5457" />
    </g>
    <g
       id="g5459"
       transform="matrix(1.25,0,0,-1.25,261.84215,483.90496)">
      <path
         inkscape:connector-curvature="0"
         d="m 0,0 0,-23.202 6.739,0 L 0,0 z"
         style="fill:#0d80c8;fill-opacity:1;fill-rule:nonzero;stroke:none"
         id="path5461" />
    </g>
    <g
       id="g5463"
       transform="matrix(1.25,0,0,-1.25,283.73555,449.49096)">
      <path
         inkscape:connector-curvature="0"
         d="m 0,0 c -13.032,-1.178 -21.969,-4.162 -21.875,-7.243 0.002,-0.098 0.016,-0.193 0.04,-0.287 l -0.056,0.005 15.687,-52.393 -6.994,49.151 c 4.108,-0.43 9.368,-0.438 15.089,0.079 13.032,1.178 23.521,4.631 23.428,7.711 C 25.227,0.103 13.033,1.179 0,0"
         style="fill:#585e6a;fill-opacity:1;fill-rule:nonzero;stroke:none"
         id="path5465" />
    </g>
  </g>
</svg>
