<?xml version="1.0" encoding="UTF-8" standalone="no"?>
<!-- Generator: Adobe Illustrator 15.0.0, SVG Export Plug-In . SVG Version: 6.00 Build 0)  -->

<svg
   xmlns:dc="http://purl.org/dc/elements/1.1/"
   xmlns:cc="http://creativecommons.org/ns#"
   xmlns:rdf="http://www.w3.org/1999/02/22-rdf-syntax-ns#"
   xmlns:svg="http://www.w3.org/2000/svg"
   xmlns="http://www.w3.org/2000/svg"
   xmlns:sodipodi="http://sodipodi.sourceforge.net/DTD/sodipodi-0.dtd"
   xmlns:inkscape="http://www.inkscape.org/namespaces/inkscape"
   version="1.1"
   id="Layer_1"
   x="0px"
   y="0px"
   width="217.08099"
   height="74.325996"
   viewBox="0 0 217.08099 74.325996"
   enable-background="new 0 0 612 792"
   xml:space="preserve"
   inkscape:version="0.48.4 r9939"
   sodipodi:docname="eclipse_builton.svg"><metadata
     id="metadata84"><rdf:RDF><cc:Work
         rdf:about=""><dc:format>image/svg+xml</dc:format><dc:type
           rdf:resource="http://purl.org/dc/dcmitype/StillImage" /></cc:Work></rdf:RDF></metadata><defs
     id="defs82" /><sodipodi:namedview
     pagecolor="#ffffff"
     bordercolor="#666666"
     borderopacity="1"
     objecttolerance="10"
     gridtolerance="10"
     guidetolerance="10"
     inkscape:pageopacity="0"
     inkscape:pageshadow="2"
     inkscape:window-width="640"
     inkscape:window-height="480"
     id="namedview80"
     showgrid="false"
     fit-margin-top="0"
     fit-margin-left="0"
     fit-margin-right="0"
     fit-margin-bottom="0"
     inkscape:zoom="1.6856283"
     inkscape:cx="106.538"
     inkscape:cy="38.154"
     inkscape:window-x="0"
     inkscape:window-y="34"
     inkscape:window-maximized="0"
     inkscape:current-layer="Layer_1" /><rect
     x="143.54199"
     y="29.636997"
     width="3.9449999"
     height="4.9889998"
     id="rect3"
     style="fill:#f7941e" /><path
     d="m 110.642,50.174 v 1.927 H 92.523 c 0.173,2.714 0.99,4.78 2.451,6.202 1.465,1.421 3.504,2.13 6.115,2.13 1.515,0 2.979,-0.185 4.404,-0.556 1.418,-0.373 2.826,-0.929 4.228,-1.672 v 3.728 c -1.412,0.6 -2.863,1.056 -4.347,1.372 -1.485,0.312 -2.993,0.468 -4.521,0.468 -3.826,0 -6.855,-1.112 -9.091,-3.34 -2.236,-2.228 -3.352,-5.239 -3.352,-9.038 0,-3.928 1.06,-7.043 3.183,-9.348 2.119,-2.309 4.976,-3.461 8.576,-3.461 3.225,0 5.779,1.039 7.656,3.117 1.881,2.077 2.817,4.901 2.817,8.471 m -3.939,-1.157 c -0.03,-2.157 -0.631,-3.878 -1.811,-5.16 -1.179,-1.287 -2.736,-1.93 -4.68,-1.93 -2.199,0 -3.959,0.621 -5.278,1.865 -1.321,1.24 -2.082,2.991 -2.281,5.246 l 14.05,-0.021 z"
     id="path5"
     inkscape:connector-curvature="0"
     style="fill:#2d2255" /><path
     d="m 131.087,40.087 v 3.682 c -1.117,-0.612 -2.236,-1.074 -3.352,-1.38 -1.127,-0.309 -2.256,-0.462 -3.398,-0.462 -2.555,0 -4.541,0.811 -5.953,2.432 -1.414,1.62 -2.121,3.895 -2.121,6.822 0,2.927 0.707,5.202 2.121,6.821 1.412,1.622 3.398,2.431 5.953,2.431 1.143,0 2.271,-0.154 3.398,-0.46 1.115,-0.307 2.234,-0.768 3.352,-1.382 v 3.641 c -1.1,0.515 -2.242,0.899 -3.418,1.155 -1.18,0.26 -2.432,0.386 -3.762,0.386 -3.609,0 -6.482,-1.132 -8.609,-3.404 -2.125,-2.269 -3.191,-5.333 -3.191,-9.188 0,-3.913 1.076,-6.99 3.225,-9.232 2.15,-2.24 5.094,-3.362 8.836,-3.362 1.213,0 2.398,0.125 3.555,0.375 1.155,0.248 2.276,0.623 3.364,1.125"
     id="path7"
     inkscape:connector-curvature="0"
     style="fill:#2d2255" /><rect
     x="134.647"
     y="29.827"
     width="3.941"
     height="33.325001"
     id="rect9"
     style="fill:#2d2255" /><path
     d="m 143.542,39.163 h 3.945 v 23.991 h -3.945 V 39.163 z"
     id="path11"
     inkscape:connector-curvature="0"
     style="fill:#2d2255" /><path
     d="M 156.257,59.555 V 72.278 H 152.29 V 39.164 h 3.967 v 3.642 c 0.824,-1.426 1.873,-2.487 3.135,-3.18 1.266,-0.692 2.773,-1.039 4.531,-1.039 2.912,0 5.277,1.156 7.098,3.471 1.824,2.312 2.73,5.354 2.73,9.124 0,3.77 -0.906,6.812 -2.73,9.124 -1.82,2.312 -4.186,3.468 -7.098,3.468 -1.758,0 -3.266,-0.345 -4.531,-1.038 -1.262,-0.692 -2.311,-1.753 -3.135,-3.181 m 13.408,-8.374 c 0,-2.899 -0.6,-5.172 -1.789,-6.822 -1.193,-1.649 -2.83,-2.475 -4.916,-2.475 -2.086,0 -3.725,0.825 -4.916,2.475 -1.193,1.65 -1.787,3.923 -1.787,6.822 0,2.899 0.594,5.172 1.787,6.821 1.191,1.648 2.83,2.473 4.916,2.473 2.086,0 3.723,-0.824 4.916,-2.473 1.189,-1.649 1.789,-3.922 1.789,-6.821"
     id="path13"
     inkscape:connector-curvature="0"
     style="fill:#2d2255" /><path
     d="m 192.288,39.871 v 3.727 c -1.111,-0.57 -2.271,-1 -3.471,-1.285 -1.199,-0.286 -2.438,-0.429 -3.723,-0.429 -1.957,0 -3.428,0.3 -4.404,0.899 -0.98,0.6 -1.465,1.5 -1.465,2.699 0,0.915 0.348,1.633 1.049,2.152 0.701,0.521 2.104,1.018 4.219,1.49 l 1.348,0.299 c 2.801,0.6 4.787,1.445 5.967,2.539 1.18,1.092 1.77,2.615 1.77,4.572 0,2.227 -0.883,3.99 -2.65,5.291 -1.76,1.299 -4.186,1.946 -7.271,1.946 -1.281,0 -2.619,-0.122 -4.016,-0.374 -1.391,-0.248 -2.859,-0.624 -4.4,-1.124 v -4.069 c 1.459,0.758 2.891,1.324 4.305,1.705 1.416,0.375 2.816,0.564 4.201,0.564 1.854,0 3.283,-0.316 4.281,-0.95 1.004,-0.638 1.498,-1.532 1.498,-2.69 0,-1.07 -0.357,-1.891 -1.078,-2.463 -0.725,-0.57 -2.305,-1.121 -4.746,-1.649 l -1.369,-0.322 c -2.441,-0.513 -4.205,-1.302 -5.291,-2.364 -1.084,-1.063 -1.629,-2.525 -1.629,-4.381 0,-2.256 0.801,-3.996 2.402,-5.226 1.594,-1.229 3.867,-1.843 6.807,-1.843 1.457,0 2.83,0.105 4.115,0.32 1.28,0.216 2.465,0.538 3.551,0.966"
     id="path15"
     inkscape:connector-curvature="0"
     style="fill:#2d2255" /><path
     d="m 217.081,50.174 v 1.927 h -18.123 c 0.174,2.714 0.99,4.78 2.451,6.202 1.465,1.421 3.504,2.13 6.115,2.13 1.516,0 2.982,-0.185 4.404,-0.556 1.418,-0.373 2.83,-0.929 4.232,-1.672 v 3.728 c -1.416,0.6 -2.867,1.056 -4.352,1.372 -1.484,0.312 -2.992,0.468 -4.518,0.468 -3.826,0 -6.861,-1.112 -9.094,-3.34 -2.236,-2.228 -3.352,-5.239 -3.352,-9.038 0,-3.928 1.062,-7.043 3.182,-9.348 2.119,-2.309 4.979,-3.461 8.576,-3.461 3.229,0 5.779,1.039 7.66,3.117 1.88,2.077 2.819,4.901 2.819,8.471 m -3.943,-1.157 c -0.029,-2.157 -0.631,-3.878 -1.811,-5.16 -1.178,-1.287 -2.74,-1.93 -4.68,-1.93 -2.199,0 -3.959,0.621 -5.277,1.865 -1.318,1.24 -2.082,2.991 -2.281,5.246 l 14.049,-0.021 z"
     id="path17"
     inkscape:connector-curvature="0"
     style="fill:#2d2255" /><g
     id="g19"
     transform="translate(-199.462,-359.828)"><path
       d="m 290.303,384.445 v -15.268 h 5.617 c 1.055,0 1.953,0.098 2.693,0.293 0.741,0.196 1.345,0.472 1.813,0.828 0.468,0.356 0.809,0.79 1.022,1.299 0.213,0.51 0.319,1.08 0.319,1.708 0,0.343 -0.049,0.673 -0.146,0.99 -0.098,0.318 -0.251,0.617 -0.461,0.896 -0.209,0.28 -0.479,0.533 -0.807,0.76 -0.329,0.227 -0.723,0.424 -1.184,0.592 1.006,0.245 1.75,0.641 2.232,1.189 0.482,0.548 0.723,1.252 0.723,2.111 0,0.649 -0.126,1.254 -0.377,1.813 -0.251,0.559 -0.62,1.046 -1.105,1.461 -0.485,0.416 -1.084,0.741 -1.797,0.975 -0.713,0.234 -1.527,0.351 -2.442,0.351 h -6.1 z m 3.542,-8.844 h 1.844 c 0.391,0 0.744,-0.028 1.058,-0.083 0.314,-0.056 0.582,-0.154 0.802,-0.293 0.22,-0.14 0.388,-0.332 0.503,-0.577 0.115,-0.244 0.173,-0.552 0.173,-0.922 0,-0.363 -0.045,-0.666 -0.136,-0.906 -0.091,-0.241 -0.23,-0.435 -0.419,-0.582 -0.188,-0.146 -0.428,-0.251 -0.718,-0.314 -0.29,-0.063 -0.634,-0.094 -1.032,-0.094 h -2.075 v 3.771 z m 0,2.368 v 3.804 h 2.494 c 0.468,0 0.85,-0.06 1.147,-0.178 0.297,-0.118 0.529,-0.272 0.697,-0.461 0.167,-0.188 0.283,-0.401 0.346,-0.639 0.063,-0.237 0.094,-0.478 0.094,-0.723 0,-0.279 -0.037,-0.531 -0.11,-0.755 -0.074,-0.223 -0.199,-0.412 -0.377,-0.565 -0.178,-0.154 -0.414,-0.272 -0.708,-0.356 -0.293,-0.084 -0.664,-0.126 -1.11,-0.126 h -2.473 z"
       id="path21"
       inkscape:connector-curvature="0"
       style="fill:#f7941e" /><path
       d="m 310.4,381.647 c 0.477,0 0.9,-0.079 1.273,-0.236 0.373,-0.157 0.689,-0.382 0.949,-0.676 0.258,-0.293 0.455,-0.651 0.592,-1.074 0.137,-0.422 0.203,-0.903 0.203,-1.441 v -9.043 h 3.543 v 9.043 c 0,0.937 -0.152,1.796 -0.455,2.578 -0.305,0.782 -0.74,1.457 -1.305,2.022 -0.566,0.565 -1.254,1.006 -2.064,1.32 -0.811,0.314 -1.723,0.471 -2.736,0.471 -1.02,0 -1.934,-0.157 -2.744,-0.471 -0.811,-0.314 -1.499,-0.755 -2.065,-1.32 -0.566,-0.566 -0.999,-1.24 -1.299,-2.022 -0.3,-0.782 -0.451,-1.642 -0.451,-2.578 v -9.043 h 3.542 v 9.033 c 0,0.538 0.068,1.018 0.205,1.441 0.136,0.423 0.334,0.782 0.592,1.079 0.258,0.297 0.574,0.524 0.947,0.681 0.375,0.157 0.799,0.236 1.273,0.236 z"
       id="path23"
       inkscape:connector-curvature="0"
       style="fill:#f7941e" /><path
       d="m 323.144,384.445 h -3.562 v -15.268 h 3.562 v 15.268 z"
       id="path25"
       inkscape:connector-curvature="0"
       style="fill:#f7941e" /><path
       d="m 329.514,381.616 h 5.659 v 2.829 h -9.2 v -15.268 h 3.541 v 12.439 z"
       id="path27"
       inkscape:connector-curvature="0"
       style="fill:#f7941e" /><path
       d="m 346.049,369.177 v 2.808 h -4.296 v 12.459 h -3.542 v -12.459 h -4.296 v -2.808 h 12.134 z"
       id="path29"
       inkscape:connector-curvature="0"
       style="fill:#f7941e" /><path
       d="m 366.63,376.806 c 0,1.104 -0.19,2.131 -0.571,3.081 -0.381,0.95 -0.917,1.776 -1.608,2.478 -0.691,0.702 -1.524,1.252 -2.499,1.65 -0.975,0.398 -2.056,0.597 -3.243,0.597 -1.188,0 -2.271,-0.199 -3.249,-0.597 -0.978,-0.398 -1.814,-0.948 -2.51,-1.65 -0.694,-0.702 -1.232,-1.528 -1.613,-2.478 -0.381,-0.95 -0.571,-1.977 -0.571,-3.081 0,-1.104 0.19,-2.13 0.571,-3.081 0.381,-0.951 0.919,-1.774 1.613,-2.473 0.695,-0.698 1.532,-1.247 2.51,-1.645 0.979,-0.398 2.061,-0.597 3.249,-0.597 1.188,0 2.269,0.201 3.243,0.603 0.974,0.402 1.808,0.952 2.499,1.65 0.691,0.698 1.228,1.523 1.608,2.473 0.38,0.95 0.571,1.973 0.571,3.07 z m -3.626,0 c 0,-0.754 -0.098,-1.434 -0.293,-2.038 -0.196,-0.604 -0.478,-1.116 -0.844,-1.535 -0.367,-0.419 -0.815,-0.74 -1.347,-0.964 -0.532,-0.224 -1.136,-0.335 -1.812,-0.335 -0.685,0 -1.295,0.112 -1.829,0.335 -0.534,0.223 -0.984,0.545 -1.352,0.964 -0.367,0.419 -0.648,0.931 -0.844,1.535 -0.195,0.604 -0.293,1.284 -0.293,2.038 0,0.762 0.098,1.444 0.293,2.049 0.195,0.604 0.477,1.116 0.844,1.535 0.367,0.419 0.817,0.739 1.352,0.958 0.534,0.22 1.145,0.33 1.829,0.33 0.677,0 1.281,-0.11 1.812,-0.33 0.531,-0.22 0.979,-0.54 1.347,-0.958 0.366,-0.419 0.647,-0.931 0.844,-1.535 0.195,-0.605 0.293,-1.288 0.293,-2.049 z"
       id="path31"
       inkscape:connector-curvature="0"
       style="fill:#f7941e" /><path
       d="m 370.58,369.198 c 0.104,0.014 0.199,0.04 0.282,0.079 0.084,0.039 0.164,0.093 0.241,0.163 0.077,0.07 0.164,0.164 0.262,0.283 l 7.252,9.169 c -0.028,-0.293 -0.049,-0.578 -0.063,-0.854 -0.014,-0.276 -0.021,-0.536 -0.021,-0.781 v -8.079 h 3.123 v 15.268 h -1.845 c -0.272,0 -0.503,-0.042 -0.691,-0.126 -0.188,-0.083 -0.37,-0.237 -0.545,-0.461 l -7.199,-9.096 c 0.021,0.266 0.038,0.526 0.053,0.781 0.014,0.255 0.021,0.495 0.021,0.718 v 8.184 h -3.122 v -15.268 h 1.865 c 0.153,-10e-4 0.282,0.006 0.387,0.02 z"
       id="path33"
       inkscape:connector-curvature="0"
       style="fill:#f7941e" /></g><path
     d="M 21.856,47.422 H 9.679 c 1.612,5.531 4.604,10.488 8.983,14.868 6.982,6.982 15.38,10.472 25.199,10.472 1.963,0 3.865,-0.146 5.711,-0.425 7.396,-1.117 13.871,-4.46 19.419,-10.047 4.409,-4.38 7.421,-9.337 9.046,-14.868 H 73.096 65.87 21.856 z"
     id="path35"
     inkscape:connector-curvature="0"
     style="fill:#2c2255" /><g
     id="g37"
     transform="translate(-199.462,-359.828)"><path
       d="m 214.603,390.712 h -6.361 c -0.233,1.397 -0.391,2.824 -0.463,4.287 h 7.561 3.792 54.742 4.997 c -0.073,-1.463 -0.231,-2.89 -0.466,-4.287"
       id="path39"
       inkscape:connector-curvature="0"
       style="fill:#2c2255" /><path
       d="m 207.779,398.98 c 0.072,1.464 0.23,2.891 0.463,4.288 h 6.613 5.013 53.559 4.979 c 0.234,-1.397 0.394,-2.824 0.466,-4.288"
       id="path41"
       inkscape:connector-curvature="0"
       style="fill:#2c2255" /></g><path
     d="M 78.039,26.901 C 76.415,21.355 73.402,16.376 68.991,11.964 63.457,6.43 57,3.11 49.629,1.993 47.764,1.71 45.844,1.562 43.861,1.562 34.042,1.562 25.645,5.03 18.662,11.964 14.28,16.375 11.287,21.355 9.676,26.901 h 68.363 z"
     id="path43"
     inkscape:connector-curvature="0"
     style="fill:#2c2255" /><g
     id="g45"
     transform="translate(-199.462,-359.828)"><path
       d="m 205.665,396.991 c 0,-18.78 14.104,-34.384 32.453,-37.128 -0.455,-0.017 -0.913,-0.035 -1.372,-0.035 -20.591,0 -37.284,16.639 -37.284,37.163 0,20.524 16.693,37.163 37.284,37.163 0.461,0 0.918,-0.019 1.375,-0.034 -18.351,-2.744 -32.456,-18.349 -32.456,-37.129 z"
       id="path47"
       inkscape:connector-curvature="0"
       style="fill:#f7941e" /></g><g
     id="g49"
     transform="translate(-199.462,-359.828)"><linearGradient
       id="SVGID_1_"
       gradientUnits="userSpaceOnUse"
       x1="243.32471"
       y1="437.41891"
       x2="243.32471"
       y2="383.87299"><stop
         offset="0.3033"
         style="stop-color:#473788"
         id="stop52" /><stop
         offset="0.872"
         style="stop-color:#2C2255"
         id="stop54" /></linearGradient><path
       d="m 267.518,394.999 c -0.119,-1.47 -0.366,-2.903 -0.736,-4.287 h -46.913 c -0.37,1.384 -0.617,2.817 -0.737,4.287 h 48.386 z"
       id="path56"
       inkscape:connector-curvature="0"
       style="fill:url(#SVGID_1_)" /><linearGradient
       id="SVGID_2_"
       gradientUnits="userSpaceOnUse"
       x1="243.32471"
       y1="437.4277"
       x2="243.32471"
       y2="383.86951"><stop
         offset="0.3033"
         style="stop-color:#473788"
         id="stop59" /><stop
         offset="0.872"
         style="stop-color:#2C2255"
         id="stop61" /></linearGradient><path
       d="m 267.518,398.98 h -48.386 c 0.12,1.471 0.366,2.903 0.736,4.288 h 46.914 c 0.37,-1.384 0.616,-2.817 0.736,-4.288 z"
       id="path63"
       inkscape:connector-curvature="0"
       style="fill:url(#SVGID_2_)" /><linearGradient
       id="SVGID_3_"
       gradientUnits="userSpaceOnUse"
       x1="243.3252"
       y1="437.42291"
       x2="243.3252"
       y2="383.87119"><stop
         offset="0.3033"
         style="stop-color:#473788"
         id="stop66" /><stop
         offset="0.8631"
         style="stop-color:#2C2255"
         id="stop68" /></linearGradient><path
       d="m 243.325,421.272 c 9.742,0 18.14,-5.74 22.008,-14.022 h -44.016 c 3.868,8.282 12.266,14.022 22.008,14.022 z"
       id="path70"
       inkscape:connector-curvature="0"
       style="fill:url(#SVGID_3_)" /></g><g
     id="g72"
     transform="translate(-199.462,-359.828)"><path
       d="m 215.546,398.98 h 3.552 48.51 6.372 4.841 c 0.034,-0.633 0.053,-1.271 0.053,-1.913 0,-0.694 -0.025,-1.383 -0.064,-2.068 h -4.83 -6.372 -48.51 -3.802 -7.517 c -0.039,0.686 -0.064,1.374 -0.064,2.068 0,0.643 0.019,1.28 0.052,1.913 h 7.779 z"
       id="path74"
       inkscape:connector-curvature="0"
       style="fill:#ffffff" /><path
       d="m 221.175,386.729 h -12.037 c -0.396,1.297 -0.65,2.627 -0.896,3.982 h 6.2 5.279 47.036 6.662 4.761 c -0.246,-1.355 -0.562,-2.686 -0.957,-3.982"
       id="path76"
       inkscape:connector-curvature="0"
       style="fill:#ffffff" /><path
       d="m 273.606,403.269 h -6.661 -47.035 -5.027 -6.642 c 0.239,1.354 0.51,2.685 0.899,3.981 h 12.222 44.129 7.245 4.718 c 0.389,-1.297 0.702,-2.627 0.941,-3.981 h -4.789 z"
       id="path78"
       inkscape:connector-curvature="0"
       style="fill:#ffffff" /></g></svg>