<?xml version="1.0" encoding="UTF-8" standalone="no"?>
<!-- Created with Inkscape (http://www.inkscape.org/) -->

<svg
   xmlns:dc="http://purl.org/dc/elements/1.1/"
   xmlns:cc="http://creativecommons.org/ns#"
   xmlns:rdf="http://www.w3.org/1999/02/22-rdf-syntax-ns#"
   xmlns:svg="http://www.w3.org/2000/svg"
   xmlns="http://www.w3.org/2000/svg"
   xmlns:xlink="http://www.w3.org/1999/xlink"
   xmlns:sodipodi="http://sodipodi.sourceforge.net/DTD/sodipodi-0.dtd"
   xmlns:inkscape="http://www.inkscape.org/namespaces/inkscape"
   id="svg2"
   version="1.1"
   inkscape:version="0.48.4 r9939"
   width="241.9625"
   height="69.925"
   xml:space="preserve"
   sodipodi:docname="xtext.svg"><metadata
     id="metadata8"><rdf:RDF><cc:Work
         rdf:about=""><dc:format>image/svg+xml</dc:format><dc:type
           rdf:resource="http://purl.org/dc/dcmitype/StillImage" /><dc:title></dc:title></cc:Work></rdf:RDF></metadata><defs
     id="defs6"><clipPath
       clipPathUnits="userSpaceOnUse"
       id="clipPath18"><path
         d="m 1728.57,121.074 c -164.69,164.688 -399.25,197.141 -545.62,50.809 -146.35,-146.3557 -2.1,-213.0822 14.9,-145.3322 10.34,41.2695 -66.46,52.7265 -13.08,108.3982 112.24,117.031 295.3,45.606 449.31,-108.406 l 94.49,94.531 z"
         id="path20" /></clipPath><radialGradient
       fx="0"
       fy="0"
       cx="0"
       cy="0"
       r="1"
       gradientUnits="userSpaceOnUse"
       gradientTransform="matrix(-27.9003,-27.9003,-44.5133,44.5133,125.355,53.9316)"
       spreadMethod="pad"
       id="radialGradient22"><stop
         style="stop-opacity:1;stop-color:#ffffff"
         offset="0"
         id="stop24" /><stop
         style="stop-opacity:1;stop-color:#24265d"
         offset="1"
         id="stop26" /></radialGradient><clipPath
       clipPathUnits="userSpaceOnUse"
       id="clipPath34"><path
         d="m 1039.98,430.535 c 164.71,-164.687 399.31,-197.117 545.64,-50.801 146.32,146.348 2.1,213.086 -14.89,145.325 -10.33,-41.25 66.45,-52.746 13.09,-108.387 C 1471.55,299.648 1288.5,371.074 1134.5,525.066 l -94.52,-94.531 z"
         id="path36" /></clipPath><radialGradient
       fx="0"
       fy="0"
       cx="0"
       cy="0"
       r="1"
       gradientUnits="userSpaceOnUse"
       gradientTransform="matrix(27.9014,27.9014,44.5151,-44.5151,151.5,1.2295)"
       spreadMethod="pad"
       id="radialGradient38"><stop
         style="stop-opacity:1;stop-color:#ffffff"
         offset="0"
         id="stop40" /><stop
         style="stop-opacity:1;stop-color:#24265d"
         offset="1"
         id="stop42" /></radialGradient><radialGradient
       inkscape:collect="always"
       xlink:href="#radialGradient38"
       id="radialGradient3826"
       gradientUnits="userSpaceOnUse"
       gradientTransform="matrix(27.9014,27.9014,44.5151,-44.5151,151.5,1.2295)"
       spreadMethod="pad"
       cx="0"
       cy="0"
       fx="0"
       fy="0"
       r="1" /><radialGradient
       inkscape:collect="always"
       xlink:href="#radialGradient38"
       id="radialGradient3830"
       gradientUnits="userSpaceOnUse"
       gradientTransform="matrix(27.9014,27.9014,44.5151,-44.5151,151.5,1.2295)"
       spreadMethod="pad"
       cx="0"
       cy="0"
       fx="0"
       fy="0"
       r="1" /><radialGradient
       inkscape:collect="always"
       xlink:href="#radialGradient22"
       id="radialGradient3835"
       gradientUnits="userSpaceOnUse"
       gradientTransform="matrix(-27.9003,-27.9003,-44.5133,44.5133,125.355,53.9316)"
       spreadMethod="pad"
       cx="0"
       cy="0"
       fx="0"
       fy="0"
       r="1" /><radialGradient
       inkscape:collect="always"
       xlink:href="#radialGradient22"
       id="radialGradient3839"
       gradientUnits="userSpaceOnUse"
       gradientTransform="matrix(-27.9003,-27.9003,-44.5133,44.5133,125.355,53.9316)"
       spreadMethod="pad"
       cx="0"
       cy="0"
       fx="0"
       fy="0"
       r="1" /><radialGradient
       inkscape:collect="always"
       xlink:href="#radialGradient38"
       id="radialGradient3862"
       cx="136.51123"
       cy="8.6248121"
       fx="136.51123"
       fy="8.6248121"
       r="30.529539"
       gradientTransform="matrix(1,0,0,0.43430346,0,23.704083)"
       gradientUnits="userSpaceOnUse" /><radialGradient
       inkscape:collect="always"
       xlink:href="#radialGradient22"
       id="radialGradient3866"
       cx="137.93535"
       cy="46.862038"
       fx="137.93535"
       fy="46.862038"
       r="30.529188"
       gradientTransform="matrix(1,0,0,0.43431861,0,7.5005375)"
       gradientUnits="userSpaceOnUse" /></defs><sodipodi:namedview
     pagecolor="#ffffff"
     bordercolor="#666666"
     borderopacity="1"
     objecttolerance="10"
     gridtolerance="10"
     guidetolerance="10"
     inkscape:pageopacity="0"
     inkscape:pageshadow="2"
     inkscape:window-width="987"
     inkscape:window-height="757"
     id="namedview4"
     showgrid="false"
     inkscape:zoom="0.99808857"
     inkscape:cx="170.83479"
     inkscape:cy="23.334567"
     inkscape:window-x="80"
     inkscape:window-y="277"
     inkscape:window-maximized="0"
     inkscape:current-layer="g10" /><g
     id="g10"
     inkscape:groupmode="layer"
     inkscape:label="ink_ext_XXXXXX"
     transform="matrix(1.25,0,0,-1.25,0,69.925)"><path
       inkscape:connector-curvature="0"
       id="path28"
       style="fill:url(#radialGradient3866);fill-opacity:1;fill-rule:nonzero;stroke:none"
       d="m 172.857,12.1074 c -16.469,16.4688 -39.925,19.7141 -54.562,5.0809 -14.635,-14.63557 -0.21,-21.30822 1.49,-14.53322 1.034,4.12695 -6.646,5.27265 -1.308,10.83982 11.224,11.7031 29.53,4.5606 44.931,-10.8406 l 9.449,9.4531" /><path
       inkscape:connector-curvature="0"
       id="path44"
       style="fill:url(#radialGradient3862);fill-opacity:1;fill-rule:nonzero;stroke:none"
       d="m 103.998,43.0535 c 16.471,-16.4687 39.931,-19.7117 54.564,-5.0801 14.632,14.6348 0.21,21.3086 -1.489,14.5325 -1.033,-4.125 6.645,-5.2746 1.309,-10.8387 C 147.155,29.9648 128.85,37.1074 113.45,52.5066 l -9.452,-9.4531" /><path
       inkscape:connector-curvature="0"
       id="path46"
       style="fill:#231f20;fill-opacity:1;fill-rule:nonzero;stroke:none"
       d="m 193.569,11.248 -0.472,-5.13784 c -2.082,-0.76368 -4.045,-1.14453 -5.889,-1.14453 -4.742,0 -7.982,1.20546 -9.722,3.61523 -1.737,2.41014 -2.605,6.72264 -2.605,12.94064 0,4.0301 0.026,9.2859 0.078,15.7668 -1.477,0 -3.649,-0.0793 -6.52,-0.2367 l 0.237,5.7265 c 2.503,-0.1562 4.742,-0.2359 6.718,-0.2359 0,1.5816 0.131,5.3348 0.394,11.2613 l 6.205,0.6328 c -0.449,-5.5332 -0.673,-9.498 -0.673,-11.8941 2.583,0 6.376,0.1324 11.38,0.3961 l -0.275,-5.8867 c -4.741,0.1574 -8.548,0.2367 -11.421,0.2367 -0.053,-3.9789 -0.078,-8.4574 -0.078,-13.436 0,-5.4277 0.573,-9.0156 1.719,-10.7664 1.145,-1.7519 3.271,-2.6281 6.381,-2.6281 1.026,0 2.541,0.2629 4.543,0.7902" /><path
       inkscape:connector-curvature="0"
       id="path48"
       style="fill:#231f20;fill-opacity:1;fill-rule:nonzero;stroke:none"
       d="m 44.1941,4.60938 -8.5523,0 c 0,1.02539 -1.973,4.81054 -5.9145,11.35542 -3.8113,6.3329 -6.6382,10.618 -8.4777,12.8504 l -0.4336,0 C 19.2398,26.6875 16.7945,22.509 13.4824,16.2793 10.0152,9.73633 8.2793,5.84453 8.2793,4.60938 l -8.2793,0 c 0,0.78906 2.77227,5.32226 8.31992,13.60152 5.49258,8.2 8.90818,12.9309 10.24848,14.1922 l 0,0.3946 C 17.15,34.4012 14.2324,38.4363 9.81797,44.9012 5.2707,51.577 2.99609,55.2566 2.99609,55.9402 l 8.47661,0 c 0,-0.789 1.5777,-3.8379 4.732,-9.1464 3.1012,-5.2032 5.3203,-8.5934 6.6621,-10.1719 l 0.3945,0 c 1.3399,1.6301 3.4688,5.0597 6.3864,10.291 2.9175,5.2305 4.3765,8.2383 4.3765,9.0273 l 8.3188,0 c 0,-0.7363 -2.4043,-4.2839 -7.2153,-10.6441 C 30.4758,39.1992 27.309,35.2949 25.6266,33.5867 l 0,-0.3941 C 27.6234,30.959 31.1723,25.9637 36.2703,18.2109 41.5535,10.1941 44.1941,5.66016 44.1941,4.60938" /><path
       inkscape:connector-curvature="0"
       id="path50"
       style="fill:#231f20;fill-opacity:1;fill-rule:nonzero;stroke:none"
       d="M 67.5398,11.0508 67.0676,5.92578 c -2.0774,-0.7625 -4.0356,-1.14375 -5.875,-1.14375 -4.7309,0 -7.9629,1.20313 -9.6988,3.60742 -1.7344,2.40435 -2.6016,6.70705 -2.6016,12.91135 0,4.0215 0.0262,9.2644 0.0781,15.7293 -1.4715,0 -3.639,-0.0781 -6.5039,-0.2363 l 0.2363,5.7167 c 2.4965,-0.1558 4.7305,-0.2363 6.7012,-0.2363 0,1.5766 0.1332,5.3223 0.3945,11.2363 l 6.1887,0.6309 c -0.4449,-5.5195 -0.6695,-9.4742 -0.6695,-11.8672 2.575,0 6.3601,0.1321 11.3554,0.3946 l -0.2753,-5.875 c -4.7329,0.1582 -8.5293,0.2363 -11.395,0.2363 -0.0523,-3.9676 -0.0797,-8.4356 -0.0797,-13.4031 0,-5.4153 0.5719,-8.9954 1.7157,-10.743 1.1426,-1.7485 3.2656,-2.6223 6.3664,-2.6223 1.0254,0 2.5379,0.2625 4.5347,0.7891" /><path
       inkscape:connector-curvature="0"
       id="path52"
       style="fill:#231f20;fill-opacity:1;fill-rule:nonzero;stroke:none"
       d="m 97.5383,28.6727 c 0,7.3859 -3.0879,11.0781 -9.2649,11.0781 -6.3078,0 -10.0285,-3.8375 -11.1562,-11.5117 l 20.4211,0.4336 z m 6.5837,0.0781 c 0,-1.1035 -0.053,-2.627 -0.158,-4.5723 L 76.8789,23.7059 c 0.2629,-3.8379 1.7473,-7.0508 4.4551,-9.6383 2.7082,-2.5903 6.2937,-3.884 10.7629,-3.884 3.9949,0 7.741,0.4852 11.2361,1.459 L 102.662,6.08398 C 100.088,5.05859 96.3691,4.54492 91.5059,4.54492 c -6.8329,0 -12.0442,1.86602 -15.6321,5.59958 -3.5879,3.7293 -5.3816,8.2782 -5.3816,13.6395 0,5.7305 1.6355,10.6664 4.9094,14.8047 3.2714,4.1398 7.6668,6.209 13.1875,6.209 5.0718,0 8.9285,-1.4981 11.5709,-4.4942 2.641,-2.9961 3.962,-6.8465 3.962,-11.5527" /></g></svg>