<?xml version="1.0" encoding="UTF-8" standalone="no"?>
<!-- Created with Inkscape (http://www.inkscape.org/) -->

<svg
   xmlns:dc="http://purl.org/dc/elements/1.1/"
   xmlns:cc="http://creativecommons.org/ns#"
   xmlns:rdf="http://www.w3.org/1999/02/22-rdf-syntax-ns#"
   xmlns:svg="http://www.w3.org/2000/svg"
   xmlns="http://www.w3.org/2000/svg"
   xmlns:sodipodi="http://sodipodi.sourceforge.net/DTD/sodipodi-0.dtd"
   xmlns:inkscape="http://www.inkscape.org/namespaces/inkscape"
   width="329.46323"
   height="68.570938"
   id="svg2998"
   version="1.1"
   inkscape:version="0.48.4 r9939"
   sodipodi:docname="voxelia.svg">
  <defs
     id="defs3000" />
  <sodipodi:namedview
     id="base"
     pagecolor="#ffffff"
     bordercolor="#666666"
     borderopacity="1.0"
     inkscape:pageopacity="0.0"
     inkscape:pageshadow="2"
     inkscape:zoom="1.979899"
     inkscape:cx="163.05132"
     inkscape:cy="52.552547"
     inkscape:document-units="px"
     inkscape:current-layer="layer1"
     showgrid="false"
     inkscape:window-width="1920"
     inkscape:window-height="1056"
     inkscape:window-x="0"
     inkscape:window-y="24"
     inkscape:window-maximized="1"
     fit-margin-top="0"
     fit-margin-left="0"
     fit-margin-right="0"
     fit-margin-bottom="0" />
  <metadata
     id="metadata3003">
    <rdf:RDF>
      <cc:Work
         rdf:about="">
        <dc:format>image/svg+xml</dc:format>
        <dc:type
           rdf:resource="http://purl.org/dc/dcmitype/StillImage" />
        <dc:title />
      </cc:Work>
    </rdf:RDF>
  </metadata>
  <g
     inkscape:label="Calque 1"
     inkscape:groupmode="layer"
     id="layer1"
     transform="translate(-192.1554,-455.92034)">
    <path
       id="path3924"
       style="fill:#000000;fill-opacity:1;fill-rule:nonzero;stroke:none"
       d="m 235.86373,482.74429 c 0.42167,1.70148 1.45343,3.54808 2.74643,5.46119 1.94107,2.862 4.49381,5.84855 6.55205,8.33585 1.02806,1.24181 1.93263,2.35958 2.56224,3.2499 0.31454,0.44384 0.55995,0.83175 0.71352,1.13098 0.077,0.14882 0.13036,0.27496 0.15991,0.36573 l 0.0285,0.10502 0.004,0.0259 4.2e-4,0.005 0.2206,0 -0.21057,-0.0591 -0.01,0.0591 0.2206,0 -0.21057,-0.0591 0.002,-0.005 -0.002,0.005 c -0.15833,0.561 -0.46126,1.28824 -0.87185,2.10626 -1.43813,2.87572 -4.16819,6.86342 -6.52883,10.16716 -1.18111,1.6545 -2.27145,3.14224 -3.07047,4.25474 -0.40004,0.55731 -0.72671,1.01909 -0.96156,1.37058 -0.11769,0.17626 -0.21216,0.32351 -0.2871,0.45492 -0.038,0.0665 -0.0713,0.12824 -0.1045,0.20213 -0.0169,0.038 -0.0338,0.0792 -0.0512,0.13563 -0.0158,0.058 -0.038,0.12666 -0.0396,0.26124 0.002,0.0966 0.0111,0.2549 0.13141,0.44595 0.12877,0.18841 0.23907,0.26071 0.34357,0.33671 0.19527,0.13141 0.39845,0.2264 0.6428,0.33142 0.42326,0.17944 0.95523,0.36416 1.52996,0.54834 1.71889,0.55045 3.80298,1.08295 3.8109,1.08506 0.42326,0.10819 0.85443,-0.14724 0.96262,-0.5705 0.10872,-0.42379 -0.14671,-0.85496 -0.5705,-0.96315 0,0 -0.0834,-0.0217 -0.23221,-0.0607 -0.52248,-0.13669 -1.84133,-0.48817 -3.05516,-0.86288 -0.60586,-0.18629 -1.18745,-0.37998 -1.61493,-0.54728 -0.21268,-0.0834 -0.38789,-0.16096 -0.49344,-0.21743 -0.0523,-0.0275 -0.0871,-0.0496 -0.0924,-0.0538 l -0.0312,0.0433 0.0338,-0.0412 -0.003,-0.002 -0.0312,0.0433 0.0338,-0.0412 -0.29343,0.35993 0.38632,-0.25174 c -0.0538,-0.0797 -0.0845,-0.0997 -0.0929,-0.10819 l -0.29343,0.35993 0.38632,-0.25174 -0.64122,0.41798 0.76629,0 c -0.002,-0.085 -0.009,-0.2338 -0.12507,-0.41745 l -0.64122,0.41745 0.76629,0 -0.67288,0 0.64069,0.21057 c 0.008,-0.0311 0.029,-0.0765 0.0322,-0.21057 l -0.67288,0 0.64069,0.21057 -0.29026,-0.0955 0.27707,0.12983 0.0132,-0.0343 -0.29026,-0.0955 0.27707,0.12982 c 0.004,-0.0111 0.0691,-0.12718 0.16571,-0.27496 0.37101,-0.57419 1.21911,-1.74105 2.28042,-3.20504 1.5954,-2.20126 3.68952,-5.1002 5.51502,-7.89677 0.91354,-1.39907 1.76005,-2.77228 2.44666,-4.02833 0.68661,-1.25817 1.21542,-2.38967 1.49249,-3.36073 l -10e-4,0.005 0.002,-0.005 c 0.0364,-0.12877 0.0496,-0.25385 0.0496,-0.37154 -0.003,-0.30504 -0.0802,-0.56364 -0.18419,-0.82752 -0.19843,-0.48922 -0.51667,-1.00642 -0.92884,-1.60067 -0.72144,-1.03334 -1.73684,-2.27884 -2.88153,-3.65997 -1.71573,-2.06878 -3.71908,-4.43576 -5.39575,-6.73623 -0.83807,-1.14997 -1.59381,-2.28253 -2.18912,-3.34331 -0.59636,-1.05973 -1.02859,-2.0498 -1.23283,-2.8884 -0.10397,-0.42484 -0.5325,-0.68449 -0.95734,-0.58052 -0.42484,0.10396 -0.6845,0.5325 -0.58053,0.95734 z m 58.51565,38.47635 c -0.002,-4.2e-4 -1.04231,-0.34779 -2.22711,-0.72513 -0.59266,-0.18841 -1.22069,-0.38473 -1.77641,-0.54939 -0.55837,-0.16572 -1.03176,-0.29766 -1.3653,-0.36732 l 4.2e-4,0 -0.11188,0.54095 0.25015,-0.49398 c -0.0222,-0.0105 -0.0612,-0.0301 -0.13827,-0.047 l -0.11188,0.54095 0.25015,-0.49398 -0.13563,0.2681 0.15674,-0.25649 -0.0211,-0.0116 -0.13563,0.2681 0.15674,-0.25649 -0.028,0.0454 0.0306,-0.0438 -0.003,-0.002 -0.0279,0.0454 0.0306,-0.0438 c -0.0169,-0.009 -0.13352,-0.10925 -0.2739,-0.26071 -0.27127,-0.2871 -0.66497,-0.76472 -1.12728,-1.36846 -1.6239,-2.11788 -4.11806,-5.79684 -6.18791,-9.17868 -1.03545,-1.69092 -1.96693,-3.31113 -2.63032,-4.61679 -0.33195,-0.6523 -0.59636,-1.22702 -0.77052,-1.67931 -0.0871,-0.22587 -0.15093,-0.42114 -0.19052,-0.57208 -0.0401,-0.14935 -0.0517,-0.2586 -0.0501,-0.28129 l -4.2e-4,-4.2e-4 4.2e-4,-4.3e-4 c 0.008,-0.0997 0.0544,-0.28762 0.14619,-0.52247 0.17099,-0.44384 0.49556,-1.05234 0.92937,-1.74423 1.52098,-2.43558 4.35554,-5.91505 6.79429,-8.75436 1.22069,-1.42176 2.34375,-2.68837 3.16177,-3.59874 0.40901,-0.45493 0.74149,-0.82119 0.97106,-1.07345 0.2301,-0.25174 0.35624,-0.38843 0.35676,-0.38896 0.2966,-0.32087 0.27707,-0.82171 -0.0443,-1.11831 -0.32087,-0.29659 -0.82171,-0.27707 -1.11883,0.0438 -0.005,0.006 -3.06942,3.3222 -6.18474,7.06344 -1.55845,1.87141 -3.12905,3.84732 -4.34393,5.58362 -0.60798,0.86869 -1.12729,1.67668 -1.51624,2.396 -0.19474,0.35993 -0.35676,0.69769 -0.48131,1.01857 -0.12402,0.3214 -0.21268,0.62327 -0.2454,0.93623 l 0,-8.4e-4 0,4.2e-4 c -0.006,0.0554 -0.008,0.10819 -0.008,0.16043 0.003,0.29396 0.0639,0.56101 0.15252,0.86288 0.16941,0.55942 0.45703,1.22544 0.83754,2.00177 1.32836,2.70104 3.80405,6.69771 6.07813,10.07744 1.13678,1.68881 2.22079,3.21771 3.08788,4.34921 0.43487,0.56681 0.81327,1.03281 1.13045,1.38166 0.15938,0.17521 0.30188,0.32034 0.44437,0.44437 0.0723,0.0617 0.14408,0.11874 0.23116,0.17468 0.0892,0.0544 0.18735,0.11505 0.36995,0.15569 l 0,0 c 0.22905,0.047 0.69769,0.17469 1.23389,0.33407 0.80957,0.24065 1.80069,0.55625 2.5865,0.81063 0.39265,0.12771 0.73464,0.2396 0.97846,0.31981 0.24382,0.0807 0.38737,0.12878 0.3879,0.12878 0.41481,0.13827 0.8634,-0.0855 1.00167,-0.50031 0.13827,-0.41482 -0.0855,-0.86288 -0.50031,-1.00168 m 41.54102,-0.56944 c -4.3e-4,0 -0.30874,-0.047 -0.78636,-0.12455 -0.71616,-0.11611 -1.8086,-0.3003 -2.77545,-0.4924 -0.48289,-0.096 -0.93518,-0.19421 -1.28455,-0.28393 -0.17416,-0.0443 -0.32246,-0.0871 -0.42906,-0.12244 -0.0528,-0.0179 -0.0955,-0.0338 -0.12191,-0.0449 l -0.0264,-0.0116 -0.002,-4.2e-4 -0.0908,0.16835 0.0992,-0.1636 -0.008,-0.005 -0.0908,0.16835 0.0992,-0.1636 -0.002,-0.002 0.003,0.002 -0.2491,0.41112 0.31982,-0.36098 c -0.002,-4.3e-4 -0.006,-0.01 -0.0707,-0.0501 l -0.2491,0.41112 0.31982,-0.36098 c -0.003,-0.002 -0.0443,-0.0417 -0.0987,-0.10028 -0.21955,-0.23221 -0.66814,-0.75257 -1.25764,-1.46029 -2.07301,-2.48413 -5.96836,-7.33893 -9.41564,-11.695 -1.72417,-2.17804 -3.33751,-4.23258 -4.55609,-5.80529 -0.60903,-0.78582 -1.11989,-1.45184 -1.49512,-1.95004 -0.18736,-0.24857 -0.34093,-0.45598 -0.4544,-0.61272 -0.11135,-0.15358 -0.18999,-0.27127 -0.19738,-0.28552 -0.0618,-0.0918 -0.16888,-0.42062 -0.22324,-0.83807 -0.0596,-0.41904 -0.0871,-0.9336 -0.0871,-1.45924 0,-0.7246 0.0517,-1.47612 0.12614,-2.05928 0.0369,-0.2908 0.0807,-0.54095 0.12085,-0.713 0.0195,-0.085 0.039,-0.15146 0.0507,-0.18366 l 0.006,-0.0169 0.001,-0.002 -0.3499,-0.16043 0.30557,0.23115 c 0.0354,-0.0485 0.0422,-0.0675 0.0443,-0.0707 l -0.3499,-0.16043 0.30557,0.23115 4.3e-4,-4.2e-4 c 0.0279,-0.0385 0.11082,-0.13088 0.2301,-0.2396 0.4222,-0.39106 1.27874,-1.00379 2.30522,-1.54843 1.02859,-0.54886 2.23978,-1.03967 3.39187,-1.25552 l 0.004,-4.2e-4 -0.004,4.2e-4 c 0.31348,-0.0596 0.59319,-0.18577 0.85971,-0.34621 0.46442,-0.28234 0.89665,-0.67816 1.31093,-1.14628 0.61906,-0.70349 1.18903,-1.57428 1.61968,-2.4873 0.42695,-0.91565 0.72302,-1.86613 0.72724,-2.78389 -4.2e-4,-0.50137 -0.0939,-1.00695 -0.35465,-1.46135 l 0,0 c -0.65177,-1.122 -1.69725,-2.12051 -2.57068,-2.92903 -0.43593,-0.40056 -0.83121,-0.75099 -1.09509,-1.00853 -0.13141,-0.12719 -0.23063,-0.23433 -0.27285,-0.28816 l -0.0195,-0.0264 -4.3e-4,-8.5e-4 -0.27179,0.17046 0.29765,-0.11557 -0.0259,-0.0549 -0.27179,0.17046 0.29765,-0.11557 -0.56944,0.2206 0.6085,0 c -4.3e-4,-0.11347 -0.0248,-0.18155 -0.0391,-0.2206 l -0.56944,0.2206 0.6085,0 -0.68608,0 0.68449,0.0512 0.002,-0.0512 -0.68608,0 0.6845,0.0512 -0.53989,-0.0401 0.49714,0.2206 c 0.0101,-0.0248 0.0338,-0.077 0.0428,-0.18049 l -0.53989,-0.0401 0.49714,0.2206 -0.22641,-0.10027 0.21638,0.12085 0.01,-0.0206 -0.22641,-0.10027 0.21638,0.12085 -0.0164,-0.009 0.0158,0.01 4.3e-4,-4.2e-4 -0.0164,-0.009 0.0158,0.01 c 0.007,-0.0185 0.13246,-0.17575 0.29501,-0.36151 0.24593,-0.28816 0.58528,-0.68239 0.8729,-1.18112 0.2871,-0.49714 0.52881,-1.1183 0.52934,-1.83763 0,-0.33618 -0.0544,-0.68872 -0.1731,-1.0439 l 0.006,0.0179 -0.006,-0.0179 c -0.24541,-0.72144 -0.77052,-1.28508 -1.42019,-1.75425 -0.98109,-0.70138 -2.29519,-1.22016 -3.77923,-1.58642 -1.48352,-0.3631 -3.13538,-0.56364 -4.77036,-0.56417 -1.52046,4.2e-4 -3.02561,0.1731 -4.37085,0.56892 -1.34208,0.39792 -2.54008,1.01856 -3.39029,1.97749 l -4.2e-4,4.2e-4 c -1.66612,1.8883 -3.12377,2.88681 -4.48379,3.461 -1.36107,0.57261 -2.65565,0.7283 -4.03995,0.83438 l -10e-4,0 -0.009,4.2e-4 c -0.0533,0.002 -0.2644,-0.0238 -0.54411,-0.0913 -0.53303,-0.12455 -1.34313,-0.37681 -2.35007,-0.7188 -3.537,-1.198 -9.53228,-3.49108 -16.20466,-5.48335 -6.67765,-1.99121 -14.034,-3.69269 -20.40345,-3.69585 -2.68204,4.2e-4 -5.19362,0.3024 -7.41388,1.03597 l -0.008,0.003 -0.008,0.003 c -13.73108,4.86958 -24.65556,6.69824 -32.96503,6.69772 -7.28669,0.002 -12.55894,-1.40911 -15.94975,-3.36074 -1.69673,-0.97475 -2.92164,-2.08145 -3.71274,-3.19976 -0.79163,-1.11989 -1.15209,-2.24242 -1.15261,-3.29846 4.2e-4,-0.8159 0.21374,-1.60014 0.64649,-2.34217 0.64808,-1.10934 1.80861,-2.1279 3.52012,-2.87361 1.70939,-0.74466 3.96289,-1.20856 6.73412,-1.20803 2.09676,0 4.4896,0.2644 7.16372,0.86657 0.42642,0.096 0.85021,-0.17205 0.94626,-0.59847 0.096,-0.42643 -0.17205,-0.85021 -0.59847,-0.94626 -2.7744,-0.62433 -5.28122,-0.9051 -7.51151,-0.9051 -3.92806,0.002 -7.00328,0.86816 -9.14754,2.30787 -1.07028,0.71985 -1.90571,1.58695 -2.47358,2.55801 -0.56839,0.97001 -0.86393,2.04399 -0.86287,3.14119 -4.2e-4,1.42335 0.49292,2.87151 1.44393,4.21358 1.42915,2.01496 3.87318,3.81143 7.34685,5.11551 3.47578,1.30302 7.9907,2.1126 13.60758,2.11312 8.54062,-8.4e-4 19.63135,-1.87352 33.49437,-6.78901 l -0.26441,-0.74624 0.24858,0.75152 c 2.00176,-0.66286 4.35343,-0.95629 6.9162,-0.95576 7.42706,-0.005 16.5783,2.46566 24.18058,4.9556 3.80352,1.24338 7.22335,2.48888 9.87267,3.42722 1.32572,0.4697 2.45722,0.86183 3.35861,1.14153 0.45123,0.13986 0.84441,0.25174 1.18428,0.33143 0.34251,0.0792 0.61958,0.13089 0.90615,0.13352 l 0.13247,-0.005 -10e-4,4.2e-4 c 1.41913,-0.10925 2.9285,-0.27813 4.53287,-0.95418 1.60543,-0.67447 3.27471,-1.84924 5.05746,-3.87318 l -0.002,0.002 8.4e-4,-0.002 c 0.56787,-0.64808 1.49407,-1.16633 2.65143,-1.5062 1.1542,-0.34146 2.52372,-0.50506 3.92279,-0.50454 2.00546,-0.002 4.07531,0.33566 5.66965,0.89402 0.79691,0.27707 1.47402,0.61114 1.95585,0.95893 0.48765,0.34778 0.7568,0.70032 0.84283,0.97053 l 0.006,0.0179 -0.006,-0.0179 c 0.0654,0.19633 0.0908,0.3726 0.0913,0.54201 -4.3e-4,0.26757 -0.0665,0.52564 -0.18313,0.78529 -0.17311,0.38843 -0.46337,0.76419 -0.73833,1.08612 -0.13827,0.16307 -0.27021,0.31137 -0.39159,0.46653 -0.0607,0.0792 -0.1198,0.15938 -0.17891,0.26282 -0.0559,0.10502 -0.12613,0.23169 -0.14777,0.4602 l -0.003,0.0665 c 0.005,0.23274 0.0712,0.36731 0.12349,0.47339 0.10555,0.19369 0.21374,0.31402 0.33934,0.45282 0.21797,0.23485 0.49345,0.48711 0.80958,0.77579 0.47339,0.43012 1.03387,0.9336 1.55212,1.46557 0.51772,0.53039 0.99006,1.09351 1.28033,1.60015 l 0,-4.2e-4 c 0.0839,0.14407 0.14355,0.36678 0.14355,0.67183 0.002,0.4222 -0.11928,0.98003 -0.34252,1.56056 -0.33142,0.87238 -0.88504,1.79806 -1.46398,2.49416 -0.28868,0.34885 -0.5837,0.64017 -0.84335,0.83966 -0.25807,0.20213 -0.48448,0.30029 -0.57631,0.31348 l -0.003,4.2e-4 0.003,-4.2e-4 c -1.56954,0.29765 -3.08894,0.97318 -4.31596,1.67509 -0.61325,0.35201 -1.15156,0.71141 -1.58643,1.04284 -0.21743,0.16624 -0.40901,0.3251 -0.57419,0.47709 -0.16519,0.15252 -0.30293,0.29396 -0.42168,0.4507 l 0.002,-0.003 -0.002,0.003 c -0.11135,0.15305 -0.14882,0.26071 -0.1921,0.3747 -0.0681,0.1958 -0.11558,0.40426 -0.16149,0.65125 -0.13352,0.73305 -0.22588,1.78274 -0.22694,2.83297 4.3e-4,0.58 0.0291,1.15631 0.10292,1.68089 0.0786,0.5267 0.18154,0.99482 0.42853,1.42335 0.0428,0.0718 0.0865,0.13669 0.14461,0.22061 0.2206,0.31612 0.63594,0.86973 1.21383,1.62389 2.01601,2.63243 5.96097,7.63447 9.48108,12.0296 1.75953,2.19756 3.41192,4.24208 4.66428,5.76306 0.62644,0.76102 1.15208,1.3901 1.54473,1.84608 0.19685,0.22852 0.3594,0.41271 0.48976,0.55414 0.066,0.0707 0.12296,0.13036 0.17838,0.18419 l 0.0881,0.0813 c 0.0338,0.028 0.067,0.0575 0.14091,0.10344 l 0.002,10e-4 -0.002,-10e-4 c 0.1103,0.066 0.20372,0.10502 0.30504,0.14461 0.18788,0.0712 0.39846,0.13299 0.64281,0.19685 0.84757,0.2206 2.09412,0.45175 3.14804,0.63436 1.05182,0.18154 1.89939,0.31032 1.90308,0.31084 0.43223,0.0655 0.83543,-0.23168 0.9014,-0.66391 0.0654,-0.43223 -0.23168,-0.83543 -0.66391,-0.9014"
       inkscape:connector-curvature="0" />
    <g
       style="font-size:64px;font-style:normal;font-variant:normal;font-weight:normal;font-stretch:normal;line-height:125%;letter-spacing:0px;word-spacing:0px;fill:#000000;fill-opacity:1;stroke:none;font-family:TeX Gyre Heros;-inkscape-font-specification:TeX Gyre Heros"
       id="text3015"
       transform="translate(17.172594,169.32013)">
      <path
         d="m 504.44602,354.08315 0,-4.032 c -0.576,0.128 -0.832,0.128 -1.152,0.128 -1.85599,0 -2.88,-0.96 -2.88,-2.624 l 0,-18.688 c 0,-5.95199 -4.352,-9.152 -12.608,-9.152 -8.12799,0 -13.12,3.13601 -13.44,10.88 l 5.376,0 c 0.448,-4.09599 2.88001,-5.952 7.872,-5.952 4.8,0 7.488,1.792 7.488,4.992 l 0,1.408 c 0,2.24 -1.344,3.2 -5.568,3.712 -7.55199,0.96 -8.704,1.216 -10.752,2.048 -3.90399,1.6 -5.888,4.60801 -5.888,8.704 0,6.08 4.22401,9.664 11.008,9.664 4.288,0 8.44801,-1.792 11.392,-4.928 0.576,2.56 2.88001,4.416 5.504,4.416 1.088,0 1.92001,-0.128 3.648,-0.576 m -9.344,-11.456 c 0,4.8 -4.864,7.872 -10.048,7.872 -4.15999,0 -6.592,-1.472 -6.592,-5.12 0,-3.52 2.36801,-5.056 8.064,-5.888 5.632,-0.768 6.78401,-1.024 8.576,-1.856 l 0,4.992"
         id="path3032"
         inkscape:connector-curvature="0" />
    </g>
    <g
       style="font-size:64px;font-style:normal;font-variant:normal;font-weight:normal;font-stretch:normal;line-height:125%;letter-spacing:0px;word-spacing:0px;fill:#000000;fill-opacity:1;stroke:none;font-family:TeX Gyre Heros;-inkscape-font-specification:TeX Gyre Heros"
       id="text3015-1"
       transform="translate(26.678679,169.32013)">
      <path
         d="m 438.91302,338.97915 c 0,-4.86399 -0.384,-7.936 -1.344,-10.432 -2.17599,-5.50399 -7.296,-8.832 -13.568,-8.832 -9.34399,0 -15.36,6.91201 -15.36,17.92 0,11.00799 5.82401,17.536 15.232,17.536 7.68,0 12.99201,-4.35201 14.336,-11.136 l -5.376,0 c -1.47199,4.416 -4.48,6.208 -8.768,6.208 -5.56799,0 -9.728,-3.58401 -9.856,-11.264 l 24.704,0 m -5.696,-4.736 c 0,0 0,0.256 -0.064,0.384 l -18.816,0 c 0.448,-5.95199 4.22401,-9.984 9.6,-9.984 5.248,0 9.28,4.35201 9.28,9.6"
         id="path3026-2"
         inkscape:connector-curvature="0" />
    </g>
    <g
       style="font-size:64px;font-style:normal;font-variant:normal;font-weight:normal;font-stretch:normal;line-height:125%;letter-spacing:0px;word-spacing:0px;fill:#000000;fill-opacity:1;stroke:none;font-family:TeX Gyre Heros;-inkscape-font-specification:TeX Gyre Heros"
       id="text3015-4"
       transform="translate(25.16345,170.28013)">
      <path
         d="m 406.22802,354.21115 -11.584,-17.344 11.264,-16.192 -6.016,0 -8.064,12.16 -8.064,-12.16 -6.08,0 11.2,16.448 -11.84,17.088 6.08,0 8.512,-12.864 8.384,12.864 6.208,0"
         id="path3024-7"
         inkscape:connector-curvature="0" />
    </g>
    <g
       style="font-size:64px;font-style:normal;font-variant:normal;font-weight:normal;font-stretch:normal;line-height:125%;letter-spacing:0px;word-spacing:0px;fill:#000000;fill-opacity:1;stroke:none;font-family:TeX Gyre Heros;-inkscape-font-specification:TeX Gyre Heros"
       id="text3015-9"
       transform="translate(26.173602,170.28013)">
      <path
         d="m 342.06002,320.67515 -6.016,0 -9.472,27.2 -8.96,-27.2 -6.016,0 11.776,33.536 5.824,0 12.864,-33.536"
         id="path3020-2"
         inkscape:connector-curvature="0" />
    </g>
    <g
       style="font-size:64px;font-style:normal;font-variant:normal;font-weight:normal;font-stretch:normal;line-height:125%;letter-spacing:0px;word-spacing:0px;fill:#000000;fill-opacity:1;stroke:none;font-family:TeX Gyre Heros;-inkscape-font-specification:TeX Gyre Heros"
       id="text3015-92"
       transform="translate(26.173601,169.32013)">
      <path
         d="m 374.59602,337.69915 c 0,-11.58399 -5.56801,-17.984 -15.232,-17.984 -9.40799,0 -15.104,6.46401 -15.104,17.728 0,11.26399 5.63201,17.728 15.168,17.728 9.40799,0 15.168,-6.46401 15.168,-17.472 m -5.568,-0.064 c 0,7.87199 -3.712,12.608 -9.6,12.608 -5.95199,0 -9.6,-4.67201 -9.6,-12.8 0,-8.06399 3.64801,-12.8 9.6,-12.8 6.016,0 9.6,4.67201 9.6,12.992"
         id="path3022-3"
         inkscape:connector-curvature="0" />
    </g>
    <g
       style="font-size:64px;font-style:normal;font-variant:normal;font-weight:normal;font-stretch:normal;line-height:125%;letter-spacing:0px;word-spacing:0px;fill:#000000;fill-opacity:1;stroke:none;font-family:TeX Gyre Heros;-inkscape-font-specification:TeX Gyre Heros"
       id="text3015-0"
       transform="translate(20.617764,170.28013)">
      <path
         d="m 465.74802,354.21115 0,-33.536 -5.312,0 0,33.536 5.312,0 m 0.704,-38.592 0,-6.656 -6.656,0 0,6.656 6.656,0"
         id="path3030-5"
         inkscape:connector-curvature="0" />
    </g>
    <g
       style="font-size:64px;font-style:normal;font-variant:normal;font-weight:normal;font-stretch:normal;line-height:125%;letter-spacing:0px;word-spacing:0px;fill:#000000;fill-opacity:1;stroke:none;font-family:TeX Gyre Heros;-inkscape-font-specification:TeX Gyre Heros"
       id="text3015-7"
       transform="translate(23.648221,170.28013)">
      <path
         d="m 451.37002,354.21115 0,-46.656 -5.312,0 0,46.656 5.312,0"
         id="path3028-37"
         inkscape:connector-curvature="0" />
    </g>
  </g>
</svg>
